NotoSerifGeorgian-Regular.ufo
<glyph name="acutecomb" format="2">
  <unicode hex="0301"/>
  <anchor x="-30" y="536" name="_top"/>
  <anchor x="-20" y="766" name="top"/>
  <outline>
    <contour>
      <point x="-97" y="606" type="line"/>
      <point x="-59" y="606" type="line"/>
      <point x="-6" y="642"/>
      <point x="72" y="721"/>
      <point x="97" y="756" type="curve"/>
      <point x="97" y="766" type="line"/>
      <point x="-10" y="766" type="line"/>
      <point x="-31" y="721"/>
      <point x="-68" y="657"/>
      <point x="-97" y="619" type="curve"/>
    </contour>
  </outline>
</glyph>
<glyph name="circumflexcomb" format="2">
  <unicode hex="0302"/>
  <anchor x="1" y="536" name="_top"/>
  <anchor x="1" y="766" name="top"/>
  <outline>
    <contour>
      <point x="-147" y="606" type="line"/>
      <point x="-108" y="606" type="line"/>
      <point x="-70" y="628"/>
      <point x="-30" y="664"/>
      <point x="0" y="696" type="curve"/>
      <point x="30" y="664"/>
      <point x="71" y="628"/>
      <point x="109" y="606" type="curve"/>
      <point x="148" y="606" type="line"/>
      <point x="148" y="619" type="line"/>
      <point x="117" y="657"/>
      <point x="69" y="721"/>
      <point x="48" y="766" type="curve"/>
      <point x="-47" y="766" type="line"/>
      <point x="-68" y="721"/>
      <point x="-116" y="657"/>
      <point x="-147" y="619" type="curve"/>
    </contour>
  </outline>
</glyph>
<glyph name="macroncomb" format="2">
  <unicode hex="0304"/>
  <anchor x="0" y="536" name="_top"/>
  <anchor x="0" y="675" name="top"/>
  <outline>
    <contour>
      <point x="-145" y="636" type="line"/>
      <point x="145" y="636" type="line"/>
      <point x="145" y="695" type="line"/>
      <point x="-145" y="695" type="line"/>
    </contour>
  </outline>
</glyph>
<glyph name="dieresiscomb" format="2">
  <unicode hex="0308"/>
  <anchor x="0" y="536" name="_top"/>
  <anchor x="0" y="744" name="top"/>
  <outline>
    <contour>
      <point x="95" y="617" type="curve" smooth="yes"/>
      <point x="123" y="617"/>
      <point x="146" y="632"/>
      <point x="146" y="673" type="curve" smooth="yes"/>
      <point x="146" y="715"/>
      <point x="123" y="729"/>
      <point x="95" y="729" type="curve" smooth="yes"/>
      <point x="66" y="729"/>
      <point x="44" y="715"/>
      <point x="44" y="673" type="curve" smooth="yes"/>
      <point x="44" y="632"/>
      <point x="66" y="617"/>
    </contour>
    <contour>
      <point x="-95" y="617" type="curve" smooth="yes"/>
      <point x="-67" y="617"/>
      <point x="-44" y="632"/>
      <point x="-44" y="673" type="curve" smooth="yes"/>
      <point x="-44" y="715"/>
      <point x="-67" y="729"/>
      <point x="-95" y="729" type="curve" smooth="yes"/>
      <point x="-124" y="729"/>
      <point x="-146" y="715"/>
      <point x="-146" y="673" type="curve" smooth="yes"/>
      <point x="-146" y="632"/>
      <point x="-124" y="617"/>
    </contour>
  </outline>
</glyph>
<glyph name="An-oldgeorgian" format="2">
  <advance width="658"/>
  <unicode hex="10A0"/>
  <note>
uni10A0
</note>
  <outline>
    <contour>
      <point x="388" y="-12" type="curve" smooth="yes"/>
      <point x="517" y="-12"/>
      <point x="624" y="22"/>
      <point x="624" y="110" type="curve" smooth="yes"/>
      <point x="624" y="159"/>
      <point x="592" y="184"/>
      <point x="540" y="184" type="curve"/>
      <point x="540" y="98"/>
      <point x="490" y="41"/>
      <point x="388" y="41" type="curve" smooth="yes"/>
      <point x="241" y="41"/>
      <point x="183" y="159"/>
      <point x="183" y="318" type="curve" smooth="yes"/>
      <point x="183" y="560"/>
      <point x="287" y="669"/>
      <point x="424" y="669" type="curve" smooth="yes"/>
      <point x="500" y="669"/>
      <point x="523" y="648"/>
      <point x="531" y="596" type="curve"/>
      <point x="572" y="606"/>
      <point x="599" y="629"/>
      <point x="599" y="659" type="curve" smooth="yes"/>
      <point x="599" y="704"/>
      <point x="566" y="726"/>
      <point x="501" y="726" type="curve" smooth="yes"/>
      <point x="453" y="726"/>
      <point x="396" y="711"/>
      <point x="341" y="697" type="curve" smooth="yes"/>
      <point x="291" y="684"/>
      <point x="242" y="672"/>
      <point x="202" y="672" type="curve" smooth="yes"/>
      <point x="151" y="672"/>
      <point x="129" y="689"/>
      <point x="124" y="724" type="curve"/>
      <point x="78" y="713"/>
      <point x="55" y="695"/>
      <point x="55" y="670" type="curve" smooth="yes"/>
      <point x="55" y="630"/>
      <point x="88" y="611"/>
      <point x="134" y="611" type="curve" smooth="yes"/>
      <point x="182" y="611"/>
      <point x="191" y="614"/>
      <point x="220" y="624" type="curve"/>
      <point x="131" y="562"/>
      <point x="64" y="459"/>
      <point x="64" y="318" type="curve" smooth="yes"/>
      <point x="64" y="117"/>
      <point x="189" y="-12"/>
    </contour>
  </outline>
</glyph>
<glyph name="Ban-oldgeorgian" format="2">
  <advance width="804"/>
  <unicode hex="10A1"/>
  <note>
uni10A1
</note>
  <outline>
    <contour>
      <point x="698" y="-117" type="curve"/>
      <point x="742" y="-117"/>
      <point x="776" y="-90"/>
      <point x="776" y="-53" type="curve" smooth="yes"/>
      <point x="776" y="20"/>
      <point x="712" y="54"/>
      <point x="592" y="54" type="curve" smooth="yes"/>
      <point x="575" y="54" type="line"/>
      <point x="575" y="610" type="line" smooth="yes"/>
      <point x="575" y="663"/>
      <point x="608" y="672"/>
      <point x="633" y="672" type="curve" smooth="yes"/>
      <point x="646" y="672" type="line"/>
      <point x="646" y="714" type="line"/>
      <point x="399" y="714" type="line"/>
      <point x="399" y="672" type="line"/>
      <point x="412" y="672" type="line" smooth="yes"/>
      <point x="437" y="672"/>
      <point x="474" y="663"/>
      <point x="474" y="610" type="curve" smooth="yes"/>
      <point x="474" y="476" type="line" smooth="yes"/>
      <point x="474" y="365"/>
      <point x="419" y="312"/>
      <point x="310" y="312" type="curve" smooth="yes"/>
      <point x="214" y="312"/>
      <point x="166" y="372"/>
      <point x="166" y="497" type="curve" smooth="yes"/>
      <point x="166" y="584"/>
      <point x="185" y="661"/>
      <point x="269" y="679" type="curve"/>
      <point x="269" y="695"/>
      <point x="261" y="726"/>
      <point x="207" y="726" type="curve" smooth="yes"/>
      <point x="127" y="726"/>
      <point x="55" y="645"/>
      <point x="55" y="496" type="curve" smooth="yes"/>
      <point x="55" y="338"/>
      <point x="147" y="258"/>
      <point x="298" y="258" type="curve" smooth="yes"/>
      <point x="384" y="258"/>
      <point x="449" y="286"/>
      <point x="473" y="329" type="curve"/>
      <point x="478" y="329" type="line"/>
      <point x="475" y="290"/>
      <point x="474" y="262"/>
      <point x="474" y="244" type="curve" smooth="yes"/>
      <point x="474" y="0" type="line"/>
      <point x="575" y="0" type="line" smooth="yes"/>
      <point x="662" y="0"/>
      <point x="698" y="-37"/>
    </contour>
  </outline>
</glyph>
<glyph name="Gan-oldgeorgian" format="2">
  <advance width="813"/>
  <unicode hex="10A2"/>
  <note>
uni10A2
</note>
  <outline>
    <contour>
      <point x="607" y="54" type="curve" smooth="yes"/>
      <point x="590" y="54" type="line"/>
      <point x="590" y="610" type="line" smooth="yes"/>
      <point x="590" y="663"/>
      <point x="627" y="672"/>
      <point x="652" y="672" type="curve" smooth="yes"/>
      <point x="666" y="672" type="line"/>
      <point x="666" y="714" type="line"/>
      <point x="38" y="714" type="line"/>
      <point x="38" y="672" type="line"/>
      <point x="52" y="672" type="line" smooth="yes"/>
      <point x="77" y="672"/>
      <point x="114" y="663"/>
      <point x="114" y="610" type="curve" smooth="yes"/>
      <point x="114" y="428" type="line" smooth="yes"/>
      <point x="114" y="375"/>
      <point x="77" y="366"/>
      <point x="52" y="366" type="curve" smooth="yes"/>
      <point x="38" y="366" type="line"/>
      <point x="38" y="324" type="line"/>
      <point x="214" y="324" type="line"/>
      <point x="214" y="660" type="line"/>
      <point x="489" y="660" type="line"/>
      <point x="489" y="0" type="line"/>
      <point x="590" y="0" type="line" smooth="yes"/>
      <point x="677" y="0"/>
      <point x="713" y="-37"/>
      <point x="713" y="-117" type="curve"/>
      <point x="757" y="-117"/>
      <point x="791" y="-90"/>
      <point x="791" y="-53" type="curve" smooth="yes"/>
      <point x="791" y="20"/>
      <point x="727" y="54"/>
    </contour>
  </outline>
</glyph>
<glyph name="Don-oldgeorgian" format="2">
  <advance width="743"/>
  <unicode hex="10A3"/>
  <note>
uni10A3
</note>
  <outline>
    <contour>
      <point x="371" y="-10" type="curve" smooth="yes"/>
      <point x="568" y="-10"/>
      <point x="685" y="102"/>
      <point x="685" y="280" type="curve" smooth="yes"/>
      <point x="685" y="441"/>
      <point x="585" y="544"/>
      <point x="418" y="560" type="curve"/>
      <point x="418" y="649" type="line"/>
      <point x="468" y="661"/>
      <point x="507" y="666"/>
      <point x="536" y="666" type="curve" smooth="yes"/>
      <point x="583" y="666"/>
      <point x="606" y="647"/>
      <point x="614" y="596" type="curve"/>
      <point x="655" y="606"/>
      <point x="682" y="629"/>
      <point x="682" y="659" type="curve" smooth="yes"/>
      <point x="682" y="704"/>
      <point x="649" y="726"/>
      <point x="584" y="726" type="curve" smooth="yes"/>
      <point x="554" y="726"/>
      <point x="480" y="716"/>
      <point x="378" y="692" type="curve" smooth="yes"/>
      <point x="307" y="675"/>
      <point x="263" y="672"/>
      <point x="205" y="672" type="curve" smooth="yes"/>
      <point x="154" y="672"/>
      <point x="132" y="689"/>
      <point x="127" y="724" type="curve"/>
      <point x="81" y="713"/>
      <point x="58" y="695"/>
      <point x="58" y="670" type="curve" smooth="yes"/>
      <point x="58" y="630"/>
      <point x="91" y="611"/>
      <point x="157" y="611" type="curve" smooth="yes"/>
      <point x="195" y="611"/>
      <point x="250" y="617"/>
      <point x="323" y="630" type="curve"/>
      <point x="323" y="560" type="line"/>
      <point x="152" y="545"/>
      <point x="56" y="445"/>
      <point x="56" y="281" type="curve" smooth="yes"/>
      <point x="56" y="95"/>
      <point x="170" y="-10"/>
    </contour>
    <contour>
      <point x="371" y="44" type="curve" smooth="yes"/>
      <point x="233" y="44"/>
      <point x="167" y="118"/>
      <point x="167" y="280" type="curve" smooth="yes"/>
      <point x="167" y="442"/>
      <point x="234" y="515"/>
      <point x="372" y="515" type="curve" smooth="yes"/>
      <point x="508" y="515"/>
      <point x="574" y="442"/>
      <point x="574" y="280" type="curve" smooth="yes"/>
      <point x="574" y="118"/>
      <point x="509" y="44"/>
    </contour>
  </outline>
</glyph>
<glyph name="En-oldgeorgian" format="2">
  <advance width="706"/>
  <unicode hex="10A4"/>
  <note>
uni10A4
</note>
  <outline>
    <contour>
      <point x="489" y="0" type="line"/>
      <point x="590" y="0" type="line"/>
      <point x="590" y="610" type="line" smooth="yes"/>
      <point x="590" y="663"/>
      <point x="627" y="672"/>
      <point x="652" y="672" type="curve" smooth="yes"/>
      <point x="666" y="672" type="line"/>
      <point x="666" y="714" type="line"/>
      <point x="38" y="714" type="line"/>
      <point x="38" y="672" type="line"/>
      <point x="52" y="672" type="line" smooth="yes"/>
      <point x="77" y="672"/>
      <point x="114" y="663"/>
      <point x="114" y="610" type="curve" smooth="yes"/>
      <point x="114" y="428" type="line" smooth="yes"/>
      <point x="114" y="375"/>
      <point x="77" y="366"/>
      <point x="52" y="366" type="curve" smooth="yes"/>
      <point x="38" y="366" type="line"/>
      <point x="38" y="324" type="line"/>
      <point x="214" y="324" type="line"/>
      <point x="214" y="660" type="line"/>
      <point x="489" y="660" type="line"/>
    </contour>
  </outline>
</glyph>
<glyph name="Vin-oldgeorgian" format="2">
  <advance width="813"/>
  <unicode hex="10A5"/>
  <note>
uni10A5
</note>
  <outline>
    <contour>
      <point x="642" y="409" type="curve" smooth="yes"/>
      <point x="590" y="409" type="line"/>
      <point x="590" y="610" type="line" smooth="yes"/>
      <point x="590" y="663"/>
      <point x="627" y="672"/>
      <point x="652" y="672" type="curve" smooth="yes"/>
      <point x="666" y="672" type="line"/>
      <point x="666" y="714" type="line"/>
      <point x="38" y="714" type="line"/>
      <point x="38" y="672" type="line"/>
      <point x="52" y="672" type="line" smooth="yes"/>
      <point x="77" y="672"/>
      <point x="114" y="663"/>
      <point x="114" y="610" type="curve" smooth="yes"/>
      <point x="114" y="428" type="line" smooth="yes"/>
      <point x="114" y="375"/>
      <point x="77" y="366"/>
      <point x="52" y="366" type="curve" smooth="yes"/>
      <point x="38" y="366" type="line"/>
      <point x="38" y="324" type="line"/>
      <point x="214" y="324" type="line"/>
      <point x="214" y="660" type="line"/>
      <point x="489" y="660" type="line"/>
      <point x="489" y="0" type="line"/>
      <point x="590" y="0" type="line"/>
      <point x="590" y="355" type="line"/>
      <point x="598" y="355" type="line" smooth="yes"/>
      <point x="680" y="355"/>
      <point x="713" y="313"/>
      <point x="713" y="217" type="curve"/>
      <point x="761" y="217"/>
      <point x="791" y="242"/>
      <point x="791" y="286" type="curve" smooth="yes"/>
      <point x="791" y="370"/>
      <point x="729" y="409"/>
    </contour>
  </outline>
</glyph>
<glyph name="Zen-oldgeorgian" format="2">
  <advance width="734"/>
  <unicode hex="10A6"/>
  <note>
uni10A6
</note>
  <outline>
    <contour>
      <point x="424" y="-12" type="curve" smooth="yes"/>
      <point x="577" y="-12"/>
      <point x="673" y="93"/>
      <point x="673" y="269" type="curve" smooth="yes"/>
      <point x="673" y="445"/>
      <point x="581" y="546"/>
      <point x="427" y="546" type="curve" smooth="yes"/>
      <point x="369" y="546"/>
      <point x="319" y="520"/>
      <point x="290" y="480" type="curve"/>
      <point x="285" y="480" type="line"/>
      <point x="288" y="518"/>
      <point x="289" y="546"/>
      <point x="289" y="565" type="curve" smooth="yes"/>
      <point x="289" y="714" type="line"/>
      <point x="20" y="714" type="line"/>
      <point x="20" y="660" type="line"/>
      <point x="188" y="660" type="line"/>
      <point x="188" y="269" type="line" smooth="yes"/>
      <point x="188" y="96"/>
      <point x="279" y="-12"/>
    </contour>
    <contour>
      <point x="426" y="40" type="curve" smooth="yes"/>
      <point x="332" y="40"/>
      <point x="289" y="111"/>
      <point x="289" y="269" type="curve" smooth="yes"/>
      <point x="289" y="412"/>
      <point x="335" y="494"/>
      <point x="425" y="494" type="curve" smooth="yes"/>
      <point x="521" y="494"/>
      <point x="562" y="426"/>
      <point x="562" y="269" type="curve" smooth="yes"/>
      <point x="562" y="112"/>
      <point x="520" y="40"/>
    </contour>
  </outline>
</glyph>
<glyph name="Tan-oldgeorgian" format="2">
  <advance width="815"/>
  <unicode hex="10A7"/>
  <note>
uni10A7
</note>
  <outline>
    <contour>
      <point x="637" y="409" type="curve" smooth="yes"/>
      <point x="594" y="409" type="line"/>
      <point x="594" y="604" type="line" smooth="yes"/>
      <point x="594" y="663"/>
      <point x="632" y="672"/>
      <point x="676" y="672" type="curve" smooth="yes"/>
      <point x="689" y="672" type="line"/>
      <point x="689" y="714" type="line"/>
      <point x="383" y="714" type="line" smooth="yes"/>
      <point x="177" y="714"/>
      <point x="57" y="585"/>
      <point x="57" y="358" type="curve" smooth="yes"/>
      <point x="57" y="139"/>
      <point x="166" y="0"/>
      <point x="383" y="0" type="curve" smooth="yes"/>
      <point x="689" y="0" type="line"/>
      <point x="689" y="42" type="line"/>
      <point x="676" y="42" type="line" smooth="yes"/>
      <point x="631" y="42"/>
      <point x="594" y="51"/>
      <point x="594" y="114" type="curve" smooth="yes"/>
      <point x="594" y="355" type="line"/>
      <point x="602" y="355" type="line" smooth="yes"/>
      <point x="684" y="355"/>
      <point x="717" y="313"/>
      <point x="717" y="217" type="curve"/>
      <point x="765" y="217"/>
      <point x="795" y="242"/>
      <point x="795" y="286" type="curve" smooth="yes"/>
      <point x="795" y="370"/>
      <point x="732" y="409"/>
    </contour>
    <contour>
      <point x="493" y="51" type="line"/>
      <point x="406" y="51" type="line" smooth="yes"/>
      <point x="247" y="51"/>
      <point x="168" y="160"/>
      <point x="168" y="358" type="curve" smooth="yes"/>
      <point x="168" y="556"/>
      <point x="247" y="664"/>
      <point x="405" y="664" type="curve" smooth="yes"/>
      <point x="493" y="664" type="line"/>
    </contour>
  </outline>
</glyph>
<glyph name="In-oldgeorgian" format="2">
  <advance width="487"/>
  <unicode hex="10A8"/>
  <note>
uni10A8
</note>
  <outline>
    <contour>
      <point x="451" y="714" type="line"/>
      <point x="20" y="714" type="line"/>
      <point x="20" y="660" type="line"/>
      <point x="279" y="660" type="line"/>
      <point x="279" y="0" type="line"/>
      <point x="380" y="0" type="line"/>
      <point x="380" y="610" type="line" smooth="yes"/>
      <point x="380" y="663"/>
      <point x="413" y="672"/>
      <point x="438" y="672" type="curve" smooth="yes"/>
      <point x="451" y="672" type="line"/>
    </contour>
  </outline>
</glyph>
<glyph name="Kan-oldgeorgian" format="2">
  <advance width="682"/>
  <unicode hex="10A9"/>
  <note>
uni10A9
</note>
  <outline>
    <contour>
      <point x="414" y="0" type="line"/>
      <point x="661" y="0" type="line"/>
      <point x="661" y="42" type="line"/>
      <point x="648" y="42" type="line" smooth="yes"/>
      <point x="623" y="42"/>
      <point x="590" y="51"/>
      <point x="590" y="104" type="curve" smooth="yes"/>
      <point x="590" y="374" type="line" smooth="yes"/>
      <point x="590" y="477"/>
      <point x="486" y="566"/>
      <point x="362" y="566" type="curve" smooth="yes"/>
      <point x="291" y="566"/>
      <point x="238" y="542"/>
      <point x="207" y="500" type="curve"/>
      <point x="202" y="500" type="line"/>
      <point x="204" y="538"/>
      <point x="206" y="556"/>
      <point x="206" y="585" type="curve" smooth="yes"/>
      <point x="206" y="610" type="line" smooth="yes"/>
      <point x="206" y="663"/>
      <point x="239" y="672"/>
      <point x="264" y="672" type="curve" smooth="yes"/>
      <point x="277" y="672" type="line"/>
      <point x="277" y="714" type="line"/>
      <point x="30" y="714" type="line"/>
      <point x="30" y="672" type="line"/>
      <point x="43" y="672" type="line" smooth="yes"/>
      <point x="68" y="672"/>
      <point x="105" y="663"/>
      <point x="105" y="610" type="curve" smooth="yes"/>
      <point x="105" y="335" type="line" smooth="yes"/>
      <point x="105" y="225"/>
      <point x="197" y="130"/>
      <point x="326" y="130" type="curve" smooth="yes"/>
      <point x="403" y="130"/>
      <point x="457" y="152"/>
      <point x="488" y="196" type="curve"/>
      <point x="493" y="196" type="line"/>
      <point x="489" y="162"/>
      <point x="489" y="144"/>
      <point x="489" y="126" type="curve" smooth="yes"/>
      <point x="489" y="97" type="line" smooth="yes"/>
      <point x="489" y="44"/>
      <point x="452" y="42"/>
      <point x="427" y="42" type="curve" smooth="yes"/>
      <point x="414" y="42" type="line"/>
    </contour>
    <contour>
      <point x="349" y="182" type="curve" smooth="yes"/>
      <point x="255" y="182"/>
      <point x="206" y="258"/>
      <point x="206" y="345" type="curve" smooth="yes"/>
      <point x="206" y="435"/>
      <point x="251" y="514"/>
      <point x="349" y="514" type="curve" smooth="yes"/>
      <point x="438" y="514"/>
      <point x="489" y="441"/>
      <point x="489" y="350" type="curve" smooth="yes"/>
      <point x="489" y="264"/>
      <point x="443" y="182"/>
    </contour>
  </outline>
</glyph>
<glyph name="Las-oldgeorgian" format="2">
  <advance width="975"/>
  <unicode hex="10AA"/>
  <note>
uni10AA
</note>
  <outline>
    <contour>
      <point x="665" y="-12" type="curve" smooth="yes"/>
      <point x="818" y="-12"/>
      <point x="914" y="91"/>
      <point x="914" y="269" type="curve" smooth="yes"/>
      <point x="914" y="455"/>
      <point x="822" y="546"/>
      <point x="668" y="546" type="curve" smooth="yes"/>
      <point x="610" y="546"/>
      <point x="560" y="520"/>
      <point x="531" y="480" type="curve"/>
      <point x="526" y="480" type="line"/>
      <point x="529" y="518"/>
      <point x="530" y="546"/>
      <point x="530" y="565" type="curve" smooth="yes"/>
      <point x="530" y="610" type="line" smooth="yes"/>
      <point x="530" y="663"/>
      <point x="567" y="672"/>
      <point x="592" y="672" type="curve" smooth="yes"/>
      <point x="606" y="672" type="line"/>
      <point x="606" y="714" type="line"/>
      <point x="38" y="714" type="line"/>
      <point x="38" y="672" type="line"/>
      <point x="52" y="672" type="line" smooth="yes"/>
      <point x="77" y="672"/>
      <point x="114" y="663"/>
      <point x="114" y="610" type="curve" smooth="yes"/>
      <point x="114" y="428" type="line" smooth="yes"/>
      <point x="114" y="375"/>
      <point x="77" y="366"/>
      <point x="52" y="366" type="curve" smooth="yes"/>
      <point x="38" y="366" type="line"/>
      <point x="38" y="324" type="line"/>
      <point x="214" y="324" type="line"/>
      <point x="214" y="660" type="line"/>
      <point x="429" y="660" type="line"/>
      <point x="429" y="269" type="line" smooth="yes"/>
      <point x="429" y="94"/>
      <point x="520" y="-12"/>
    </contour>
    <contour>
      <point x="667" y="42" type="curve" smooth="yes"/>
      <point x="572" y="42"/>
      <point x="530" y="110"/>
      <point x="530" y="269" type="curve" smooth="yes"/>
      <point x="530" y="412"/>
      <point x="576" y="492"/>
      <point x="666" y="492" type="curve" smooth="yes"/>
      <point x="762" y="492"/>
      <point x="803" y="426"/>
      <point x="803" y="269" type="curve" smooth="yes"/>
      <point x="803" y="110"/>
      <point x="762" y="42"/>
    </contour>
  </outline>
</glyph>
<glyph name="Man-oldgeorgian" format="2">
  <advance width="642"/>
  <unicode hex="10AB"/>
  <note>
uni10AB
</note>
  <outline>
    <contour>
      <point x="277" y="-12" type="curve" smooth="yes"/>
      <point x="433" y="-12"/>
      <point x="511" y="66"/>
      <point x="511" y="225" type="curve" smooth="yes"/>
      <point x="511" y="390" type="line"/>
      <point x="602" y="390" type="line"/>
      <point x="602" y="444" type="line"/>
      <point x="511" y="444" type="line"/>
      <point x="511" y="610" type="line" smooth="yes"/>
      <point x="511" y="663"/>
      <point x="544" y="672"/>
      <point x="569" y="672" type="curve" smooth="yes"/>
      <point x="582" y="672" type="line"/>
      <point x="582" y="714" type="line"/>
      <point x="67" y="714" type="line"/>
      <point x="67" y="653" type="line"/>
      <point x="410" y="653" type="line"/>
      <point x="410" y="444" type="line"/>
      <point x="298" y="444" type="line" smooth="yes"/>
      <point x="116" y="444"/>
      <point x="38" y="378"/>
      <point x="38" y="220" type="curve" smooth="yes"/>
      <point x="38" y="70"/>
      <point x="127" y="-12"/>
    </contour>
    <contour>
      <point x="273" y="42" type="curve" smooth="yes"/>
      <point x="190" y="42"/>
      <point x="146" y="99"/>
      <point x="146" y="214" type="curve" smooth="yes"/>
      <point x="146" y="335"/>
      <point x="194" y="390"/>
      <point x="298" y="390" type="curve" smooth="yes"/>
      <point x="410" y="390" type="line"/>
      <point x="410" y="225" type="line" smooth="yes"/>
      <point x="410" y="102"/>
      <point x="365" y="42"/>
    </contour>
  </outline>
</glyph>
<glyph name="Nar-oldgeorgian" format="2">
  <advance width="725"/>
  <unicode hex="10AC"/>
  <note>
uni10AC
</note>
  <outline>
    <contour>
      <point x="38" y="0" type="line"/>
      <point x="329" y="0" type="line"/>
      <point x="329" y="42" type="line"/>
      <point x="316" y="42" type="line" smooth="yes"/>
      <point x="271" y="42"/>
      <point x="234" y="51"/>
      <point x="234" y="114" type="curve" smooth="yes"/>
      <point x="234" y="261" type="line" smooth="yes"/>
      <point x="234" y="369"/>
      <point x="286" y="416"/>
      <point x="368" y="416" type="curve" smooth="yes"/>
      <point x="447" y="416"/>
      <point x="489" y="367"/>
      <point x="489" y="261" type="curve" smooth="yes"/>
      <point x="489" y="0" type="line"/>
      <point x="685" y="0" type="line"/>
      <point x="685" y="42" type="line"/>
      <point x="672" y="42" type="line" smooth="yes"/>
      <point x="628" y="42"/>
      <point x="590" y="50"/>
      <point x="590" y="109" type="curve" smooth="yes"/>
      <point x="590" y="261" type="line" smooth="yes"/>
      <point x="590" y="398"/>
      <point x="508" y="476"/>
      <point x="388" y="476" type="curve" smooth="yes"/>
      <point x="318" y="476"/>
      <point x="254" y="448"/>
      <point x="235" y="405" type="curve"/>
      <point x="230" y="405" type="line"/>
      <point x="232" y="442"/>
      <point x="234" y="471"/>
      <point x="234" y="490" type="curve" smooth="yes"/>
      <point x="234" y="660" type="line"/>
      <point x="573" y="660" type="line"/>
      <point x="573" y="714" type="line"/>
      <point x="38" y="714" type="line"/>
      <point x="38" y="672" type="line"/>
      <point x="51" y="672" type="line" smooth="yes"/>
      <point x="111" y="672"/>
      <point x="133" y="650"/>
      <point x="133" y="600" type="curve" smooth="yes"/>
      <point x="133" y="114" type="line" smooth="yes"/>
      <point x="133" y="51"/>
      <point x="96" y="42"/>
      <point x="51" y="42" type="curve" smooth="yes"/>
      <point x="38" y="42" type="line"/>
    </contour>
  </outline>
</glyph>
<glyph name="On-oldgeorgian" format="2">
  <advance width="812"/>
  <unicode hex="10AD"/>
  <note>
uni10AD
</note>
  <outline>
    <contour>
      <point x="754" y="174" type="curve" smooth="yes"/>
      <point x="737" y="174"/>
      <point x="731" y="170"/>
      <point x="726" y="167" type="curve"/>
      <point x="733" y="153"/>
      <point x="737" y="139"/>
      <point x="737" y="125" type="curve" smooth="yes"/>
      <point x="737" y="87"/>
      <point x="729" y="42"/>
      <point x="663" y="42" type="curve" smooth="yes"/>
      <point x="637" y="42"/>
      <point x="615" y="49"/>
      <point x="591" y="73" type="curve"/>
      <point x="651" y="136"/>
      <point x="685" y="232"/>
      <point x="685" y="358" type="curve" smooth="yes"/>
      <point x="685" y="589"/>
      <point x="567" y="726"/>
      <point x="372" y="726" type="curve" smooth="yes"/>
      <point x="168" y="726"/>
      <point x="56" y="592"/>
      <point x="56" y="359" type="curve" smooth="yes"/>
      <point x="56" y="121"/>
      <point x="170" y="-12"/>
      <point x="371" y="-12" type="curve" smooth="yes"/>
      <point x="444" y="-12"/>
      <point x="506" y="7"/>
      <point x="556" y="43" type="curve"/>
      <point x="582" y="12"/>
      <point x="617" y="-12"/>
      <point x="679" y="-12" type="curve" smooth="yes"/>
      <point x="763" y="-12"/>
      <point x="814" y="41"/>
      <point x="814" y="109" type="curve" smooth="yes"/>
      <point x="814" y="151"/>
      <point x="792" y="174"/>
    </contour>
    <contour>
      <point x="371" y="42" type="curve" smooth="yes"/>
      <point x="234" y="42"/>
      <point x="167" y="141"/>
      <point x="167" y="358" type="curve" smooth="yes"/>
      <point x="167" y="576"/>
      <point x="234" y="672"/>
      <point x="372" y="672" type="curve" smooth="yes"/>
      <point x="509" y="672"/>
      <point x="574" y="575"/>
      <point x="574" y="358" type="curve" smooth="yes"/>
      <point x="574" y="140"/>
      <point x="508" y="42"/>
    </contour>
  </outline>
</glyph>
<glyph name="Par-oldgeorgian" format="2">
  <advance width="804"/>
  <unicode hex="10AE"/>
  <note>
uni10AE
</note>
  <outline>
    <contour>
      <point x="775" y="714" type="line"/>
      <point x="528" y="714" type="line"/>
      <point x="528" y="672" type="line"/>
      <point x="541" y="672" type="line" smooth="yes"/>
      <point x="566" y="672"/>
      <point x="603" y="663"/>
      <point x="603" y="610" type="curve" smooth="yes"/>
      <point x="603" y="206" type="line" smooth="yes"/>
      <point x="603" y="106"/>
      <point x="545" y="48"/>
      <point x="446" y="48" type="curve" smooth="yes"/>
      <point x="343" y="48"/>
      <point x="289" y="103"/>
      <point x="289" y="210" type="curve" smooth="yes"/>
      <point x="289" y="714" type="line"/>
      <point x="20" y="714" type="line"/>
      <point x="20" y="660" type="line"/>
      <point x="188" y="660" type="line"/>
      <point x="188" y="216" type="line" smooth="yes"/>
      <point x="188" y="61"/>
      <point x="274" y="-12"/>
      <point x="450" y="-12" type="curve" smooth="yes"/>
      <point x="612" y="-12"/>
      <point x="704" y="65"/>
      <point x="704" y="204" type="curve" smooth="yes"/>
      <point x="704" y="610" type="line" smooth="yes"/>
      <point x="704" y="663"/>
      <point x="737" y="672"/>
      <point x="762" y="672" type="curve" smooth="yes"/>
      <point x="775" y="672" type="line"/>
    </contour>
  </outline>
</glyph>
<glyph name="Zhar-oldgeorgian" format="2">
  <advance width="739"/>
  <unicode hex="10AF"/>
  <note>
uni10AF
</note>
  <outline>
    <contour>
      <point x="636" y="104" type="curve" smooth="yes"/>
      <point x="636" y="610" type="line" smooth="yes"/>
      <point x="636" y="663"/>
      <point x="669" y="672"/>
      <point x="694" y="672" type="curve" smooth="yes"/>
      <point x="707" y="672" type="line"/>
      <point x="707" y="714" type="line"/>
      <point x="460" y="714" type="line"/>
      <point x="460" y="672" type="line"/>
      <point x="473" y="672" type="line" smooth="yes"/>
      <point x="498" y="672"/>
      <point x="535" y="663"/>
      <point x="535" y="610" type="curve" smooth="yes"/>
      <point x="535" y="476" type="line" smooth="yes"/>
      <point x="535" y="365"/>
      <point x="480" y="312"/>
      <point x="371" y="312" type="curve" smooth="yes"/>
      <point x="275" y="312"/>
      <point x="227" y="371"/>
      <point x="227" y="489" type="curve" smooth="yes"/>
      <point x="227" y="577"/>
      <point x="248" y="672"/>
      <point x="310" y="672" type="curve"/>
      <point x="310" y="714" type="line"/>
      <point x="20" y="714" type="line"/>
      <point x="20" y="660" type="line"/>
      <point x="186" y="660" type="line"/>
      <point x="140" y="618"/>
      <point x="116" y="561"/>
      <point x="116" y="488" type="curve" smooth="yes"/>
      <point x="116" y="338"/>
      <point x="205" y="258"/>
      <point x="359" y="258" type="curve" smooth="yes"/>
      <point x="440" y="258"/>
      <point x="499" y="282"/>
      <point x="534" y="329" type="curve"/>
      <point x="539" y="329" type="line"/>
      <point x="537" y="290"/>
      <point x="535" y="262"/>
      <point x="535" y="244" type="curve" smooth="yes"/>
      <point x="535" y="104" type="line" smooth="yes"/>
      <point x="535" y="51"/>
      <point x="498" y="42"/>
      <point x="473" y="42" type="curve" smooth="yes"/>
      <point x="460" y="42" type="line"/>
      <point x="460" y="0" type="line"/>
      <point x="707" y="0" type="line"/>
      <point x="707" y="42" type="line"/>
      <point x="694" y="42" type="line" smooth="yes"/>
      <point x="669" y="42"/>
      <point x="636" y="51"/>
    </contour>
  </outline>
</glyph>
<glyph name="Rae-oldgeorgian" format="2">
  <advance width="853"/>
  <unicode hex="10B0"/>
  <note>
uni10B0
</note>
  <outline>
    <contour>
      <point x="273" y="-12" type="curve" smooth="yes"/>
      <point x="416" y="-12"/>
      <point x="496" y="68"/>
      <point x="496" y="223" type="curve" smooth="yes"/>
      <point x="496" y="301" type="line" smooth="yes"/>
      <point x="496" y="405"/>
      <point x="548" y="446"/>
      <point x="610" y="446" type="curve" smooth="yes"/>
      <point x="669" y="446"/>
      <point x="705" y="407"/>
      <point x="705" y="331" type="curve" smooth="yes"/>
      <point x="705" y="279"/>
      <point x="691" y="243"/>
      <point x="664" y="211" type="curve"/>
      <point x="680" y="206"/>
      <point x="694" y="204"/>
      <point x="707" y="204" type="curve" smooth="yes"/>
      <point x="768" y="204"/>
      <point x="803" y="270"/>
      <point x="803" y="339" type="curve" smooth="yes"/>
      <point x="803" y="437"/>
      <point x="726" y="506"/>
      <point x="629" y="506" type="curve" smooth="yes"/>
      <point x="576" y="506"/>
      <point x="522" y="478"/>
      <point x="497" y="435" type="curve"/>
      <point x="492" y="435" type="line"/>
      <point x="494" y="472"/>
      <point x="496" y="501"/>
      <point x="496" y="520" type="curve" smooth="yes"/>
      <point x="496" y="610" type="line" smooth="yes"/>
      <point x="496" y="663"/>
      <point x="529" y="672"/>
      <point x="554" y="672" type="curve" smooth="yes"/>
      <point x="567" y="672" type="line"/>
      <point x="567" y="714" type="line"/>
      <point x="320" y="714" type="line"/>
      <point x="320" y="672" type="line"/>
      <point x="333" y="672" type="line" smooth="yes"/>
      <point x="358" y="672"/>
      <point x="395" y="663"/>
      <point x="395" y="610" type="curve" smooth="yes"/>
      <point x="395" y="220" type="line" smooth="yes"/>
      <point x="395" y="107"/>
      <point x="350" y="42"/>
      <point x="273" y="42" type="curve" smooth="yes"/>
      <point x="192" y="42"/>
      <point x="151" y="99"/>
      <point x="151" y="212" type="curve" smooth="yes"/>
      <point x="151" y="281"/>
      <point x="165" y="317"/>
      <point x="192" y="352" type="curve"/>
      <point x="176" y="357"/>
      <point x="162" y="359"/>
      <point x="149" y="359" type="curve" smooth="yes"/>
      <point x="85" y="359"/>
      <point x="50" y="283"/>
      <point x="50" y="216" type="curve" smooth="yes"/>
      <point x="50" y="74"/>
      <point x="138" y="-12"/>
    </contour>
  </outline>
</glyph>
<glyph name="San-oldgeorgian" format="2">
  <advance width="606"/>
  <unicode hex="10B1"/>
  <note>
uni10B1
</note>
  <outline>
    <contour>
      <point x="333" y="-12" type="curve" smooth="yes"/>
      <point x="468" y="-12"/>
      <point x="556" y="74"/>
      <point x="556" y="216" type="curve" smooth="yes"/>
      <point x="556" y="283"/>
      <point x="521" y="359"/>
      <point x="457" y="359" type="curve" smooth="yes"/>
      <point x="444" y="359"/>
      <point x="430" y="357"/>
      <point x="414" y="352" type="curve"/>
      <point x="441" y="317"/>
      <point x="455" y="281"/>
      <point x="455" y="212" type="curve" smooth="yes"/>
      <point x="455" y="99"/>
      <point x="414" y="42"/>
      <point x="333" y="42" type="curve" smooth="yes"/>
      <point x="256" y="42"/>
      <point x="211" y="107"/>
      <point x="211" y="220" type="curve" smooth="yes"/>
      <point x="211" y="714" type="line"/>
      <point x="15" y="714" type="line"/>
      <point x="15" y="672" type="line"/>
      <point x="28" y="672" type="line" smooth="yes"/>
      <point x="79" y="672"/>
      <point x="110" y="659"/>
      <point x="110" y="604" type="curve" smooth="yes"/>
      <point x="110" y="223" type="line" smooth="yes"/>
      <point x="110" y="68"/>
      <point x="200" y="-12"/>
    </contour>
  </outline>
</glyph>
<glyph name="Tar-oldgeorgian" format="2">
  <advance width="604"/>
  <unicode hex="10B2"/>
  <note>
uni10B2
</note>
  <outline>
    <contour>
      <point x="448" y="-95" type="curve"/>
      <point x="499" y="-95"/>
      <point x="526" y="-73"/>
      <point x="526" y="-34" type="curve" smooth="yes"/>
      <point x="526" y="25"/>
      <point x="479" y="54"/>
      <point x="385" y="54" type="curve" smooth="yes"/>
      <point x="211" y="54" type="line"/>
      <point x="211" y="278" type="line"/>
      <point x="274" y="278" type="line" smooth="yes"/>
      <point x="444" y="278"/>
      <point x="542" y="360"/>
      <point x="542" y="505" type="curve" smooth="yes"/>
      <point x="542" y="640"/>
      <point x="458" y="714"/>
      <point x="296" y="714" type="curve" smooth="yes"/>
      <point x="15" y="714" type="line"/>
      <point x="15" y="672" type="line"/>
      <point x="28" y="672" type="line" smooth="yes"/>
      <point x="79" y="672"/>
      <point x="110" y="659"/>
      <point x="110" y="604" type="curve" smooth="yes"/>
      <point x="110" y="0" type="line"/>
      <point x="331" y="0" type="line" smooth="yes"/>
      <point x="417" y="0"/>
      <point x="448" y="-16"/>
    </contour>
    <contour>
      <point x="211" y="325" type="line"/>
      <point x="211" y="666" type="line"/>
      <point x="279" y="666" type="line" smooth="yes"/>
      <point x="388" y="666"/>
      <point x="434" y="618"/>
      <point x="434" y="501" type="curve" smooth="yes"/>
      <point x="434" y="376"/>
      <point x="387" y="325"/>
      <point x="264" y="325" type="curve" smooth="yes"/>
    </contour>
  </outline>
</glyph>
<glyph name="Un-oldgeorgian" format="2">
  <advance width="746"/>
  <unicode hex="10B3"/>
  <note>
uni10B3
</note>
  <outline>
    <contour>
      <point x="567" y="-174" type="curve" smooth="yes"/>
      <point x="650" y="-174"/>
      <point x="713" y="-120"/>
      <point x="713" y="-40" type="curve" smooth="yes"/>
      <point x="713" y="24"/>
      <point x="675" y="75"/>
      <point x="605" y="92" type="curve"/>
      <point x="658" y="158"/>
      <point x="685" y="247"/>
      <point x="685" y="358" type="curve" smooth="yes"/>
      <point x="685" y="589"/>
      <point x="567" y="726"/>
      <point x="372" y="726" type="curve" smooth="yes"/>
      <point x="168" y="726"/>
      <point x="56" y="592"/>
      <point x="56" y="359" type="curve" smooth="yes"/>
      <point x="56" y="123"/>
      <point x="170" y="-13"/>
      <point x="371" y="-13" type="curve" smooth="yes"/>
      <point x="447" y="-13"/>
      <point x="509" y="9"/>
      <point x="559" y="48" type="curve"/>
      <point x="598" y="38"/>
      <point x="622" y="4"/>
      <point x="622" y="-46" type="curve" smooth="yes"/>
      <point x="622" y="-88"/>
      <point x="599" y="-114"/>
      <point x="558" y="-114" type="curve" smooth="yes"/>
      <point x="528" y="-114"/>
      <point x="505" y="-101"/>
      <point x="487" y="-74" type="curve"/>
      <point x="475" y="-80"/>
      <point x="467" y="-97"/>
      <point x="467" y="-114" type="curve" smooth="yes"/>
      <point x="467" y="-148"/>
      <point x="508" y="-174"/>
    </contour>
    <contour>
      <point x="371" y="41" type="curve" smooth="yes"/>
      <point x="234" y="41"/>
      <point x="167" y="143"/>
      <point x="167" y="358" type="curve" smooth="yes"/>
      <point x="167" y="576"/>
      <point x="234" y="672"/>
      <point x="372" y="672" type="curve" smooth="yes"/>
      <point x="509" y="672"/>
      <point x="574" y="575"/>
      <point x="574" y="358" type="curve" smooth="yes"/>
      <point x="574" y="142"/>
      <point x="508" y="41"/>
    </contour>
  </outline>
</glyph>
<glyph name="Phar-oldgeorgian" format="2">
  <advance width="793"/>
  <unicode hex="10B4"/>
  <note>
uni10B4
</note>
  <outline>
    <contour>
      <point x="343" y="0" type="line"/>
      <point x="439" y="0" type="line"/>
      <point x="439" y="194" type="line"/>
      <point x="626" y="208"/>
      <point x="735" y="308"/>
      <point x="735" y="462" type="curve" smooth="yes"/>
      <point x="735" y="628"/>
      <point x="609" y="726"/>
      <point x="397" y="726" type="curve" smooth="yes"/>
      <point x="177" y="726"/>
      <point x="56" y="633"/>
      <point x="56" y="463" type="curve" smooth="yes"/>
      <point x="56" y="307"/>
      <point x="158" y="209"/>
      <point x="343" y="194" type="curve"/>
    </contour>
    <contour>
      <point x="343" y="249" type="line"/>
      <point x="226" y="261"/>
      <point x="167" y="332"/>
      <point x="167" y="462" type="curve" smooth="yes"/>
      <point x="167" y="594"/>
      <point x="226" y="664"/>
      <point x="343" y="672" type="curve"/>
    </contour>
    <contour>
      <point x="439" y="249" type="curve"/>
      <point x="439" y="672" type="line"/>
      <point x="562" y="662"/>
      <point x="624" y="596"/>
      <point x="624" y="462" type="curve" smooth="yes"/>
      <point x="624" y="329"/>
      <point x="563" y="261"/>
    </contour>
  </outline>
</glyph>
<glyph name="Khar-oldgeorgian" format="2">
  <advance width="628"/>
  <unicode hex="10B5"/>
  <note>
uni10B5
</note>
  <outline>
    <contour>
      <point x="510" y="473" type="curve" smooth="yes"/>
      <point x="482" y="473"/>
      <point x="440" y="466"/>
      <point x="365" y="451" type="curve"/>
      <point x="365" y="610" type="line" smooth="yes"/>
      <point x="365" y="663"/>
      <point x="398" y="672"/>
      <point x="423" y="672" type="curve" smooth="yes"/>
      <point x="436" y="672" type="line"/>
      <point x="436" y="714" type="line"/>
      <point x="189" y="714" type="line"/>
      <point x="189" y="672" type="line"/>
      <point x="202" y="672" type="line" smooth="yes"/>
      <point x="227" y="672"/>
      <point x="264" y="663"/>
      <point x="264" y="610" type="curve" smooth="yes"/>
      <point x="264" y="430" type="line"/>
      <point x="231" y="424"/>
      <point x="193" y="421"/>
      <point x="167" y="421" type="curve" smooth="yes"/>
      <point x="120" y="421"/>
      <point x="97" y="441"/>
      <point x="89" y="494" type="curve"/>
      <point x="46" y="484"/>
      <point x="20" y="459"/>
      <point x="20" y="430" type="curve" smooth="yes"/>
      <point x="20" y="383"/>
      <point x="53" y="360"/>
      <point x="119" y="360" type="curve" smooth="yes"/>
      <point x="147" y="360"/>
      <point x="201" y="367"/>
      <point x="264" y="381" type="curve"/>
      <point x="264" y="0" type="line"/>
      <point x="365" y="0" type="line"/>
      <point x="365" y="401" type="line"/>
      <point x="407" y="409"/>
      <point x="433" y="413"/>
      <point x="462" y="413" type="curve" smooth="yes"/>
      <point x="511" y="413"/>
      <point x="533" y="385"/>
      <point x="540" y="313" type="curve"/>
      <point x="583" y="326"/>
      <point x="608" y="354"/>
      <point x="608" y="391" type="curve" smooth="yes"/>
      <point x="608" y="446"/>
      <point x="575" y="473"/>
    </contour>
  </outline>
</glyph>
<glyph name="Ghan-oldgeorgian" format="2">
  <advance width="751"/>
  <unicode hex="10B6"/>
  <note>
uni10B6
</note>
  <outline>
    <contour>
      <point x="696" y="42" type="line" smooth="yes"/>
      <point x="671" y="42"/>
      <point x="638" y="51"/>
      <point x="638" y="104" type="curve" smooth="yes"/>
      <point x="638" y="510" type="line" smooth="yes"/>
      <point x="638" y="646"/>
      <point x="546" y="724"/>
      <point x="384" y="724" type="curve" smooth="yes"/>
      <point x="207" y="724"/>
      <point x="122" y="650"/>
      <point x="122" y="498" type="curve" smooth="yes"/>
      <point x="122" y="104" type="line" smooth="yes"/>
      <point x="122" y="51"/>
      <point x="85" y="42"/>
      <point x="60" y="42" type="curve" smooth="yes"/>
      <point x="47" y="42" type="line"/>
      <point x="47" y="0" type="line"/>
      <point x="294" y="0" type="line"/>
      <point x="294" y="42" type="line"/>
      <point x="281" y="42" type="line" smooth="yes"/>
      <point x="256" y="42"/>
      <point x="223" y="51"/>
      <point x="223" y="104" type="curve" smooth="yes"/>
      <point x="223" y="504" type="line" smooth="yes"/>
      <point x="223" y="610"/>
      <point x="279" y="670"/>
      <point x="380" y="670" type="curve" smooth="yes"/>
      <point x="478" y="670"/>
      <point x="537" y="608"/>
      <point x="537" y="508" type="curve" smooth="yes"/>
      <point x="537" y="104" type="line" smooth="yes"/>
      <point x="537" y="51"/>
      <point x="500" y="42"/>
      <point x="475" y="42" type="curve" smooth="yes"/>
      <point x="462" y="42" type="line"/>
      <point x="462" y="0" type="line"/>
      <point x="709" y="0" type="line"/>
      <point x="709" y="42" type="line"/>
    </contour>
  </outline>
</glyph>
<glyph name="Qar-oldgeorgian" format="2">
  <advance width="696"/>
  <unicode hex="10B7"/>
  <note>
uni10B7
</note>
  <outline>
    <contour>
      <point x="403" y="0" type="line"/>
      <point x="650" y="0" type="line"/>
      <point x="650" y="42" type="line"/>
      <point x="637" y="42" type="line" smooth="yes"/>
      <point x="612" y="42"/>
      <point x="575" y="51"/>
      <point x="575" y="104" type="curve" smooth="yes"/>
      <point x="575" y="610" type="line" smooth="yes"/>
      <point x="575" y="663"/>
      <point x="608" y="672"/>
      <point x="633" y="672" type="curve" smooth="yes"/>
      <point x="646" y="672" type="line"/>
      <point x="646" y="714" type="line"/>
      <point x="399" y="714" type="line"/>
      <point x="399" y="672" type="line"/>
      <point x="412" y="672" type="line" smooth="yes"/>
      <point x="437" y="672"/>
      <point x="474" y="663"/>
      <point x="474" y="610" type="curve" smooth="yes"/>
      <point x="474" y="476" type="line" smooth="yes"/>
      <point x="474" y="365"/>
      <point x="419" y="312"/>
      <point x="310" y="312" type="curve" smooth="yes"/>
      <point x="214" y="312"/>
      <point x="166" y="372"/>
      <point x="166" y="497" type="curve" smooth="yes"/>
      <point x="166" y="584"/>
      <point x="185" y="661"/>
      <point x="269" y="679" type="curve"/>
      <point x="269" y="695"/>
      <point x="261" y="726"/>
      <point x="207" y="726" type="curve" smooth="yes"/>
      <point x="127" y="726"/>
      <point x="55" y="645"/>
      <point x="55" y="496" type="curve" smooth="yes"/>
      <point x="55" y="338"/>
      <point x="147" y="258"/>
      <point x="298" y="258" type="curve" smooth="yes"/>
      <point x="384" y="258"/>
      <point x="449" y="286"/>
      <point x="473" y="329" type="curve"/>
      <point x="478" y="329" type="line"/>
      <point x="475" y="290"/>
      <point x="474" y="262"/>
      <point x="474" y="244" type="curve" smooth="yes"/>
      <point x="474" y="104" type="line" smooth="yes"/>
      <point x="474" y="51"/>
      <point x="441" y="42"/>
      <point x="416" y="42" type="curve" smooth="yes"/>
      <point x="403" y="42" type="line"/>
    </contour>
  </outline>
</glyph>
<glyph name="Shin-oldgeorgian" format="2">
  <advance width="667"/>
  <unicode hex="10B8"/>
  <note>
uni10B8
</note>
  <outline>
    <contour>
      <point x="390" y="714" type="line"/>
      <point x="390" y="672" type="line"/>
      <point x="403" y="672" type="line" smooth="yes"/>
      <point x="428" y="672"/>
      <point x="465" y="663"/>
      <point x="465" y="610" type="curve" smooth="yes"/>
      <point x="465" y="533" type="line" smooth="yes"/>
      <point x="465" y="424"/>
      <point x="417" y="372"/>
      <point x="319" y="372" type="curve" smooth="yes"/>
      <point x="237" y="372"/>
      <point x="191" y="424"/>
      <point x="191" y="533" type="curve" smooth="yes"/>
      <point x="191" y="714" type="line"/>
      <point x="20" y="714" type="line"/>
      <point x="20" y="672" type="line"/>
      <point x="28" y="672" type="line" smooth="yes"/>
      <point x="71" y="672"/>
      <point x="90" y="643"/>
      <point x="90" y="604" type="curve" smooth="yes"/>
      <point x="90" y="533" type="line" smooth="yes"/>
      <point x="90" y="397"/>
      <point x="168" y="318"/>
      <point x="303" y="318" type="curve" smooth="yes"/>
      <point x="379" y="318"/>
      <point x="433" y="342"/>
      <point x="464" y="389" type="curve"/>
      <point x="469" y="389" type="line"/>
      <point x="466" y="360"/>
      <point x="465" y="332"/>
      <point x="465" y="304" type="curve" smooth="yes"/>
      <point x="465" y="216" type="line" smooth="yes"/>
      <point x="465" y="107"/>
      <point x="417" y="42"/>
      <point x="328" y="42" type="curve" smooth="yes"/>
      <point x="246" y="42"/>
      <point x="201" y="89"/>
      <point x="201" y="180" type="curve" smooth="yes"/>
      <point x="201" y="213"/>
      <point x="205" y="226"/>
      <point x="210" y="234" type="curve"/>
      <point x="196" y="239"/>
      <point x="183" y="241"/>
      <point x="170" y="241" type="curve" smooth="yes"/>
      <point x="128" y="241"/>
      <point x="94" y="215"/>
      <point x="94" y="157" type="curve" smooth="yes"/>
      <point x="94" y="61"/>
      <point x="172" y="-12"/>
      <point x="332" y="-12" type="curve" smooth="yes"/>
      <point x="486" y="-12"/>
      <point x="566" y="68"/>
      <point x="566" y="213" type="curve" smooth="yes"/>
      <point x="566" y="610" type="line" smooth="yes"/>
      <point x="566" y="663"/>
      <point x="599" y="672"/>
      <point x="624" y="672" type="curve" smooth="yes"/>
      <point x="637" y="672" type="line"/>
      <point x="637" y="714" type="line"/>
    </contour>
  </outline>
</glyph>
<glyph name="Chin-oldgeorgian" format="2">
  <advance width="716"/>
  <unicode hex="10B9"/>
  <note>
uni10B9
</note>
  <outline>
    <contour>
      <point x="682" y="42" type="line" smooth="yes"/>
      <point x="638" y="42"/>
      <point x="600" y="50"/>
      <point x="600" y="109" type="curve" smooth="yes"/>
      <point x="600" y="448" type="line"/>
      <point x="224" y="448" type="line"/>
      <point x="224" y="610" type="line" smooth="yes"/>
      <point x="224" y="663"/>
      <point x="257" y="672"/>
      <point x="282" y="672" type="curve" smooth="yes"/>
      <point x="295" y="672" type="line"/>
      <point x="295" y="714" type="line"/>
      <point x="48" y="714" type="line"/>
      <point x="48" y="672" type="line"/>
      <point x="61" y="672" type="line" smooth="yes"/>
      <point x="86" y="672"/>
      <point x="123" y="663"/>
      <point x="123" y="610" type="curve" smooth="yes"/>
      <point x="123" y="114" type="line" smooth="yes"/>
      <point x="123" y="51"/>
      <point x="86" y="42"/>
      <point x="51" y="42" type="curve" smooth="yes"/>
      <point x="38" y="42" type="line"/>
      <point x="38" y="0" type="line"/>
      <point x="319" y="0" type="line"/>
      <point x="319" y="42" type="line"/>
      <point x="306" y="42" type="line" smooth="yes"/>
      <point x="261" y="42"/>
      <point x="224" y="51"/>
      <point x="224" y="114" type="curve" smooth="yes"/>
      <point x="224" y="398" type="line"/>
      <point x="499" y="398" type="line"/>
      <point x="499" y="0" type="line"/>
      <point x="695" y="0" type="line"/>
      <point x="695" y="42" type="line"/>
    </contour>
  </outline>
</glyph>
<glyph name="Can-oldgeorgian" format="2">
  <advance width="614"/>
  <unicode hex="10BA"/>
  <note>
uni10BA
</note>
  <outline>
    <contour>
      <point x="363" y="-177" type="curve" smooth="yes"/>
      <point x="419" y="-177"/>
      <point x="468" y="-130"/>
      <point x="517" y="-54" type="curve" smooth="yes"/>
      <point x="560" y="12"/>
      <point x="576" y="68"/>
      <point x="576" y="102" type="curve" smooth="yes"/>
      <point x="576" y="120"/>
      <point x="570" y="133"/>
      <point x="557" y="141" type="curve"/>
      <point x="510" y="77"/>
      <point x="450" y="50"/>
      <point x="376" y="50" type="curve" smooth="yes"/>
      <point x="243" y="50"/>
      <point x="168" y="158"/>
      <point x="168" y="358" type="curve" smooth="yes"/>
      <point x="168" y="573"/>
      <point x="235" y="673"/>
      <point x="376" y="673" type="curve" smooth="yes"/>
      <point x="448" y="673"/>
      <point x="493" y="622"/>
      <point x="493" y="542" type="curve"/>
      <point x="544" y="542"/>
      <point x="580" y="571"/>
      <point x="580" y="612" type="curve" smooth="yes"/>
      <point x="580" y="681"/>
      <point x="505" y="726"/>
      <point x="378" y="726" type="curve" smooth="yes"/>
      <point x="172" y="726"/>
      <point x="57" y="579"/>
      <point x="57" y="358" type="curve" smooth="yes"/>
      <point x="57" y="128"/>
      <point x="169" y="-10"/>
      <point x="361" y="-10" type="curve" smooth="yes"/>
      <point x="409" y="-10"/>
      <point x="454" y="-1"/>
      <point x="491" y="17" type="curve"/>
      <point x="452" y="-47"/>
      <point x="408" y="-78"/>
      <point x="370" y="-78" type="curve" smooth="yes"/>
      <point x="355" y="-78"/>
      <point x="339" y="-72"/>
      <point x="322" y="-61" type="curve"/>
      <point x="313" y="-79"/>
      <point x="308" y="-98"/>
      <point x="308" y="-116" type="curve" smooth="yes"/>
      <point x="308" y="-151"/>
      <point x="334" y="-177"/>
    </contour>
  </outline>
</glyph>
<glyph name="Jil-oldgeorgian" format="2">
  <advance width="936"/>
  <unicode hex="10BB"/>
  <note>
uni10BB
</note>
  <outline>
    <contour>
      <point x="287" y="-12" type="curve" smooth="yes"/>
      <point x="443" y="-12"/>
      <point x="521" y="66"/>
      <point x="521" y="225" type="curve" smooth="yes"/>
      <point x="521" y="390" type="line"/>
      <point x="719" y="390" type="line"/>
      <point x="719" y="0" type="line"/>
      <point x="915" y="0" type="line"/>
      <point x="915" y="42" type="line"/>
      <point x="902" y="42" type="line" smooth="yes"/>
      <point x="858" y="42"/>
      <point x="820" y="50"/>
      <point x="820" y="109" type="curve" smooth="yes"/>
      <point x="820" y="444" type="line"/>
      <point x="521" y="444" type="line"/>
      <point x="521" y="610" type="line" smooth="yes"/>
      <point x="521" y="663"/>
      <point x="554" y="672"/>
      <point x="579" y="672" type="curve" smooth="yes"/>
      <point x="592" y="672" type="line"/>
      <point x="592" y="714" type="line"/>
      <point x="345" y="714" type="line"/>
      <point x="345" y="672" type="line"/>
      <point x="358" y="672" type="line" smooth="yes"/>
      <point x="383" y="672"/>
      <point x="420" y="663"/>
      <point x="420" y="610" type="curve" smooth="yes"/>
      <point x="420" y="444" type="line"/>
      <point x="297" y="444" type="line" smooth="yes"/>
      <point x="121" y="444"/>
      <point x="38" y="373"/>
      <point x="38" y="220" type="curve" smooth="yes"/>
      <point x="38" y="70"/>
      <point x="127" y="-12"/>
    </contour>
    <contour>
      <point x="283" y="42" type="curve" smooth="yes"/>
      <point x="190" y="42"/>
      <point x="146" y="99"/>
      <point x="146" y="214" type="curve" smooth="yes"/>
      <point x="146" y="332"/>
      <point x="202" y="390"/>
      <point x="293" y="390" type="curve" smooth="yes"/>
      <point x="420" y="390" type="line"/>
      <point x="420" y="225" type="line" smooth="yes"/>
      <point x="420" y="102"/>
      <point x="375" y="42"/>
    </contour>
  </outline>
</glyph>
<glyph name="Cil-oldgeorgian" format="2">
  <advance width="604"/>
  <unicode hex="10BC"/>
  <note>
uni10BC
</note>
  <outline>
    <contour>
      <point x="133" y="0" type="line"/>
      <point x="234" y="0" type="line"/>
      <point x="234" y="182" type="line"/>
      <point x="260" y="182" type="line" smooth="yes"/>
      <point x="324" y="182"/>
      <point x="357" y="140"/>
      <point x="357" y="44" type="curve"/>
      <point x="404" y="44"/>
      <point x="435" y="68"/>
      <point x="435" y="113" type="curve" smooth="yes"/>
      <point x="435" y="198"/>
      <point x="372" y="236"/>
      <point x="268" y="236" type="curve" smooth="yes"/>
      <point x="234" y="236" type="line"/>
      <point x="234" y="320" type="line"/>
      <point x="297" y="320" type="line" smooth="yes"/>
      <point x="466" y="320"/>
      <point x="565" y="394"/>
      <point x="565" y="525" type="curve" smooth="yes"/>
      <point x="565" y="648"/>
      <point x="480" y="714"/>
      <point x="319" y="714" type="curve" smooth="yes"/>
      <point x="38" y="714" type="line"/>
      <point x="38" y="672" type="line"/>
      <point x="51" y="672" type="line" smooth="yes"/>
      <point x="102" y="672"/>
      <point x="133" y="659"/>
      <point x="133" y="604" type="curve" smooth="yes"/>
    </contour>
    <contour>
      <point x="234" y="367" type="line"/>
      <point x="234" y="666" type="line"/>
      <point x="302" y="666" type="line" smooth="yes"/>
      <point x="411" y="666"/>
      <point x="457" y="625"/>
      <point x="457" y="521" type="curve" smooth="yes"/>
      <point x="457" y="410"/>
      <point x="408" y="367"/>
      <point x="287" y="367" type="curve" smooth="yes"/>
    </contour>
  </outline>
</glyph>
<glyph name="Char-oldgeorgian" format="2">
  <advance width="547"/>
  <unicode hex="10BD"/>
  <note>
uni10BD
</note>
  <outline>
    <contour>
      <point x="247" y="-12" type="curve" smooth="yes"/>
      <point x="400" y="-12"/>
      <point x="493" y="64"/>
      <point x="493" y="191" type="curve" smooth="yes"/>
      <point x="493" y="282"/>
      <point x="442" y="343"/>
      <point x="307" y="398" type="curve" smooth="yes"/>
      <point x="186" y="447"/>
      <point x="152" y="482"/>
      <point x="152" y="560" type="curve" smooth="yes"/>
      <point x="152" y="631"/>
      <point x="198" y="676"/>
      <point x="274" y="676" type="curve" smooth="yes"/>
      <point x="344" y="676"/>
      <point x="386" y="627"/>
      <point x="386" y="547" type="curve"/>
      <point x="435" y="547"/>
      <point x="465" y="569"/>
      <point x="465" y="612" type="curve" smooth="yes"/>
      <point x="465" y="685"/>
      <point x="372" y="726"/>
      <point x="278" y="726" type="curve" smooth="yes"/>
      <point x="147" y="726"/>
      <point x="59" y="656"/>
      <point x="59" y="543" type="curve" smooth="yes"/>
      <point x="59" y="439"/>
      <point x="112" y="375"/>
      <point x="243" y="321" type="curve" smooth="yes"/>
      <point x="362" y="272"/>
      <point x="398" y="236"/>
      <point x="398" y="165" type="curve" smooth="yes"/>
      <point x="398" y="81"/>
      <point x="345" y="37"/>
      <point x="255" y="37" type="curve" smooth="yes"/>
      <point x="174" y="37"/>
      <point x="125" y="95"/>
      <point x="120" y="198" type="curve"/>
      <point x="74" y="198"/>
      <point x="48" y="171"/>
      <point x="48" y="131" type="curve" smooth="yes"/>
      <point x="48" y="40"/>
      <point x="124" y="-12"/>
    </contour>
  </outline>
</glyph>
<glyph name="Xan-oldgeorgian" format="2">
  <advance width="728"/>
  <unicode hex="10BE"/>
  <note>
uni10BE
</note>
  <outline>
    <contour>
      <point x="38" y="0" type="line"/>
      <point x="610" y="0" type="line"/>
      <point x="610" y="42" type="line"/>
      <point x="234" y="42" type="line"/>
      <point x="234" y="296" type="line"/>
      <point x="600" y="296" type="line"/>
      <point x="600" y="605" type="line"/>
      <point x="600" y="664"/>
      <point x="638" y="672"/>
      <point x="682" y="672" type="curve" smooth="yes"/>
      <point x="695" y="672" type="line"/>
      <point x="695" y="714" type="line"/>
      <point x="499" y="714" type="line"/>
      <point x="499" y="346" type="line"/>
      <point x="234" y="346" type="line"/>
      <point x="234" y="600" type="line" smooth="yes"/>
      <point x="234" y="663"/>
      <point x="271" y="672"/>
      <point x="316" y="672" type="curve" smooth="yes"/>
      <point x="329" y="672" type="line"/>
      <point x="329" y="714" type="line"/>
      <point x="38" y="714" type="line"/>
      <point x="38" y="672" type="line"/>
      <point x="51" y="672" type="line" smooth="yes"/>
      <point x="96" y="672"/>
      <point x="133" y="663"/>
      <point x="133" y="600" type="curve" smooth="yes"/>
      <point x="133" y="110" type="line" smooth="yes"/>
      <point x="133" y="51"/>
      <point x="95" y="42"/>
      <point x="51" y="42" type="curve" smooth="yes"/>
      <point x="38" y="42" type="line"/>
    </contour>
  </outline>
</glyph>
<glyph name="Jhan-oldgeorgian" format="2">
  <advance width="703"/>
  <unicode hex="10BF"/>
  <note>
uni10BF
</note>
  <outline>
    <contour>
      <point x="35" y="0" type="line"/>
      <point x="56" y="0" type="line" smooth="yes"/>
      <point x="148" y="0"/>
      <point x="178" y="42"/>
      <point x="244" y="139" type="curve" smooth="yes"/>
      <point x="354" y="301" type="line"/>
      <point x="452" y="144" type="line" smooth="yes"/>
      <point x="480" y="100"/>
      <point x="485" y="90"/>
      <point x="485" y="75" type="curve" smooth="yes"/>
      <point x="485" y="53"/>
      <point x="465" y="42"/>
      <point x="425" y="42" type="curve" smooth="yes"/>
      <point x="420" y="42" type="line"/>
      <point x="420" y="0" type="line"/>
      <point x="690" y="0" type="line"/>
      <point x="690" y="42" type="line"/>
      <point x="677" y="42" type="line" smooth="yes"/>
      <point x="652" y="42"/>
      <point x="626" y="56"/>
      <point x="597" y="95" type="curve"/>
      <point x="415" y="391" type="line"/>
      <point x="609" y="673" type="line"/>
      <point x="609" y="714" type="line"/>
      <point x="44" y="714" type="line"/>
      <point x="44" y="667" type="line"/>
      <point x="131" y="667" type="line"/>
      <point x="325" y="351" type="line"/>
      <point x="158" y="119" type="line" smooth="yes"/>
      <point x="124" y="72"/>
      <point x="88" y="48"/>
      <point x="47" y="48" type="curve" smooth="yes"/>
      <point x="35" y="48" type="line"/>
    </contour>
    <contour>
      <point x="386" y="438" type="line"/>
      <point x="245" y="667" type="line"/>
      <point x="447" y="667" type="line" smooth="yes"/>
      <point x="486" y="667"/>
      <point x="501" y="658"/>
      <point x="501" y="638" type="curve" smooth="yes"/>
      <point x="501" y="623"/>
      <point x="493" y="603"/>
      <point x="476" y="577" type="curve" smooth="yes"/>
    </contour>
  </outline>
</glyph>
<glyph name="Hae-oldgeorgian" format="2">
  <advance width="930"/>
  <unicode hex="10C0"/>
  <note>
uni10C0
</note>
  <outline>
    <contour>
      <point x="663" y="-12" type="curve" smooth="yes"/>
      <point x="817" y="-12"/>
      <point x="905" y="74"/>
      <point x="905" y="226" type="curve" smooth="yes"/>
      <point x="905" y="284"/>
      <point x="868" y="359"/>
      <point x="806" y="359" type="curve" smooth="yes"/>
      <point x="793" y="359"/>
      <point x="779" y="357"/>
      <point x="763" y="352" type="curve"/>
      <point x="790" y="320"/>
      <point x="804" y="284"/>
      <point x="804" y="222" type="curve" smooth="yes"/>
      <point x="804" y="99"/>
      <point x="763" y="42"/>
      <point x="667" y="42" type="curve" smooth="yes"/>
      <point x="573" y="42"/>
      <point x="530" y="104"/>
      <point x="530" y="232" type="curve" smooth="yes"/>
      <point x="530" y="610" type="line" smooth="yes"/>
      <point x="530" y="663"/>
      <point x="567" y="672"/>
      <point x="592" y="672" type="curve" smooth="yes"/>
      <point x="606" y="672" type="line"/>
      <point x="606" y="714" type="line"/>
      <point x="38" y="714" type="line"/>
      <point x="38" y="672" type="line"/>
      <point x="52" y="672" type="line" smooth="yes"/>
      <point x="77" y="672"/>
      <point x="114" y="663"/>
      <point x="114" y="610" type="curve" smooth="yes"/>
      <point x="114" y="428" type="line" smooth="yes"/>
      <point x="114" y="375"/>
      <point x="77" y="366"/>
      <point x="52" y="366" type="curve" smooth="yes"/>
      <point x="38" y="366" type="line"/>
      <point x="38" y="324" type="line"/>
      <point x="214" y="324" type="line"/>
      <point x="214" y="660" type="line"/>
      <point x="429" y="660" type="line"/>
      <point x="429" y="239" type="line" smooth="yes"/>
      <point x="429" y="69"/>
      <point x="505" y="-12"/>
    </contour>
  </outline>
</glyph>
<glyph name="He-oldgeorgian" format="2">
  <advance width="711"/>
  <unicode hex="10C1"/>
  <note>
uni10C1
</note>
  <outline>
    <contour>
      <point x="110" y="0" type="line"/>
      <point x="211" y="0" type="line"/>
      <point x="211" y="331" type="line" smooth="yes"/>
      <point x="211" y="438"/>
      <point x="253" y="492"/>
      <point x="338" y="492" type="curve" smooth="yes"/>
      <point x="408" y="492"/>
      <point x="449" y="439"/>
      <point x="449" y="331" type="curve" smooth="yes"/>
      <point x="449" y="260" type="line"/>
      <point x="688" y="260" type="line"/>
      <point x="688" y="314" type="line"/>
      <point x="550" y="314" type="line"/>
      <point x="550" y="331" type="line" smooth="yes"/>
      <point x="550" y="468"/>
      <point x="478" y="546"/>
      <point x="358" y="546" type="curve" smooth="yes"/>
      <point x="286" y="546"/>
      <point x="231" y="519"/>
      <point x="212" y="475" type="curve"/>
      <point x="207" y="475" type="line"/>
      <point x="209" y="513"/>
      <point x="211" y="541"/>
      <point x="211" y="560" type="curve" smooth="yes"/>
      <point x="211" y="714" type="line"/>
      <point x="15" y="714" type="line"/>
      <point x="15" y="672" type="line"/>
      <point x="28" y="672" type="line" smooth="yes"/>
      <point x="79" y="672"/>
      <point x="110" y="659"/>
      <point x="110" y="604" type="curve" smooth="yes"/>
    </contour>
  </outline>
</glyph>
<glyph name="Hie-oldgeorgian" format="2">
  <advance width="636"/>
  <unicode hex="10C2"/>
  <note>
uni10C2
</note>
  <outline>
    <contour>
      <point x="261" y="-12" type="curve" smooth="yes"/>
      <point x="457" y="-12"/>
      <point x="575" y="113"/>
      <point x="575" y="312" type="curve" smooth="yes"/>
      <point x="575" y="512"/>
      <point x="460" y="635"/>
      <point x="262" y="635" type="curve" smooth="yes"/>
      <point x="211" y="635" type="line"/>
      <point x="211" y="714" type="line"/>
      <point x="15" y="714" type="line"/>
      <point x="15" y="672" type="line"/>
      <point x="28" y="672" type="line" smooth="yes"/>
      <point x="79" y="672"/>
      <point x="110" y="659"/>
      <point x="110" y="604" type="curve" smooth="yes"/>
      <point x="110" y="581" type="line"/>
      <point x="262" y="581" type="line" smooth="yes"/>
      <point x="399" y="581"/>
      <point x="464" y="497"/>
      <point x="464" y="312" type="curve" smooth="yes"/>
      <point x="464" y="128"/>
      <point x="399" y="42"/>
      <point x="261" y="42" type="curve" smooth="yes"/>
      <point x="179" y="42"/>
      <point x="129" y="101"/>
      <point x="129" y="187" type="curve"/>
      <point x="77" y="187"/>
      <point x="45" y="162"/>
      <point x="45" y="113" type="curve" smooth="yes"/>
      <point x="45" y="23"/>
      <point x="152" y="-12"/>
    </contour>
  </outline>
</glyph>
<glyph name="We-oldgeorgian" format="2">
  <advance width="630"/>
  <unicode hex="10C3"/>
  <note>
uni10C3
</note>
  <outline>
    <contour>
      <point x="355" y="714" type="line"/>
      <point x="355" y="672" type="line"/>
      <point x="368" y="672" type="line" smooth="yes"/>
      <point x="393" y="672"/>
      <point x="430" y="663"/>
      <point x="430" y="610" type="curve" smooth="yes"/>
      <point x="430" y="436" type="line" smooth="yes"/>
      <point x="430" y="325"/>
      <point x="375" y="272"/>
      <point x="276" y="272" type="curve" smooth="yes"/>
      <point x="189" y="272"/>
      <point x="148" y="321"/>
      <point x="148" y="421" type="curve" smooth="yes"/>
      <point x="148" y="499"/>
      <point x="173" y="548"/>
      <point x="198" y="568" type="curve"/>
      <point x="187" y="578"/>
      <point x="173" y="583"/>
      <point x="156" y="583" type="curve" smooth="yes"/>
      <point x="105" y="583"/>
      <point x="37" y="532"/>
      <point x="37" y="423" type="curve" smooth="yes"/>
      <point x="37" y="292"/>
      <point x="123" y="218"/>
      <point x="248" y="218" type="curve" smooth="yes"/>
      <point x="333" y="218"/>
      <point x="397" y="249"/>
      <point x="429" y="289" type="curve"/>
      <point x="434" y="289" type="line"/>
      <point x="431" y="251"/>
      <point x="430" y="223"/>
      <point x="430" y="204" type="curve" smooth="yes"/>
      <point x="430" y="0" type="line"/>
      <point x="531" y="0" type="line"/>
      <point x="531" y="610" type="line" smooth="yes"/>
      <point x="531" y="663"/>
      <point x="564" y="672"/>
      <point x="589" y="672" type="curve" smooth="yes"/>
      <point x="602" y="672" type="line"/>
      <point x="602" y="714" type="line"/>
    </contour>
  </outline>
</glyph>
<glyph name="Har-oldgeorgian" format="2">
  <advance width="717"/>
  <unicode hex="10C4"/>
  <note>
uni10C4
</note>
  <outline>
    <contour>
      <point x="450" y="714" type="line"/>
      <point x="450" y="672" type="line"/>
      <point x="463" y="672" type="line" smooth="yes"/>
      <point x="488" y="672"/>
      <point x="525" y="663"/>
      <point x="525" y="610" type="curve" smooth="yes"/>
      <point x="525" y="456" type="line" smooth="yes"/>
      <point x="525" y="358"/>
      <point x="468" y="300"/>
      <point x="368" y="300" type="curve" smooth="yes"/>
      <point x="265" y="300"/>
      <point x="211" y="355"/>
      <point x="211" y="460" type="curve" smooth="yes"/>
      <point x="211" y="610" type="line" smooth="yes"/>
      <point x="211" y="663"/>
      <point x="244" y="672"/>
      <point x="269" y="672" type="curve" smooth="yes"/>
      <point x="282" y="672" type="line"/>
      <point x="282" y="714" type="line"/>
      <point x="35" y="714" type="line"/>
      <point x="35" y="672" type="line"/>
      <point x="48" y="672" type="line" smooth="yes"/>
      <point x="73" y="672"/>
      <point x="110" y="663"/>
      <point x="110" y="610" type="curve" smooth="yes"/>
      <point x="110" y="466" type="line" smooth="yes"/>
      <point x="110" y="333"/>
      <point x="173" y="263"/>
      <point x="316" y="249" type="curve"/>
      <point x="316" y="0" type="line"/>
      <point x="417" y="0" type="line"/>
      <point x="417" y="248" type="line"/>
      <point x="555" y="262"/>
      <point x="626" y="333"/>
      <point x="626" y="454" type="curve" smooth="yes"/>
      <point x="626" y="610" type="line" smooth="yes"/>
      <point x="626" y="663"/>
      <point x="659" y="672"/>
      <point x="684" y="672" type="curve" smooth="yes"/>
      <point x="697" y="672" type="line"/>
      <point x="697" y="714" type="line"/>
    </contour>
  </outline>
</glyph>
<glyph name="Hoe-oldgeorgian" format="2">
  <advance width="731"/>
  <unicode hex="10C5"/>
  <note>
uni10C5
</note>
  <outline>
    <contour>
      <point x="179" y="-10" type="curve" smooth="yes"/>
      <point x="302" y="-10"/>
      <point x="360" y="50"/>
      <point x="360" y="154" type="curve" smooth="yes"/>
      <point x="360" y="225" type="line"/>
      <point x="430" y="225" type="line" smooth="yes"/>
      <point x="504" y="225"/>
      <point x="537" y="177"/>
      <point x="537" y="81" type="curve"/>
      <point x="584" y="81"/>
      <point x="615" y="105"/>
      <point x="615" y="150" type="curve" smooth="yes"/>
      <point x="615" y="235"/>
      <point x="552" y="273"/>
      <point x="438" y="273" type="curve" smooth="yes"/>
      <point x="360" y="273" type="line"/>
      <point x="360" y="338" type="line"/>
      <point x="423" y="338" type="line" smooth="yes"/>
      <point x="593" y="338"/>
      <point x="691" y="409"/>
      <point x="691" y="534" type="curve" smooth="yes"/>
      <point x="691" y="651"/>
      <point x="605" y="714"/>
      <point x="445" y="714" type="curve" smooth="yes"/>
      <point x="164" y="714" type="line"/>
      <point x="164" y="672" type="line"/>
      <point x="177" y="672" type="line" smooth="yes"/>
      <point x="228" y="672"/>
      <point x="259" y="659"/>
      <point x="259" y="604" type="curve" smooth="yes"/>
      <point x="259" y="273" type="line"/>
      <point x="203" y="273" type="line" smooth="yes"/>
      <point x="90" y="273"/>
      <point x="18" y="219"/>
      <point x="18" y="132" type="curve" smooth="yes"/>
      <point x="18" y="46"/>
      <point x="74" y="-10"/>
    </contour>
    <contour>
      <point x="178" y="37" type="curve" smooth="yes"/>
      <point x="134" y="37"/>
      <point x="109" y="74"/>
      <point x="109" y="130" type="curve" smooth="yes"/>
      <point x="109" y="184"/>
      <point x="148" y="225"/>
      <point x="203" y="225" type="curve" smooth="yes"/>
      <point x="259" y="225" type="line"/>
      <point x="259" y="151" type="line" smooth="yes"/>
      <point x="259" y="81"/>
      <point x="235" y="37"/>
    </contour>
    <contour>
      <point x="360" y="385" type="line"/>
      <point x="360" y="666" type="line"/>
      <point x="428" y="666" type="line" smooth="yes"/>
      <point x="536" y="666"/>
      <point x="583" y="626"/>
      <point x="583" y="530" type="curve" smooth="yes"/>
      <point x="583" y="426"/>
      <point x="536" y="385"/>
      <point x="413" y="385" type="curve" smooth="yes"/>
    </contour>
  </outline>
</glyph>
<glyph name="Yn-oldgeorgian" format="2">
  <advance width="544"/>
  <unicode hex="10C7"/>
  <outline>
    <contour>
      <point x="297" y="-12" type="curve" smooth="yes"/>
      <point x="420" y="-12"/>
      <point x="496" y="40"/>
      <point x="496" y="131" type="curve" smooth="yes"/>
      <point x="496" y="171"/>
      <point x="470" y="198"/>
      <point x="424" y="198" type="curve"/>
      <point x="419" y="95"/>
      <point x="370" y="37"/>
      <point x="289" y="37" type="curve" smooth="yes"/>
      <point x="199" y="37"/>
      <point x="146" y="81"/>
      <point x="146" y="165" type="curve" smooth="yes"/>
      <point x="146" y="236"/>
      <point x="182" y="272"/>
      <point x="301" y="321" type="curve" smooth="yes"/>
      <point x="432" y="375"/>
      <point x="485" y="439"/>
      <point x="485" y="543" type="curve" smooth="yes"/>
      <point x="485" y="656"/>
      <point x="397" y="726"/>
      <point x="266" y="726" type="curve" smooth="yes"/>
      <point x="172" y="726"/>
      <point x="79" y="687"/>
      <point x="79" y="612" type="curve" smooth="yes"/>
      <point x="79" y="569"/>
      <point x="109" y="547"/>
      <point x="158" y="547" type="curve"/>
      <point x="158" y="627"/>
      <point x="200" y="676"/>
      <point x="270" y="676" type="curve" smooth="yes"/>
      <point x="346" y="676"/>
      <point x="392" y="631"/>
      <point x="392" y="560" type="curve" smooth="yes"/>
      <point x="392" y="482"/>
      <point x="358" y="447"/>
      <point x="237" y="398" type="curve" smooth="yes"/>
      <point x="102" y="343"/>
      <point x="51" y="282"/>
      <point x="51" y="191" type="curve" smooth="yes"/>
      <point x="51" y="64"/>
      <point x="144" y="-12"/>
    </contour>
  </outline>
</glyph>
<glyph name="Aen-oldgeorgian" format="2">
  <advance width="592"/>
  <unicode hex="10CD"/>
  <outline>
    <contour>
      <point x="36" y="0" type="line"/>
      <point x="545" y="0" type="line"/>
      <point x="550" y="175" type="line"/>
      <point x="498" y="175" type="line"/>
      <point x="493" y="132" type="line" smooth="yes"/>
      <point x="488" y="88"/>
      <point x="470" y="50"/>
      <point x="410" y="50" type="curve" smooth="yes"/>
      <point x="158" y="50" type="line"/>
      <point x="534" y="673" type="line"/>
      <point x="534" y="714" type="line"/>
      <point x="60" y="714" type="line"/>
      <point x="55" y="539" type="line"/>
      <point x="107" y="539" type="line"/>
      <point x="112" y="582" type="line" smooth="yes"/>
      <point x="117" y="626"/>
      <point x="135" y="664"/>
      <point x="194" y="664" type="curve" smooth="yes"/>
      <point x="411" y="664" type="line"/>
      <point x="36" y="40" type="line"/>
    </contour>
  </outline>
</glyph>
<glyph name="an-georgian" format="2">
  <advance width="537"/>
  <unicode hex="10D0"/>
  <note>
uni10D0
</note>
  <anchor x="269" y="536" name="top"/>
  <outline>
    <contour>
      <point x="266" y="-12" type="curve" smooth="yes"/>
      <point x="392" y="-12"/>
      <point x="482" y="61"/>
      <point x="482" y="180" type="curve" smooth="yes"/>
      <point x="482" y="287"/>
      <point x="419" y="335"/>
      <point x="367" y="379" type="curve" smooth="yes"/>
      <point x="331" y="410"/>
      <point x="300" y="439"/>
      <point x="300" y="486" type="curve" smooth="yes"/>
      <point x="300" y="506"/>
      <point x="305" y="523"/>
      <point x="314" y="536" type="curve"/>
      <point x="306" y="543"/>
      <point x="292" y="548"/>
      <point x="273" y="548" type="curve" smooth="yes"/>
      <point x="239" y="548"/>
      <point x="218" y="526"/>
      <point x="218" y="486" type="curve" smooth="yes"/>
      <point x="218" y="417"/>
      <point x="259" y="380"/>
      <point x="301" y="340" type="curve" smooth="yes"/>
      <point x="343" y="300"/>
      <point x="385" y="258"/>
      <point x="385" y="180" type="curve" smooth="yes"/>
      <point x="385" y="94"/>
      <point x="342" y="41"/>
      <point x="266" y="41" type="curve" smooth="yes"/>
      <point x="191" y="41"/>
      <point x="145" y="92"/>
      <point x="145" y="168" type="curve" smooth="yes"/>
      <point x="145" y="206"/>
      <point x="150" y="230"/>
      <point x="167" y="262" type="curve"/>
      <point x="153" y="271"/>
      <point x="139" y="275"/>
      <point x="127" y="275" type="curve" smooth="yes"/>
      <point x="78" y="275"/>
      <point x="50" y="220"/>
      <point x="50" y="167" type="curve" smooth="yes"/>
      <point x="50" y="59"/>
      <point x="140" y="-12"/>
    </contour>
  </outline>
</glyph>
<glyph name="ban-georgian" format="2">
  <advance width="577"/>
  <unicode hex="10D1"/>
  <note>
uni10D1
</note>
  <outline>
    <contour>
      <point x="344" y="541" type="curve"/>
      <point x="352" y="554"/>
      <point x="356" y="569"/>
      <point x="356" y="587" type="curve" smooth="yes"/>
      <point x="356" y="630"/>
      <point x="330" y="649"/>
      <point x="305" y="667" type="curve" smooth="yes"/>
      <point x="282" y="683"/>
      <point x="260" y="698"/>
      <point x="260" y="726" type="curve" smooth="yes"/>
      <point x="260" y="736"/>
      <point x="262" y="747"/>
      <point x="267" y="760" type="curve"/>
      <point x="259" y="767"/>
      <point x="248" y="772"/>
      <point x="233" y="772" type="curve" smooth="yes"/>
      <point x="199" y="772"/>
      <point x="178" y="750"/>
      <point x="178" y="720" type="curve" smooth="yes"/>
      <point x="178" y="683"/>
      <point x="203" y="664"/>
      <point x="228" y="647" type="curve" smooth="yes"/>
      <point x="250" y="632"/>
      <point x="271" y="615"/>
      <point x="271" y="587" type="curve" smooth="yes"/>
      <point x="271" y="571"/>
      <point x="269" y="556"/>
      <point x="263" y="544" type="curve"/>
      <point x="126" y="534"/>
      <point x="55" y="447"/>
      <point x="55" y="269" type="curve" smooth="yes"/>
      <point x="55" y="79"/>
      <point x="143" y="-12"/>
      <point x="287" y="-12" type="curve" smooth="yes"/>
      <point x="441" y="-12"/>
      <point x="522" y="79"/>
      <point x="522" y="269" type="curve" smooth="yes"/>
      <point x="522" y="433"/>
      <point x="456" y="520"/>
    </contour>
    <contour>
      <point x="289" y="40" type="curve" smooth="yes"/>
      <point x="189" y="40"/>
      <point x="152" y="118"/>
      <point x="152" y="269" type="curve" smooth="yes"/>
      <point x="152" y="420"/>
      <point x="188" y="496"/>
      <point x="288" y="496" type="curve" smooth="yes"/>
      <point x="388" y="496"/>
      <point x="425" y="420"/>
      <point x="425" y="269" type="curve" smooth="yes"/>
      <point x="425" y="118"/>
      <point x="389" y="40"/>
    </contour>
  </outline>
</glyph>
<glyph name="gan-georgian" format="2">
  <advance width="567"/>
  <unicode hex="10D2"/>
  <note>
uni10D2
</note>
  <outline>
    <contour>
      <point x="282" y="-252" type="curve" smooth="yes"/>
      <point x="436" y="-252"/>
      <point x="517" y="-161"/>
      <point x="517" y="29" type="curve" smooth="yes"/>
      <point x="517" y="189"/>
      <point x="450" y="277"/>
      <point x="342" y="300" type="curve"/>
      <point x="342" y="303" type="line"/>
      <point x="414" y="331"/>
      <point x="442" y="379"/>
      <point x="442" y="417" type="curve" smooth="yes"/>
      <point x="442" y="489"/>
      <point x="381" y="548"/>
      <point x="274" y="548" type="curve" smooth="yes"/>
      <point x="169" y="548"/>
      <point x="105" y="489"/>
      <point x="105" y="436" type="curve" smooth="yes"/>
      <point x="105" y="387"/>
      <point x="139" y="374"/>
      <point x="168" y="374" type="curve" smooth="yes"/>
      <point x="183" y="374"/>
      <point x="196" y="377"/>
      <point x="207" y="380" type="curve"/>
      <point x="203" y="391"/>
      <point x="198" y="404"/>
      <point x="198" y="428" type="curve" smooth="yes"/>
      <point x="198" y="473"/>
      <point x="229" y="502"/>
      <point x="273" y="502" type="curve" smooth="yes"/>
      <point x="318" y="502"/>
      <point x="348" y="473"/>
      <point x="348" y="417" type="curve" smooth="yes"/>
      <point x="348" y="367"/>
      <point x="331" y="324"/>
      <point x="235" y="305" type="curve" smooth="yes"/>
      <point x="115" y="281"/>
      <point x="50" y="197"/>
      <point x="50" y="29" type="curve" smooth="yes"/>
      <point x="50" y="-161"/>
      <point x="138" y="-252"/>
    </contour>
    <contour>
      <point x="284" y="-200" type="curve" smooth="yes"/>
      <point x="184" y="-200"/>
      <point x="147" y="-122"/>
      <point x="147" y="29" type="curve" smooth="yes"/>
      <point x="147" y="180"/>
      <point x="183" y="256"/>
      <point x="283" y="256" type="curve" smooth="yes"/>
      <point x="383" y="256"/>
      <point x="420" y="180"/>
      <point x="420" y="29" type="curve" smooth="yes"/>
      <point x="420" y="-122"/>
      <point x="384" y="-200"/>
    </contour>
  </outline>
</glyph>
<glyph name="don-georgian" format="2">
  <advance width="855"/>
  <unicode hex="10D3"/>
  <note>
uni10D3
</note>
  <outline>
    <contour>
      <point x="582" y="0" type="curve" smooth="yes"/>
      <point x="727" y="0"/>
      <point x="800" y="99"/>
      <point x="800" y="271" type="curve" smooth="yes"/>
      <point x="800" y="454"/>
      <point x="729" y="548"/>
      <point x="580" y="548" type="curve" smooth="yes"/>
      <point x="504" y="548"/>
      <point x="434" y="500"/>
      <point x="414" y="438" type="curve"/>
      <point x="410" y="438" type="line"/>
      <point x="390" y="500"/>
      <point x="327" y="548"/>
      <point x="257" y="548" type="curve" smooth="yes"/>
      <point x="124" y="548"/>
      <point x="55" y="446"/>
      <point x="55" y="279" type="curve" smooth="yes"/>
      <point x="55" y="79"/>
      <point x="153" y="-19"/>
      <point x="290" y="-80" type="curve"/>
      <point x="290" y="-84" type="line"/>
      <point x="248" y="-86"/>
      <point x="193" y="-104"/>
      <point x="161" y="-134" type="curve"/>
      <point x="181" y="-164" type="line"/>
      <point x="227" y="-134"/>
      <point x="278" y="-126"/>
      <point x="344" y="-126" type="curve" smooth="yes"/>
      <point x="445" y="-126"/>
      <point x="584" y="-164"/>
      <point x="584" y="-252" type="curve"/>
      <point x="619" y="-252"/>
      <point x="643" y="-234"/>
      <point x="643" y="-201" type="curve" smooth="yes"/>
      <point x="643" y="-144"/>
      <point x="543" y="-100"/>
      <point x="440" y="-71" type="curve" smooth="yes"/>
      <point x="301" y="-32"/>
      <point x="152" y="35"/>
      <point x="152" y="279" type="curve" smooth="yes"/>
      <point x="152" y="382"/>
      <point x="173" y="497"/>
      <point x="261" y="497" type="curve" smooth="yes"/>
      <point x="324" y="497"/>
      <point x="361" y="449"/>
      <point x="361" y="332" type="curve" smooth="yes"/>
      <point x="361" y="272" type="line" smooth="yes"/>
      <point x="361" y="93"/>
      <point x="431" y="0"/>
    </contour>
    <contour>
      <point x="580" y="496" type="curve" smooth="yes"/>
      <point x="672" y="496"/>
      <point x="703" y="418"/>
      <point x="703" y="271" type="curve" smooth="yes"/>
      <point x="703" y="129"/>
      <point x="672" y="52"/>
      <point x="580" y="52" type="curve" smooth="yes"/>
      <point x="477" y="52"/>
      <point x="455" y="155"/>
      <point x="455" y="272" type="curve" smooth="yes"/>
      <point x="455" y="407"/>
      <point x="478" y="496"/>
    </contour>
  </outline>
</glyph>
<glyph name="en-georgian" format="2">
  <advance width="568"/>
  <unicode hex="10D4"/>
  <note>
uni10D4
</note>
  <anchor x="277" y="536" name="top"/>
  <outline>
    <contour>
      <point x="267" y="-252" type="curve" smooth="yes"/>
      <point x="398" y="-252"/>
      <point x="488" y="-167"/>
      <point x="488" y="-4" type="curve" smooth="yes"/>
      <point x="488" y="314" type="line" smooth="yes"/>
      <point x="488" y="446"/>
      <point x="418" y="548"/>
      <point x="274" y="548" type="curve" smooth="yes"/>
      <point x="162" y="548"/>
      <point x="71" y="473"/>
      <point x="71" y="382" type="curve" smooth="yes"/>
      <point x="71" y="319"/>
      <point x="105" y="275"/>
      <point x="144" y="275" type="curve" smooth="yes"/>
      <point x="154" y="275"/>
      <point x="165" y="277"/>
      <point x="177" y="283" type="curve"/>
      <point x="165" y="311"/>
      <point x="160" y="338"/>
      <point x="160" y="367" type="curve" smooth="yes"/>
      <point x="160" y="441"/>
      <point x="205" y="496"/>
      <point x="274" y="496" type="curve" smooth="yes"/>
      <point x="352" y="496"/>
      <point x="394" y="432"/>
      <point x="394" y="343" type="curve" smooth="yes"/>
      <point x="394" y="-3" type="line" smooth="yes"/>
      <point x="394" y="-131"/>
      <point x="357" y="-200"/>
      <point x="266" y="-200" type="curve" smooth="yes"/>
      <point x="174" y="-200"/>
      <point x="144" y="-128"/>
      <point x="144" y="-44" type="curve" smooth="yes"/>
      <point x="144" y="18"/>
      <point x="157" y="55"/>
      <point x="176" y="85" type="curve"/>
      <point x="162" y="94"/>
      <point x="149" y="98"/>
      <point x="136" y="98" type="curve" smooth="yes"/>
      <point x="93" y="98"/>
      <point x="50" y="44"/>
      <point x="50" y="-33" type="curve" smooth="yes"/>
      <point x="50" y="-167"/>
      <point x="128" y="-252"/>
    </contour>
  </outline>
</glyph>
<glyph name="vin-georgian" format="2">
  <advance width="556"/>
  <unicode hex="10D5"/>
  <note>
uni10D5
</note>
  <outline>
    <contour>
      <point x="275" y="-252" type="curve" smooth="yes"/>
      <point x="408" y="-252"/>
      <point x="506" y="-167"/>
      <point x="506" y="-24" type="curve" smooth="yes"/>
      <point x="506" y="104"/>
      <point x="430" y="179"/>
      <point x="338" y="192" type="curve"/>
      <point x="338" y="197" type="line"/>
      <point x="430" y="219"/>
      <point x="489" y="287"/>
      <point x="489" y="366" type="curve" smooth="yes"/>
      <point x="489" y="446"/>
      <point x="418" y="548"/>
      <point x="275" y="548" type="curve" smooth="yes"/>
      <point x="162" y="548"/>
      <point x="71" y="473"/>
      <point x="71" y="396" type="curve" smooth="yes"/>
      <point x="71" y="345"/>
      <point x="102" y="305"/>
      <point x="141" y="305" type="curve" smooth="yes"/>
      <point x="151" y="305"/>
      <point x="162" y="307"/>
      <point x="174" y="313" type="curve"/>
      <point x="162" y="341"/>
      <point x="160" y="358"/>
      <point x="160" y="383" type="curve" smooth="yes"/>
      <point x="160" y="446"/>
      <point x="205" y="496"/>
      <point x="275" y="496" type="curve" smooth="yes"/>
      <point x="352" y="496"/>
      <point x="394" y="432"/>
      <point x="394" y="361" type="curve" smooth="yes"/>
      <point x="394" y="278"/>
      <point x="352" y="220"/>
      <point x="267" y="220" type="curve" smooth="yes"/>
      <point x="222" y="220" type="line"/>
      <point x="222" y="166" type="line"/>
      <point x="267" y="166" type="line" smooth="yes"/>
      <point x="357" y="166"/>
      <point x="409" y="102"/>
      <point x="409" y="-23" type="curve" smooth="yes"/>
      <point x="409" y="-131"/>
      <point x="367" y="-200"/>
      <point x="274" y="-200" type="curve" smooth="yes"/>
      <point x="184" y="-200"/>
      <point x="144" y="-128"/>
      <point x="144" y="-54" type="curve" smooth="yes"/>
      <point x="144" y="-12"/>
      <point x="153" y="25"/>
      <point x="171" y="55" type="curve"/>
      <point x="157" y="64"/>
      <point x="144" y="68"/>
      <point x="131" y="68" type="curve" smooth="yes"/>
      <point x="88" y="68"/>
      <point x="50" y="17"/>
      <point x="50" y="-45" type="curve" smooth="yes"/>
      <point x="50" y="-167"/>
      <point x="138" y="-252"/>
    </contour>
  </outline>
</glyph>
<glyph name="zen-georgian" format="2">
  <advance width="619"/>
  <unicode hex="10D6"/>
  <note>
uni10D6
</note>
  <outline>
    <contour>
      <point x="329" y="-12" type="curve" smooth="yes"/>
      <point x="483" y="-12"/>
      <point x="564" y="79"/>
      <point x="564" y="262" type="curve" smooth="yes"/>
      <point x="564" y="438"/>
      <point x="476" y="536"/>
      <point x="344" y="536" type="curve" smooth="yes"/>
      <point x="332" y="536"/>
      <point x="321" y="534"/>
      <point x="316" y="532" type="curve"/>
      <point x="316" y="535" type="line"/>
      <point x="336" y="556"/>
      <point x="346" y="585"/>
      <point x="346" y="623" type="curve" smooth="yes"/>
      <point x="346" y="720"/>
      <point x="265" y="772"/>
      <point x="181" y="772" type="curve" smooth="yes"/>
      <point x="92" y="772"/>
      <point x="15" y="720"/>
      <point x="15" y="611" type="curve" smooth="yes"/>
      <point x="15" y="507"/>
      <point x="81" y="461"/>
      <point x="153" y="448" type="curve"/>
      <point x="153" y="445" type="line"/>
      <point x="113" y="398"/>
      <point x="97" y="343"/>
      <point x="97" y="262" type="curve" smooth="yes"/>
      <point x="97" y="79"/>
      <point x="185" y="-12"/>
    </contour>
    <contour>
      <point x="331" y="40" type="curve" smooth="yes"/>
      <point x="231" y="40"/>
      <point x="194" y="118"/>
      <point x="194" y="262" type="curve" smooth="yes"/>
      <point x="194" y="410"/>
      <point x="230" y="484"/>
      <point x="330" y="484" type="curve" smooth="yes"/>
      <point x="430" y="484"/>
      <point x="467" y="410"/>
      <point x="467" y="262" type="curve" smooth="yes"/>
      <point x="467" y="118"/>
      <point x="431" y="40"/>
    </contour>
    <contour>
      <point x="181" y="498" type="curve" smooth="yes"/>
      <point x="123" y="498"/>
      <point x="102" y="543"/>
      <point x="102" y="611" type="curve" smooth="yes"/>
      <point x="102" y="677"/>
      <point x="123" y="724"/>
      <point x="180" y="724" type="curve" smooth="yes"/>
      <point x="239" y="724"/>
      <point x="259" y="677"/>
      <point x="259" y="611" type="curve" smooth="yes"/>
      <point x="259" y="543"/>
      <point x="239" y="498"/>
    </contour>
  </outline>
</glyph>
<glyph name="tan-georgian" format="2">
  <advance width="855"/>
  <unicode hex="10D7"/>
  <note>
uni10D7
</note>
  <outline>
    <contour>
      <point x="273" y="-12" type="curve" smooth="yes"/>
      <point x="424" y="-12"/>
      <point x="494" y="81"/>
      <point x="494" y="270" type="curve" smooth="yes"/>
      <point x="494" y="332" type="line" smooth="yes"/>
      <point x="494" y="449"/>
      <point x="531" y="497"/>
      <point x="594" y="497" type="curve" smooth="yes"/>
      <point x="682" y="497"/>
      <point x="703" y="392"/>
      <point x="703" y="269" type="curve" smooth="yes"/>
      <point x="703" y="121"/>
      <point x="664" y="35"/>
      <point x="592" y="30" type="curve"/>
      <point x="592" y="3"/>
      <point x="600" y="-10"/>
      <point x="629" y="-10" type="curve" smooth="yes"/>
      <point x="734" y="-10"/>
      <point x="800" y="138"/>
      <point x="800" y="264" type="curve" smooth="yes"/>
      <point x="800" y="451"/>
      <point x="731" y="548"/>
      <point x="598" y="548" type="curve" smooth="yes"/>
      <point x="531" y="548"/>
      <point x="466" y="502"/>
      <point x="446" y="440" type="curve"/>
      <point x="442" y="440" type="line"/>
      <point x="422" y="502"/>
      <point x="351" y="548"/>
      <point x="275" y="548" type="curve" smooth="yes"/>
      <point x="126" y="548"/>
      <point x="55" y="454"/>
      <point x="55" y="269" type="curve" smooth="yes"/>
      <point x="55" y="87"/>
      <point x="128" y="-12"/>
    </contour>
    <contour>
      <point x="275" y="40" type="curve" smooth="yes"/>
      <point x="183" y="40"/>
      <point x="152" y="117"/>
      <point x="152" y="269" type="curve" smooth="yes"/>
      <point x="152" y="418"/>
      <point x="183" y="496"/>
      <point x="275" y="496" type="curve" smooth="yes"/>
      <point x="377" y="496"/>
      <point x="400" y="407"/>
      <point x="400" y="270" type="curve" smooth="yes"/>
      <point x="400" y="143"/>
      <point x="378" y="40"/>
    </contour>
  </outline>
</glyph>
<glyph name="in-georgian" format="2">
  <advance width="567"/>
  <unicode hex="10D8"/>
  <note>
uni10D8
</note>
  <anchor x="284" y="536" name="top"/>
  <outline>
    <contour>
      <point x="197" y="-10" type="curve" smooth="yes"/>
      <point x="214" y="-10"/>
      <point x="227" y="2"/>
      <point x="227" y="17" type="curve"/>
      <point x="176" y="42"/>
      <point x="152" y="120"/>
      <point x="152" y="263" type="curve" smooth="yes"/>
      <point x="152" y="415"/>
      <point x="198" y="496"/>
      <point x="283" y="496" type="curve" smooth="yes"/>
      <point x="369" y="496"/>
      <point x="415" y="417"/>
      <point x="415" y="263" type="curve" smooth="yes"/>
      <point x="415" y="123"/>
      <point x="392" y="43"/>
      <point x="340" y="17" type="curve"/>
      <point x="340" y="2"/>
      <point x="353" y="-10"/>
      <point x="370" y="-10" type="curve" smooth="yes"/>
      <point x="461" y="-10"/>
      <point x="512" y="142"/>
      <point x="512" y="264" type="curve" smooth="yes"/>
      <point x="512" y="450"/>
      <point x="433" y="548"/>
      <point x="285" y="548" type="curve" smooth="yes"/>
      <point x="139" y="548"/>
      <point x="55" y="448"/>
      <point x="55" y="264" type="curve" smooth="yes"/>
      <point x="55" y="144"/>
      <point x="105" y="-10"/>
    </contour>
  </outline>
</glyph>
<glyph name="kan-georgian" format="2">
  <advance width="541"/>
  <unicode hex="10D9"/>
  <note>
uni10D9
</note>
  <outline>
    <contour>
      <point x="265" y="-252" type="curve" smooth="yes"/>
      <point x="398" y="-252"/>
      <point x="491" y="-167"/>
      <point x="491" y="-14" type="curve" smooth="yes"/>
      <point x="491" y="114"/>
      <point x="415" y="187"/>
      <point x="323" y="210" type="curve"/>
      <point x="323" y="215" type="line"/>
      <point x="415" y="227"/>
      <point x="473" y="287"/>
      <point x="473" y="376" type="curve" smooth="yes"/>
      <point x="473" y="456"/>
      <point x="403" y="542"/>
      <point x="260" y="542" type="curve"/>
      <point x="260" y="496" type="line"/>
      <point x="337" y="496"/>
      <point x="379" y="442"/>
      <point x="379" y="371" type="curve" smooth="yes"/>
      <point x="379" y="288"/>
      <point x="337" y="240"/>
      <point x="252" y="240" type="curve" smooth="yes"/>
      <point x="207" y="240" type="line"/>
      <point x="207" y="186" type="line"/>
      <point x="252" y="186" type="line" smooth="yes"/>
      <point x="342" y="186"/>
      <point x="394" y="112"/>
      <point x="394" y="-13" type="curve" smooth="yes"/>
      <point x="394" y="-131"/>
      <point x="357" y="-200"/>
      <point x="264" y="-200" type="curve" smooth="yes"/>
      <point x="174" y="-200"/>
      <point x="139" y="-128"/>
      <point x="139" y="-54" type="curve" smooth="yes"/>
      <point x="139" y="-12"/>
      <point x="148" y="25"/>
      <point x="166" y="55" type="curve"/>
      <point x="152" y="64"/>
      <point x="139" y="68"/>
      <point x="126" y="68" type="curve" smooth="yes"/>
      <point x="83" y="68"/>
      <point x="45" y="17"/>
      <point x="45" y="-45" type="curve" smooth="yes"/>
      <point x="45" y="-167"/>
      <point x="128" y="-252"/>
    </contour>
  </outline>
</glyph>
<glyph name="las-georgian" format="2">
  <advance width="1073"/>
  <unicode hex="10DA"/>
  <note>
uni10DA
</note>
  <outline>
    <contour>
      <point x="822" y="548" type="curve" smooth="yes"/>
      <point x="745" y="548"/>
      <point x="696" y="502"/>
      <point x="678" y="440" type="curve"/>
      <point x="674" y="440" type="line"/>
      <point x="654" y="502"/>
      <point x="611" y="548"/>
      <point x="537" y="548" type="curve" smooth="yes"/>
      <point x="457" y="548"/>
      <point x="418" y="502"/>
      <point x="400" y="440" type="curve"/>
      <point x="396" y="440" type="line"/>
      <point x="376" y="502"/>
      <point x="323" y="548"/>
      <point x="252" y="548" type="curve" smooth="yes"/>
      <point x="124" y="548"/>
      <point x="55" y="440"/>
      <point x="55" y="277" type="curve" smooth="yes"/>
      <point x="55" y="77"/>
      <point x="179" y="-27"/>
      <point x="330" y="-80" type="curve"/>
      <point x="330" y="-84" type="line"/>
      <point x="288" y="-86"/>
      <point x="223" y="-104"/>
      <point x="191" y="-134" type="curve"/>
      <point x="211" y="-164" type="line"/>
      <point x="257" y="-134"/>
      <point x="318" y="-126"/>
      <point x="404" y="-126" type="curve" smooth="yes"/>
      <point x="485" y="-126"/>
      <point x="634" y="-164"/>
      <point x="634" y="-252" type="curve"/>
      <point x="669" y="-252"/>
      <point x="693" y="-234"/>
      <point x="693" y="-201" type="curve" smooth="yes"/>
      <point x="693" y="-137"/>
      <point x="590" y="-87"/>
      <point x="476" y="-64" type="curve" smooth="yes"/>
      <point x="335" y="-35"/>
      <point x="152" y="43"/>
      <point x="152" y="277" type="curve" smooth="yes"/>
      <point x="152" y="380"/>
      <point x="163" y="494"/>
      <point x="259" y="494" type="curve" smooth="yes"/>
      <point x="326" y="494"/>
      <point x="350" y="441"/>
      <point x="350" y="305" type="curve" smooth="yes"/>
      <point x="350" y="180" type="line"/>
      <point x="444" y="180" type="line"/>
      <point x="444" y="305" type="line" smooth="yes"/>
      <point x="444" y="441"/>
      <point x="469" y="494"/>
      <point x="537" y="494" type="curve" smooth="yes"/>
      <point x="599" y="494"/>
      <point x="628" y="441"/>
      <point x="628" y="305" type="curve" smooth="yes"/>
      <point x="628" y="180" type="line"/>
      <point x="722" y="180" type="line"/>
      <point x="722" y="305" type="line" smooth="yes"/>
      <point x="722" y="441"/>
      <point x="742" y="494"/>
      <point x="815" y="494" type="curve" smooth="yes"/>
      <point x="899" y="494"/>
      <point x="921" y="411"/>
      <point x="921" y="267" type="curve" smooth="yes"/>
      <point x="921" y="127"/>
      <point x="899" y="53"/>
      <point x="846" y="27" type="curve"/>
      <point x="846" y="12"/>
      <point x="859" y="0"/>
      <point x="876" y="0" type="curve" smooth="yes"/>
      <point x="966" y="0"/>
      <point x="1018" y="146"/>
      <point x="1018" y="267" type="curve" smooth="yes"/>
      <point x="1018" y="419"/>
      <point x="969" y="548"/>
    </contour>
  </outline>
</glyph>
<glyph name="man-georgian" format="2">
  <advance width="591"/>
  <unicode hex="10DB"/>
  <note>
uni10DB
</note>
  <outline>
    <contour>
      <point x="280" y="-12" type="curve" smooth="yes"/>
      <point x="421" y="-12"/>
      <point x="506" y="73"/>
      <point x="506" y="266" type="curve" smooth="yes"/>
      <point x="506" y="568" type="line" smooth="yes"/>
      <point x="506" y="690"/>
      <point x="431" y="772"/>
      <point x="292" y="772" type="curve" smooth="yes"/>
      <point x="190" y="772"/>
      <point x="89" y="727"/>
      <point x="89" y="656" type="curve" smooth="yes"/>
      <point x="89" y="625"/>
      <point x="107" y="601"/>
      <point x="145" y="601" type="curve" smooth="yes"/>
      <point x="156" y="601"/>
      <point x="168" y="603"/>
      <point x="182" y="607" type="curve"/>
      <point x="179" y="617"/>
      <point x="178" y="627"/>
      <point x="178" y="636" type="curve" smooth="yes"/>
      <point x="178" y="687"/>
      <point x="222" y="722"/>
      <point x="292" y="722" type="curve" smooth="yes"/>
      <point x="365" y="722"/>
      <point x="412" y="676"/>
      <point x="412" y="597" type="curve" smooth="yes"/>
      <point x="412" y="558" type="line" smooth="yes"/>
      <point x="412" y="526"/>
      <point x="414" y="481"/>
      <point x="418" y="448" type="curve"/>
      <point x="412" y="448" type="line"/>
      <point x="383" y="500"/>
      <point x="336" y="536"/>
      <point x="259" y="536" type="curve" smooth="yes"/>
      <point x="127" y="536"/>
      <point x="55" y="450"/>
      <point x="55" y="267" type="curve" smooth="yes"/>
      <point x="55" y="73"/>
      <point x="127" y="-12"/>
    </contour>
    <contour>
      <point x="279" y="40" type="curve" smooth="yes"/>
      <point x="187" y="40"/>
      <point x="152" y="110"/>
      <point x="152" y="266" type="curve" smooth="yes"/>
      <point x="152" y="396"/>
      <point x="187" y="473"/>
      <point x="275" y="473" type="curve" smooth="yes"/>
      <point x="380" y="473"/>
      <point x="412" y="396"/>
      <point x="412" y="267" type="curve" smooth="yes"/>
      <point x="412" y="109"/>
      <point x="380" y="40"/>
    </contour>
  </outline>
</glyph>
<glyph name="nar-georgian" format="2">
  <advance width="591"/>
  <unicode hex="10DC"/>
  <note>
uni10DC
</note>
  <outline>
    <contour>
      <point x="311" y="-12" type="curve" smooth="yes"/>
      <point x="464" y="-12"/>
      <point x="536" y="73"/>
      <point x="536" y="267" type="curve" smooth="yes"/>
      <point x="536" y="462"/>
      <point x="465" y="548"/>
      <point x="332" y="548" type="curve" smooth="yes"/>
      <point x="255" y="548"/>
      <point x="208" y="512"/>
      <point x="179" y="460" type="curve"/>
      <point x="173" y="460" type="line"/>
      <point x="177" y="493"/>
      <point x="179" y="538"/>
      <point x="179" y="570" type="curve" smooth="yes"/>
      <point x="179" y="597" type="line" smooth="yes"/>
      <point x="179" y="676"/>
      <point x="226" y="710"/>
      <point x="269" y="710" type="curve" smooth="yes"/>
      <point x="305" y="710"/>
      <point x="330" y="704"/>
      <point x="352" y="694" type="curve" smooth="yes"/>
      <point x="379" y="682"/>
      <point x="409" y="671"/>
      <point x="441" y="671" type="curve" smooth="yes"/>
      <point x="468" y="671"/>
      <point x="496" y="685"/>
      <point x="496" y="723" type="curve" smooth="yes"/>
      <point x="496" y="745"/>
      <point x="483" y="766"/>
      <point x="455" y="772" type="curve"/>
      <point x="447" y="754"/>
      <point x="421" y="747"/>
      <point x="396" y="747" type="curve" smooth="yes"/>
      <point x="375" y="747"/>
      <point x="360" y="748"/>
      <point x="343" y="752" type="curve" smooth="yes"/>
      <point x="323" y="757"/>
      <point x="302" y="760"/>
      <point x="268" y="760" type="curve"/>
      <point x="160" y="760"/>
      <point x="85" y="690"/>
      <point x="85" y="568" type="curve" smooth="yes"/>
      <point x="85" y="266" type="line" smooth="yes"/>
      <point x="85" y="73"/>
      <point x="170" y="-12"/>
    </contour>
    <contour>
      <point x="312" y="40" type="curve" smooth="yes"/>
      <point x="211" y="40"/>
      <point x="179" y="109"/>
      <point x="179" y="267" type="curve" smooth="yes"/>
      <point x="179" y="408"/>
      <point x="211" y="485"/>
      <point x="316" y="485" type="curve" smooth="yes"/>
      <point x="404" y="485"/>
      <point x="439" y="408"/>
      <point x="439" y="266" type="curve" smooth="yes"/>
      <point x="439" y="110"/>
      <point x="404" y="40"/>
    </contour>
  </outline>
</glyph>
<glyph name="on-georgian" format="2">
  <advance width="815"/>
  <unicode hex="10DD"/>
  <note>
uni10DD
</note>
  <anchor x="408" y="536" name="top"/>
  <outline>
    <contour>
      <point x="197" y="-10" type="curve" smooth="yes"/>
      <point x="214" y="-10"/>
      <point x="227" y="2"/>
      <point x="227" y="17" type="curve"/>
      <point x="175" y="43"/>
      <point x="152" y="117"/>
      <point x="152" y="267" type="curve" smooth="yes"/>
      <point x="152" y="380"/>
      <point x="163" y="494"/>
      <point x="264" y="494" type="curve" smooth="yes"/>
      <point x="336" y="494"/>
      <point x="360" y="441"/>
      <point x="360" y="305" type="curve" smooth="yes"/>
      <point x="360" y="180" type="line"/>
      <point x="454" y="180" type="line"/>
      <point x="454" y="305" type="line" smooth="yes"/>
      <point x="454" y="441"/>
      <point x="479" y="494"/>
      <point x="552" y="494" type="curve" smooth="yes"/>
      <point x="636" y="494"/>
      <point x="663" y="411"/>
      <point x="663" y="267" type="curve" smooth="yes"/>
      <point x="663" y="117"/>
      <point x="641" y="43"/>
      <point x="588" y="17" type="curve"/>
      <point x="588" y="2"/>
      <point x="601" y="-10"/>
      <point x="618" y="-10" type="curve" smooth="yes"/>
      <point x="708" y="-10"/>
      <point x="760" y="136"/>
      <point x="760" y="267" type="curve" smooth="yes"/>
      <point x="760" y="419"/>
      <point x="706" y="548"/>
      <point x="559" y="548" type="curve" smooth="yes"/>
      <point x="482" y="548"/>
      <point x="428" y="502"/>
      <point x="410" y="440" type="curve"/>
      <point x="406" y="440" type="line"/>
      <point x="386" y="502"/>
      <point x="333" y="548"/>
      <point x="257" y="548" type="curve" smooth="yes"/>
      <point x="124" y="548"/>
      <point x="55" y="440"/>
      <point x="55" y="267" type="curve" smooth="yes"/>
      <point x="55" y="139"/>
      <point x="105" y="-10"/>
    </contour>
  </outline>
</glyph>
<glyph name="par-georgian" format="2">
  <advance width="557"/>
  <unicode hex="10DE"/>
  <note>
uni10DE
</note>
  <outline>
    <contour>
      <point x="274" y="-12" type="curve" smooth="yes"/>
      <point x="406" y="-12"/>
      <point x="502" y="67"/>
      <point x="502" y="198" type="curve" smooth="yes"/>
      <point x="502" y="294"/>
      <point x="445" y="369"/>
      <point x="351" y="380" type="curve"/>
      <point x="351" y="385" type="line"/>
      <point x="445" y="404"/>
      <point x="485" y="446"/>
      <point x="485" y="510" type="curve" smooth="yes"/>
      <point x="485" y="577"/>
      <point x="425" y="611"/>
      <point x="374" y="642" type="curve" smooth="yes"/>
      <point x="336" y="665"/>
      <point x="303" y="687"/>
      <point x="303" y="726" type="curve" smooth="yes"/>
      <point x="303" y="736"/>
      <point x="305" y="747"/>
      <point x="310" y="760" type="curve"/>
      <point x="302" y="767"/>
      <point x="291" y="772"/>
      <point x="276" y="772" type="curve" smooth="yes"/>
      <point x="242" y="772"/>
      <point x="221" y="750"/>
      <point x="221" y="720" type="curve" smooth="yes"/>
      <point x="221" y="661"/>
      <point x="263" y="632"/>
      <point x="305" y="605" type="curve" smooth="yes"/>
      <point x="346" y="578"/>
      <point x="388" y="553"/>
      <point x="388" y="500" type="curve" smooth="yes"/>
      <point x="388" y="442"/>
      <point x="354" y="410"/>
      <point x="267" y="410" type="curve" smooth="yes"/>
      <point x="225" y="410" type="line"/>
      <point x="225" y="356" type="line"/>
      <point x="267" y="356" type="line" smooth="yes"/>
      <point x="353" y="356"/>
      <point x="405" y="300"/>
      <point x="405" y="195" type="curve" smooth="yes"/>
      <point x="405" y="87"/>
      <point x="353" y="40"/>
      <point x="272" y="40" type="curve" smooth="yes"/>
      <point x="195" y="40"/>
      <point x="146" y="91"/>
      <point x="145" y="172" type="curve"/>
      <point x="145" y="208"/>
      <point x="151" y="231"/>
      <point x="167" y="262" type="curve"/>
      <point x="153" y="271"/>
      <point x="139" y="275"/>
      <point x="127" y="275" type="curve" smooth="yes"/>
      <point x="78" y="275"/>
      <point x="50" y="220"/>
      <point x="50" y="167" type="curve" smooth="yes"/>
      <point x="50" y="59"/>
      <point x="146" y="-12"/>
    </contour>
  </outline>
</glyph>
<glyph name="zhar-georgian" format="2">
  <advance width="595"/>
  <unicode hex="10DF"/>
  <note>
uni10DF
</note>
  <outline>
    <contour>
      <point x="287" y="-252" type="curve" smooth="yes"/>
      <point x="420" y="-252"/>
      <point x="510" y="-167"/>
      <point x="510" y="-14" type="curve" smooth="yes"/>
      <point x="510" y="536" type="line"/>
      <point x="416" y="536" type="line"/>
      <point x="358" y="503"/>
      <point x="278" y="481"/>
      <point x="182" y="470" type="curve"/>
      <point x="182" y="412" type="line"/>
      <point x="227" y="397"/>
      <point x="245" y="363"/>
      <point x="245" y="320" type="curve" smooth="yes"/>
      <point x="245" y="263"/>
      <point x="224" y="237"/>
      <point x="183" y="237" type="curve" smooth="yes"/>
      <point x="148" y="237"/>
      <point x="122" y="259"/>
      <point x="122" y="311" type="curve" smooth="yes"/>
      <point x="122" y="319"/>
      <point x="123" y="327"/>
      <point x="124" y="336" type="curve"/>
      <point x="117" y="337"/>
      <point x="111" y="338"/>
      <point x="106" y="338" type="curve" smooth="yes"/>
      <point x="69" y="338"/>
      <point x="50" y="310"/>
      <point x="50" y="284" type="curve" smooth="yes"/>
      <point x="50" y="236"/>
      <point x="103" y="190"/>
      <point x="182" y="190" type="curve" smooth="yes"/>
      <point x="271" y="190"/>
      <point x="326" y="236"/>
      <point x="326" y="318" type="curve" smooth="yes"/>
      <point x="326" y="367"/>
      <point x="293" y="414"/>
      <point x="258" y="431" type="curve"/>
      <point x="258" y="435" type="line"/>
      <point x="320" y="443"/>
      <point x="372" y="461"/>
      <point x="416" y="483" type="curve"/>
      <point x="422" y="483" type="line"/>
      <point x="417" y="437"/>
      <point x="416" y="408"/>
      <point x="416" y="383" type="curve" smooth="yes"/>
      <point x="416" y="-13" type="line" smooth="yes"/>
      <point x="416" y="-131"/>
      <point x="379" y="-200"/>
      <point x="286" y="-200" type="curve" smooth="yes"/>
      <point x="196" y="-200"/>
      <point x="161" y="-128"/>
      <point x="161" y="-54" type="curve" smooth="yes"/>
      <point x="161" y="-12"/>
      <point x="170" y="25"/>
      <point x="188" y="55" type="curve"/>
      <point x="174" y="64"/>
      <point x="161" y="68"/>
      <point x="148" y="68" type="curve" smooth="yes"/>
      <point x="105" y="68"/>
      <point x="67" y="17"/>
      <point x="67" y="-45" type="curve" smooth="yes"/>
      <point x="67" y="-167"/>
      <point x="150" y="-252"/>
    </contour>
  </outline>
</glyph>
<glyph name="rae-georgian" format="2">
  <advance width="812"/>
  <unicode hex="10E0"/>
  <note>
uni10E0
</note>
  <outline>
    <contour>
      <point x="194" y="-10" type="curve" smooth="yes"/>
      <point x="211" y="-10"/>
      <point x="224" y="2"/>
      <point x="224" y="17" type="curve"/>
      <point x="172" y="43"/>
      <point x="149" y="117"/>
      <point x="149" y="267" type="curve" smooth="yes"/>
      <point x="149" y="380"/>
      <point x="160" y="482"/>
      <point x="261" y="482" type="curve" smooth="yes"/>
      <point x="333" y="482"/>
      <point x="357" y="429"/>
      <point x="357" y="305" type="curve" smooth="yes"/>
      <point x="357" y="180" type="line"/>
      <point x="451" y="180" type="line"/>
      <point x="451" y="305" type="line" smooth="yes"/>
      <point x="451" y="429"/>
      <point x="476" y="482"/>
      <point x="549" y="482" type="curve" smooth="yes"/>
      <point x="633" y="482"/>
      <point x="660" y="399"/>
      <point x="660" y="267" type="curve" smooth="yes"/>
      <point x="660" y="117"/>
      <point x="638" y="43"/>
      <point x="585" y="17" type="curve"/>
      <point x="585" y="2"/>
      <point x="598" y="-10"/>
      <point x="615" y="-10" type="curve" smooth="yes"/>
      <point x="705" y="-10"/>
      <point x="757" y="136"/>
      <point x="757" y="267" type="curve" smooth="yes"/>
      <point x="757" y="407"/>
      <point x="703" y="536"/>
      <point x="556" y="536" type="curve" smooth="yes"/>
      <point x="479" y="536"/>
      <point x="425" y="490"/>
      <point x="407" y="428" type="curve"/>
      <point x="403" y="428" type="line"/>
      <point x="383" y="490"/>
      <point x="330" y="536"/>
      <point x="254" y="536" type="curve" smooth="yes"/>
      <point x="203" y="536"/>
      <point x="153" y="512"/>
      <point x="123" y="465" type="curve"/>
      <point x="120" y="465" type="line"/>
      <point x="144" y="567"/>
      <point x="218" y="619"/>
      <point x="359" y="638" type="curve" smooth="yes"/>
      <point x="478" y="654"/>
      <point x="552" y="661"/>
      <point x="555" y="772" type="curve"/>
      <point x="523" y="772" type="line"/>
      <point x="508" y="738"/>
      <point x="432" y="730"/>
      <point x="363" y="722" type="curve" smooth="yes"/>
      <point x="142" y="696"/>
      <point x="55" y="541"/>
      <point x="55" y="340" type="curve" smooth="yes"/>
      <point x="55" y="277" type="line" smooth="yes"/>
      <point x="55" y="139"/>
      <point x="102" y="-10"/>
    </contour>
  </outline>
</glyph>
<glyph name="san-georgian" format="2">
  <advance width="615"/>
  <unicode hex="10E1"/>
  <note>
uni10E1
</note>
  <outline>
    <contour>
      <point x="331" y="-12" type="curve" smooth="yes"/>
      <point x="474" y="-12"/>
      <point x="560" y="88"/>
      <point x="560" y="206" type="curve" smooth="yes"/>
      <point x="560" y="292"/>
      <point x="524" y="335"/>
      <point x="492" y="376" type="curve" smooth="yes"/>
      <point x="468" y="406"/>
      <point x="448" y="437"/>
      <point x="448" y="486" type="curve" smooth="yes"/>
      <point x="448" y="506"/>
      <point x="453" y="523"/>
      <point x="462" y="536" type="curve"/>
      <point x="454" y="543"/>
      <point x="440" y="548"/>
      <point x="421" y="548" type="curve" smooth="yes"/>
      <point x="387" y="548"/>
      <point x="366" y="522"/>
      <point x="366" y="482" type="curve" smooth="yes"/>
      <point x="366" y="413"/>
      <point x="389" y="374"/>
      <point x="414" y="337" type="curve" smooth="yes"/>
      <point x="439" y="300"/>
      <point x="463" y="265"/>
      <point x="463" y="205" type="curve" smooth="yes"/>
      <point x="463" y="110"/>
      <point x="417" y="40"/>
      <point x="331" y="40" type="curve" smooth="yes"/>
      <point x="250" y="40"/>
      <point x="203" y="104"/>
      <point x="203" y="239" type="curve" smooth="yes"/>
      <point x="203" y="760" type="line"/>
      <point x="24" y="760" type="line"/>
      <point x="24" y="718" type="line"/>
      <point x="28" y="718" type="line" smooth="yes"/>
      <point x="88" y="718"/>
      <point x="109" y="695"/>
      <point x="109" y="650" type="curve" smooth="yes"/>
      <point x="109" y="246" type="line" smooth="yes"/>
      <point x="109" y="78"/>
      <point x="190" y="-12"/>
    </contour>
  </outline>
</glyph>
<glyph name="tar-georgian" format="2">
  <advance width="750"/>
  <unicode hex="10E2"/>
  <note>
uni10E2
</note>
  <outline>
    <contour>
      <point x="376" y="-252" type="curve" smooth="yes"/>
      <point x="577" y="-252"/>
      <point x="695" y="-94"/>
      <point x="695" y="147" type="curve" smooth="yes"/>
      <point x="695" y="361"/>
      <point x="603" y="502"/>
      <point x="439" y="529" type="curve"/>
      <point x="439" y="532" type="line"/>
      <point x="479" y="560"/>
      <point x="512" y="602"/>
      <point x="512" y="653" type="curve" smooth="yes"/>
      <point x="512" y="716"/>
      <point x="456" y="772"/>
      <point x="374" y="772" type="curve" smooth="yes"/>
      <point x="293" y="772"/>
      <point x="238" y="715"/>
      <point x="238" y="656" type="curve" smooth="yes"/>
      <point x="238" y="598"/>
      <point x="271" y="560"/>
      <point x="310" y="531" type="curve"/>
      <point x="310" y="528" type="line"/>
      <point x="146" y="502"/>
      <point x="55" y="370"/>
      <point x="55" y="148" type="curve" smooth="yes"/>
      <point x="55" y="-102"/>
      <point x="169" y="-252"/>
    </contour>
    <contour>
      <point x="376" y="-200" type="curve" smooth="yes"/>
      <point x="224" y="-200"/>
      <point x="152" y="-84"/>
      <point x="152" y="147" type="curve" smooth="yes"/>
      <point x="152" y="333"/>
      <point x="187" y="447"/>
      <point x="300" y="477" type="curve"/>
      <point x="300" y="474" type="line"/>
      <point x="255" y="439"/>
      <point x="238" y="395"/>
      <point x="238" y="350" type="curve" smooth="yes"/>
      <point x="238" y="275"/>
      <point x="292" y="222"/>
      <point x="375" y="222" type="curve" smooth="yes"/>
      <point x="458" y="222"/>
      <point x="512" y="277"/>
      <point x="512" y="350" type="curve" smooth="yes"/>
      <point x="512" y="401"/>
      <point x="494" y="442"/>
      <point x="442" y="478" type="curve"/>
      <point x="442" y="481" type="line"/>
      <point x="560" y="447"/>
      <point x="598" y="340"/>
      <point x="598" y="147" type="curve" smooth="yes"/>
      <point x="598" y="-84"/>
      <point x="528" y="-200"/>
    </contour>
    <contour>
      <point x="374" y="274" type="curve" smooth="yes"/>
      <point x="333" y="274"/>
      <point x="308" y="303"/>
      <point x="308" y="354" type="curve" smooth="yes"/>
      <point x="308" y="410"/>
      <point x="327" y="451"/>
      <point x="376" y="486" type="curve"/>
      <point x="422" y="451"/>
      <point x="440" y="410"/>
      <point x="440" y="353" type="curve" smooth="yes"/>
      <point x="440" y="306"/>
      <point x="413" y="274"/>
    </contour>
    <contour>
      <point x="376" y="534" type="curve"/>
      <point x="333" y="566"/>
      <point x="313" y="601"/>
      <point x="313" y="645" type="curve" smooth="yes"/>
      <point x="313" y="695"/>
      <point x="338" y="720"/>
      <point x="373" y="720" type="curve" smooth="yes"/>
      <point x="412" y="720"/>
      <point x="435" y="694"/>
      <point x="435" y="644" type="curve" smooth="yes"/>
      <point x="435" y="601"/>
      <point x="417" y="566"/>
    </contour>
  </outline>
</glyph>
<glyph name="un-georgian" format="2">
  <advance width="621"/>
  <unicode hex="10E3"/>
  <note>
uni10E3
</note>
  <anchor x="301" y="536" name="top"/>
  <outline>
    <contour>
      <point x="289" y="-252" type="curve" smooth="yes"/>
      <point x="448" y="-252"/>
      <point x="541" y="-156"/>
      <point x="541" y="2" type="curve" smooth="yes"/>
      <point x="541" y="364" type="line" smooth="yes"/>
      <point x="541" y="476"/>
      <point x="486" y="548"/>
      <point x="381" y="548" type="curve" smooth="yes"/>
      <point x="339" y="548"/>
      <point x="293" y="530"/>
      <point x="274" y="490" type="curve"/>
      <point x="270" y="490" type="line"/>
      <point x="256" y="526"/>
      <point x="225" y="544"/>
      <point x="187" y="544" type="curve" smooth="yes"/>
      <point x="166" y="544"/>
      <point x="151" y="541"/>
      <point x="138" y="534" type="curve" smooth="yes"/>
      <point x="125" y="527"/>
      <point x="115" y="525"/>
      <point x="102" y="525" type="curve" smooth="yes"/>
      <point x="87" y="525"/>
      <point x="69" y="532"/>
      <point x="61" y="548" type="curve"/>
      <point x="34" y="539"/>
      <point x="20" y="519"/>
      <point x="20" y="497" type="curve" smooth="yes"/>
      <point x="20" y="459"/>
      <point x="51" y="447"/>
      <point x="73" y="447" type="curve" smooth="yes"/>
      <point x="101" y="447"/>
      <point x="119" y="457"/>
      <point x="133" y="470" type="curve" smooth="yes"/>
      <point x="149" y="484"/>
      <point x="167" y="498"/>
      <point x="185" y="498" type="curve" smooth="yes"/>
      <point x="210" y="498"/>
      <point x="221" y="478"/>
      <point x="221" y="453" type="curve" smooth="yes"/>
      <point x="221" y="257" type="line"/>
      <point x="310" y="257" type="line"/>
      <point x="310" y="407" type="line" smooth="yes"/>
      <point x="310" y="468"/>
      <point x="334" y="502"/>
      <point x="378" y="502" type="curve" smooth="yes"/>
      <point x="420" y="502"/>
      <point x="447" y="468"/>
      <point x="447" y="407" type="curve" smooth="yes"/>
      <point x="447" y="-16" type="line" smooth="yes"/>
      <point x="447" y="-136"/>
      <point x="394" y="-200"/>
      <point x="288" y="-200" type="curve" smooth="yes"/>
      <point x="186" y="-200"/>
      <point x="146" y="-128"/>
      <point x="146" y="-44" type="curve" smooth="yes"/>
      <point x="146" y="18"/>
      <point x="159" y="55"/>
      <point x="178" y="85" type="curve"/>
      <point x="164" y="94"/>
      <point x="151" y="98"/>
      <point x="138" y="98" type="curve" smooth="yes"/>
      <point x="95" y="98"/>
      <point x="52" y="44"/>
      <point x="52" y="-33" type="curve" smooth="yes"/>
      <point x="52" y="-156"/>
      <point x="140" y="-252"/>
    </contour>
  </outline>
</glyph>
<glyph name="phar-georgian" format="2">
  <advance width="855"/>
  <unicode hex="10E4"/>
  <note>
uni10E4
</note>
  <outline>
    <contour>
      <point x="526" y="-252" type="curve" smooth="yes"/>
      <point x="679" y="-252"/>
      <point x="787" y="-167"/>
      <point x="787" y="-34" type="curve" smooth="yes"/>
      <point x="787" y="64"/>
      <point x="741" y="138"/>
      <point x="649" y="151" type="curve"/>
      <point x="649" y="156" type="line"/>
      <point x="741" y="178"/>
      <point x="800" y="247"/>
      <point x="800" y="346" type="curve" smooth="yes"/>
      <point x="800" y="446"/>
      <point x="731" y="548"/>
      <point x="598" y="548" type="curve" smooth="yes"/>
      <point x="524" y="548"/>
      <point x="465" y="500"/>
      <point x="445" y="438" type="curve"/>
      <point x="441" y="438" type="line"/>
      <point x="421" y="500"/>
      <point x="351" y="548"/>
      <point x="275" y="548" type="curve" smooth="yes"/>
      <point x="126" y="548"/>
      <point x="55" y="454"/>
      <point x="55" y="301" type="curve" smooth="yes"/>
      <point x="55" y="159"/>
      <point x="128" y="60"/>
      <point x="273" y="60" type="curve" smooth="yes"/>
      <point x="424" y="60"/>
      <point x="494" y="153"/>
      <point x="494" y="302" type="curve" smooth="yes"/>
      <point x="494" y="341" type="line" smooth="yes"/>
      <point x="494" y="449"/>
      <point x="531" y="497"/>
      <point x="594" y="497" type="curve" smooth="yes"/>
      <point x="672" y="497"/>
      <point x="705" y="432"/>
      <point x="705" y="341" type="curve"/>
      <point x="705" y="238"/>
      <point x="663" y="180"/>
      <point x="578" y="180" type="curve" smooth="yes"/>
      <point x="553" y="180" type="line"/>
      <point x="553" y="126" type="line"/>
      <point x="578" y="126" type="line" smooth="yes"/>
      <point x="648" y="126"/>
      <point x="690" y="62"/>
      <point x="690" y="-33" type="curve" smooth="yes"/>
      <point x="690" y="-131"/>
      <point x="638" y="-200"/>
      <point x="525" y="-200" type="curve" smooth="yes"/>
      <point x="417" y="-200"/>
      <point x="368" y="-140"/>
      <point x="368" y="-77" type="curve" smooth="yes"/>
      <point x="368" y="-63"/>
      <point x="369" y="-49"/>
      <point x="372" y="-35" type="curve"/>
      <point x="359" y="-27"/>
      <point x="345" y="-22"/>
      <point x="331" y="-22" type="curve" smooth="yes"/>
      <point x="299" y="-22"/>
      <point x="271" y="-44"/>
      <point x="271" y="-90" type="curve" smooth="yes"/>
      <point x="271" y="-179"/>
      <point x="378" y="-252"/>
    </contour>
    <contour>
      <point x="275" y="112" type="curve" smooth="yes"/>
      <point x="183" y="112"/>
      <point x="152" y="189"/>
      <point x="152" y="301" type="curve" smooth="yes"/>
      <point x="152" y="418"/>
      <point x="183" y="496"/>
      <point x="275" y="496" type="curve" smooth="yes"/>
      <point x="377" y="496"/>
      <point x="400" y="407"/>
      <point x="400" y="302" type="curve" smooth="yes"/>
      <point x="400" y="215"/>
      <point x="378" y="112"/>
    </contour>
  </outline>
</glyph>
<glyph name="khar-georgian" format="2">
  <advance width="578"/>
  <unicode hex="10E5"/>
  <note>
uni10E5
</note>
  <outline>
    <contour>
      <point x="267" y="-252" type="curve" smooth="yes"/>
      <point x="398" y="-252"/>
      <point x="488" y="-167"/>
      <point x="488" y="-4" type="curve" smooth="yes"/>
      <point x="488" y="760" type="line"/>
      <point x="324" y="760" type="line"/>
      <point x="324" y="718" type="line"/>
      <point x="332" y="718" type="line" smooth="yes"/>
      <point x="366" y="718"/>
      <point x="394" y="709"/>
      <point x="394" y="660" type="curve" smooth="yes"/>
      <point x="394" y="568" type="line" smooth="yes"/>
      <point x="394" y="536"/>
      <point x="396" y="491"/>
      <point x="400" y="458" type="curve"/>
      <point x="394" y="458" type="line"/>
      <point x="366" y="510"/>
      <point x="316" y="548"/>
      <point x="243" y="548" type="curve" smooth="yes"/>
      <point x="150" y="548"/>
      <point x="71" y="473"/>
      <point x="71" y="382" type="curve" smooth="yes"/>
      <point x="71" y="319"/>
      <point x="105" y="275"/>
      <point x="144" y="275" type="curve" smooth="yes"/>
      <point x="154" y="275"/>
      <point x="165" y="277"/>
      <point x="177" y="283" type="curve"/>
      <point x="165" y="311"/>
      <point x="160" y="338"/>
      <point x="160" y="367" type="curve" smooth="yes"/>
      <point x="160" y="441"/>
      <point x="205" y="485"/>
      <point x="258" y="485" type="curve" smooth="yes"/>
      <point x="362" y="485"/>
      <point x="394" y="406"/>
      <point x="394" y="267" type="curve" smooth="yes"/>
      <point x="394" y="-3" type="line" smooth="yes"/>
      <point x="394" y="-131"/>
      <point x="357" y="-200"/>
      <point x="266" y="-200" type="curve" smooth="yes"/>
      <point x="174" y="-200"/>
      <point x="144" y="-128"/>
      <point x="144" y="-44" type="curve" smooth="yes"/>
      <point x="144" y="18"/>
      <point x="157" y="55"/>
      <point x="176" y="85" type="curve"/>
      <point x="162" y="94"/>
      <point x="149" y="98"/>
      <point x="136" y="98" type="curve" smooth="yes"/>
      <point x="93" y="98"/>
      <point x="50" y="44"/>
      <point x="50" y="-33" type="curve" smooth="yes"/>
      <point x="50" y="-167"/>
      <point x="128" y="-252"/>
    </contour>
  </outline>
</glyph>
<glyph name="ghan-georgian" format="2">
  <advance width="815"/>
  <unicode hex="10E6"/>
  <note>
uni10E6
</note>
  <outline>
    <contour>
      <point x="534" y="-252" type="curve"/>
      <point x="569" y="-252"/>
      <point x="593" y="-234"/>
      <point x="593" y="-201" type="curve" smooth="yes"/>
      <point x="593" y="-144"/>
      <point x="523" y="-99"/>
      <point x="405" y="-66" type="curve" smooth="yes"/>
      <point x="281" y="-31"/>
      <point x="152" y="38"/>
      <point x="152" y="279" type="curve" smooth="yes"/>
      <point x="152" y="380"/>
      <point x="163" y="494"/>
      <point x="264" y="494" type="curve" smooth="yes"/>
      <point x="336" y="494"/>
      <point x="360" y="441"/>
      <point x="360" y="305" type="curve" smooth="yes"/>
      <point x="360" y="180" type="line"/>
      <point x="454" y="180" type="line"/>
      <point x="454" y="305" type="line" smooth="yes"/>
      <point x="454" y="441"/>
      <point x="479" y="494"/>
      <point x="552" y="494" type="curve" smooth="yes"/>
      <point x="636" y="494"/>
      <point x="663" y="411"/>
      <point x="663" y="267" type="curve" smooth="yes"/>
      <point x="663" y="127"/>
      <point x="641" y="53"/>
      <point x="588" y="27" type="curve"/>
      <point x="588" y="12"/>
      <point x="601" y="0"/>
      <point x="618" y="0" type="curve" smooth="yes"/>
      <point x="708" y="0"/>
      <point x="760" y="146"/>
      <point x="760" y="267" type="curve" smooth="yes"/>
      <point x="760" y="419"/>
      <point x="706" y="548"/>
      <point x="559" y="548" type="curve" smooth="yes"/>
      <point x="482" y="548"/>
      <point x="428" y="502"/>
      <point x="410" y="440" type="curve"/>
      <point x="406" y="440" type="line"/>
      <point x="386" y="502"/>
      <point x="333" y="548"/>
      <point x="257" y="548" type="curve" smooth="yes"/>
      <point x="124" y="548"/>
      <point x="55" y="440"/>
      <point x="55" y="279" type="curve" smooth="yes"/>
      <point x="55" y="79"/>
      <point x="148" y="-19"/>
      <point x="270" y="-80" type="curve"/>
      <point x="270" y="-84" type="line"/>
      <point x="228" y="-87"/>
      <point x="176" y="-107"/>
      <point x="141" y="-131" type="curve"/>
      <point x="161" y="-161" type="line"/>
      <point x="207" y="-136"/>
      <point x="258" y="-126"/>
      <point x="324" y="-126" type="curve" smooth="yes"/>
      <point x="425" y="-126"/>
      <point x="534" y="-164"/>
    </contour>
  </outline>
</glyph>
<glyph name="qar-georgian" format="2">
  <advance width="578"/>
  <unicode hex="10E7"/>
  <note>
uni10E7
</note>
  <outline>
    <contour>
      <point x="270" y="-252" type="curve" smooth="yes"/>
      <point x="403" y="-252"/>
      <point x="493" y="-167"/>
      <point x="493" y="-14" type="curve" smooth="yes"/>
      <point x="493" y="536" type="line"/>
      <point x="399" y="536" type="line"/>
      <point x="399" y="466" type="line" smooth="yes"/>
      <point x="399" y="327"/>
      <point x="364" y="248"/>
      <point x="268" y="248" type="curve" smooth="yes"/>
      <point x="200" y="248"/>
      <point x="157" y="292"/>
      <point x="157" y="396" type="curve" smooth="yes"/>
      <point x="157" y="465"/>
      <point x="175" y="503"/>
      <point x="188" y="531" type="curve"/>
      <point x="175" y="538"/>
      <point x="164" y="541"/>
      <point x="154" y="541" type="curve" smooth="yes"/>
      <point x="115" y="541"/>
      <point x="64" y="484"/>
      <point x="64" y="381" type="curve" smooth="yes"/>
      <point x="64" y="260"/>
      <point x="145" y="185"/>
      <point x="243" y="185" type="curve" smooth="yes"/>
      <point x="321" y="185"/>
      <point x="371" y="223"/>
      <point x="399" y="275" type="curve"/>
      <point x="405" y="275" type="line"/>
      <point x="401" y="218"/>
      <point x="399" y="184"/>
      <point x="399" y="175" type="curve" smooth="yes"/>
      <point x="399" y="-13" type="line" smooth="yes"/>
      <point x="399" y="-131"/>
      <point x="362" y="-200"/>
      <point x="269" y="-200" type="curve" smooth="yes"/>
      <point x="184" y="-200"/>
      <point x="149" y="-128"/>
      <point x="149" y="-54" type="curve" smooth="yes"/>
      <point x="149" y="-12"/>
      <point x="158" y="25"/>
      <point x="176" y="55" type="curve"/>
      <point x="162" y="64"/>
      <point x="149" y="68"/>
      <point x="136" y="68" type="curve" smooth="yes"/>
      <point x="93" y="68"/>
      <point x="55" y="17"/>
      <point x="55" y="-45" type="curve" smooth="yes"/>
      <point x="55" y="-167"/>
      <point x="138" y="-252"/>
    </contour>
  </outline>
</glyph>
<glyph name="shin-georgian" format="2">
  <advance width="599"/>
  <unicode hex="10E8"/>
  <note>
uni10E8
</note>
  <outline>
    <contour>
      <point x="288" y="-12" type="curve" smooth="yes"/>
      <point x="429" y="-12"/>
      <point x="514" y="73"/>
      <point x="514" y="256" type="curve" smooth="yes"/>
      <point x="514" y="588" type="line" smooth="yes"/>
      <point x="514" y="700"/>
      <point x="469" y="772"/>
      <point x="364" y="772" type="curve" smooth="yes"/>
      <point x="322" y="772"/>
      <point x="280" y="754"/>
      <point x="261" y="714" type="curve"/>
      <point x="257" y="714" type="line"/>
      <point x="237" y="754"/>
      <point x="198" y="772"/>
      <point x="150" y="772" type="curve" smooth="yes"/>
      <point x="64" y="772"/>
      <point x="15" y="718"/>
      <point x="15" y="656" type="curve" smooth="yes"/>
      <point x="15" y="607"/>
      <point x="45" y="581"/>
      <point x="74" y="581" type="curve" smooth="yes"/>
      <point x="89" y="581"/>
      <point x="102" y="584"/>
      <point x="113" y="587" type="curve"/>
      <point x="109" y="598"/>
      <point x="103" y="620"/>
      <point x="103" y="648" type="curve" smooth="yes"/>
      <point x="103" y="697"/>
      <point x="124" y="726"/>
      <point x="158" y="726" type="curve" smooth="yes"/>
      <point x="197" y="726"/>
      <point x="213" y="701"/>
      <point x="213" y="641" type="curve" smooth="yes"/>
      <point x="213" y="591" type="line"/>
      <point x="302" y="591" type="line"/>
      <point x="302" y="641" type="line" smooth="yes"/>
      <point x="302" y="692"/>
      <point x="317" y="726"/>
      <point x="361" y="726" type="curve" smooth="yes"/>
      <point x="403" y="726"/>
      <point x="420" y="692"/>
      <point x="420" y="631" type="curve" smooth="yes"/>
      <point x="420" y="538" type="line" smooth="yes"/>
      <point x="420" y="506"/>
      <point x="422" y="461"/>
      <point x="426" y="428" type="curve"/>
      <point x="420" y="428" type="line"/>
      <point x="391" y="480"/>
      <point x="344" y="516"/>
      <point x="267" y="516" type="curve" smooth="yes"/>
      <point x="135" y="516"/>
      <point x="63" y="430"/>
      <point x="63" y="257" type="curve" smooth="yes"/>
      <point x="63" y="73"/>
      <point x="135" y="-12"/>
    </contour>
    <contour>
      <point x="287" y="40" type="curve" smooth="yes"/>
      <point x="195" y="40"/>
      <point x="160" y="110"/>
      <point x="160" y="256" type="curve" smooth="yes"/>
      <point x="160" y="376"/>
      <point x="195" y="453"/>
      <point x="283" y="453" type="curve" smooth="yes"/>
      <point x="388" y="453"/>
      <point x="420" y="376"/>
      <point x="420" y="257" type="curve" smooth="yes"/>
      <point x="420" y="109"/>
      <point x="388" y="40"/>
    </contour>
  </outline>
</glyph>
<glyph name="chin-georgian" format="2">
  <advance width="586"/>
  <unicode hex="10E9"/>
  <note>
uni10E9
</note>
  <outline>
    <contour>
      <point x="389" y="-8" type="curve" smooth="yes"/>
      <point x="480" y="-8"/>
      <point x="531" y="142"/>
      <point x="531" y="244" type="curve" smooth="yes"/>
      <point x="531" y="396"/>
      <point x="455" y="478"/>
      <point x="334" y="478" type="curve" smooth="yes"/>
      <point x="271" y="478"/>
      <point x="212" y="440"/>
      <point x="185" y="387" type="curve"/>
      <point x="180" y="387" type="line"/>
      <point x="183" y="425"/>
      <point x="184" y="453"/>
      <point x="184" y="472" type="curve" smooth="yes"/>
      <point x="184" y="489" type="line"/>
      <point x="284" y="530"/>
      <point x="446" y="553"/>
      <point x="446" y="657" type="curve" smooth="yes"/>
      <point x="446" y="734"/>
      <point x="362" y="772"/>
      <point x="274" y="772" type="curve" smooth="yes"/>
      <point x="175" y="772"/>
      <point x="90" y="712"/>
      <point x="90" y="588" type="curve" smooth="yes"/>
      <point x="90" y="0" type="line"/>
      <point x="184" y="0" type="line"/>
      <point x="184" y="274" type="line" smooth="yes"/>
      <point x="184" y="360"/>
      <point x="232" y="414"/>
      <point x="310" y="414" type="curve" smooth="yes"/>
      <point x="389" y="414"/>
      <point x="434" y="361"/>
      <point x="434" y="225" type="curve"/>
      <point x="434" y="116"/>
      <point x="409" y="44"/>
      <point x="359" y="19" type="curve"/>
      <point x="359" y="4"/>
      <point x="372" y="-8"/>
    </contour>
    <contour>
      <point x="184" y="529" type="curve"/>
      <point x="184" y="618" type="line" smooth="yes"/>
      <point x="184" y="696"/>
      <point x="232" y="722"/>
      <point x="277" y="722" type="curve" smooth="yes"/>
      <point x="321" y="722"/>
      <point x="352" y="701"/>
      <point x="352" y="657" type="curve" smooth="yes"/>
      <point x="352" y="592"/>
      <point x="274" y="558"/>
    </contour>
  </outline>
</glyph>
<glyph name="can-georgian" format="2">
  <advance width="648"/>
  <unicode hex="10EA"/>
  <note>
uni10EA
</note>
  <outline>
    <contour>
      <point x="343" y="-252" type="curve" smooth="yes"/>
      <point x="503" y="-252"/>
      <point x="598" y="-165"/>
      <point x="598" y="-23" type="curve" smooth="yes"/>
      <point x="598" y="90"/>
      <point x="541" y="165"/>
      <point x="447" y="176" type="curve"/>
      <point x="447" y="181" type="line"/>
      <point x="541" y="200"/>
      <point x="581" y="242"/>
      <point x="581" y="306" type="curve" smooth="yes"/>
      <point x="581" y="358"/>
      <point x="540" y="387"/>
      <point x="503" y="413" type="curve" smooth="yes"/>
      <point x="470" y="436"/>
      <point x="439" y="460"/>
      <point x="439" y="502" type="curve" smooth="yes"/>
      <point x="439" y="512"/>
      <point x="441" y="523"/>
      <point x="446" y="536" type="curve"/>
      <point x="438" y="543"/>
      <point x="427" y="548"/>
      <point x="412" y="548" type="curve" smooth="yes"/>
      <point x="378" y="548"/>
      <point x="357" y="526"/>
      <point x="357" y="496" type="curve" smooth="yes"/>
      <point x="357" y="442"/>
      <point x="388" y="413"/>
      <point x="420" y="388" type="curve" smooth="yes"/>
      <point x="453" y="362"/>
      <point x="484" y="337"/>
      <point x="484" y="296" type="curve" smooth="yes"/>
      <point x="484" y="238"/>
      <point x="450" y="206"/>
      <point x="363" y="206" type="curve" smooth="yes"/>
      <point x="321" y="206" type="line"/>
      <point x="321" y="152" type="line"/>
      <point x="363" y="152" type="line" smooth="yes"/>
      <point x="449" y="152"/>
      <point x="501" y="96"/>
      <point x="501" y="-26" type="curve" smooth="yes"/>
      <point x="501" y="-137"/>
      <point x="446" y="-200"/>
      <point x="343" y="-200" type="curve" smooth="yes"/>
      <point x="198" y="-200"/>
      <point x="153" y="-70"/>
      <point x="153" y="157" type="curve" smooth="yes"/>
      <point x="153" y="340"/>
      <point x="201" y="435"/>
      <point x="245" y="513" type="curve"/>
      <point x="203" y="546" type="line"/>
      <point x="129" y="474"/>
      <point x="55" y="342"/>
      <point x="55" y="157" type="curve" smooth="yes"/>
      <point x="55" y="-120"/>
      <point x="161" y="-252"/>
    </contour>
  </outline>
</glyph>
<glyph name="jil-georgian" format="2">
  <advance width="596"/>
  <unicode hex="10EB"/>
  <note>
uni10EB
</note>
  <outline>
    <contour>
      <point x="280" y="-12" type="curve" smooth="yes"/>
      <point x="421" y="-12"/>
      <point x="506" y="73"/>
      <point x="506" y="266" type="curve"/>
      <point x="506" y="760" type="line"/>
      <point x="342" y="760" type="line"/>
      <point x="342" y="718" type="line"/>
      <point x="350" y="718" type="line" smooth="yes"/>
      <point x="384" y="718"/>
      <point x="412" y="709"/>
      <point x="412" y="660" type="curve" smooth="yes"/>
      <point x="412" y="568" type="line"/>
      <point x="412" y="536"/>
      <point x="414" y="491"/>
      <point x="418" y="458" type="curve"/>
      <point x="412" y="458" type="line"/>
      <point x="383" y="510"/>
      <point x="336" y="546"/>
      <point x="259" y="546" type="curve" smooth="yes"/>
      <point x="127" y="546"/>
      <point x="55" y="460"/>
      <point x="55" y="267" type="curve" smooth="yes"/>
      <point x="55" y="73"/>
      <point x="127" y="-12"/>
    </contour>
    <contour>
      <point x="279" y="40" type="curve" smooth="yes"/>
      <point x="187" y="40"/>
      <point x="152" y="110"/>
      <point x="152" y="266" type="curve" smooth="yes"/>
      <point x="152" y="406"/>
      <point x="187" y="483"/>
      <point x="275" y="483" type="curve" smooth="yes"/>
      <point x="380" y="483"/>
      <point x="412" y="406"/>
      <point x="412" y="267" type="curve" smooth="yes"/>
      <point x="412" y="109"/>
      <point x="380" y="40"/>
    </contour>
  </outline>
</glyph>
<glyph name="cil-georgian" format="2">
  <advance width="581"/>
  <unicode hex="10EC"/>
  <note>
uni10EC
</note>
  <guideline x="229" y="123" angle="284.1781"/>
  <outline>
    <contour>
      <point x="240" y="-240" type="line"/>
      <point x="331" y="-240" type="line"/>
      <point x="468" y="123" type="line" smooth="yes"/>
      <point x="502" y="214"/>
      <point x="520" y="284"/>
      <point x="520" y="341" type="curve" smooth="yes"/>
      <point x="520" y="456"/>
      <point x="426" y="516"/>
      <point x="327" y="516" type="curve" smooth="yes"/>
      <point x="244" y="516"/>
      <point x="186" y="470"/>
      <point x="161" y="417" type="curve"/>
      <point x="155" y="417" type="line"/>
      <point x="138" y="485" type="line" smooth="yes"/>
      <point x="129" y="522"/>
      <point x="122" y="567"/>
      <point x="122" y="608" type="curve" smooth="yes"/>
      <point x="122" y="672"/>
      <point x="138" y="726"/>
      <point x="184" y="726" type="curve" smooth="yes"/>
      <point x="230" y="726"/>
      <point x="245" y="692"/>
      <point x="245" y="641" type="curve" smooth="yes"/>
      <point x="245" y="591" type="line"/>
      <point x="334" y="591" type="line"/>
      <point x="334" y="641" type="line" smooth="yes"/>
      <point x="334" y="701"/>
      <point x="353" y="726"/>
      <point x="392" y="726" type="curve" smooth="yes"/>
      <point x="428" y="726"/>
      <point x="449" y="697"/>
      <point x="449" y="648" type="curve" smooth="yes"/>
      <point x="449" y="620"/>
      <point x="443" y="598"/>
      <point x="439" y="587" type="curve"/>
      <point x="450" y="584"/>
      <point x="463" y="581"/>
      <point x="478" y="581" type="curve" smooth="yes"/>
      <point x="507" y="581"/>
      <point x="537" y="607"/>
      <point x="537" y="656" type="curve" smooth="yes"/>
      <point x="537" y="718"/>
      <point x="488" y="772"/>
      <point x="400" y="772" type="curve" smooth="yes"/>
      <point x="352" y="772"/>
      <point x="310" y="754"/>
      <point x="290" y="714" type="curve"/>
      <point x="286" y="714" type="line"/>
      <point x="267" y="754"/>
      <point x="225" y="772"/>
      <point x="181" y="772" type="curve" smooth="yes"/>
      <point x="76" y="772"/>
      <point x="30" y="700"/>
      <point x="30" y="588" type="curve" smooth="yes"/>
      <point x="30" y="517"/>
      <point x="52" y="425"/>
      <point x="79" y="328" type="curve" smooth="yes"/>
    </contour>
    <contour>
      <point x="296" y="-177" type="curve"/>
      <point x="287" y="-140"/>
      <point x="274" y="-70"/>
      <point x="262" y="-20" type="curve" smooth="yes"/>
      <point x="193" y="265" type="line" smooth="yes"/>
      <point x="186" y="292"/>
      <point x="183" y="315"/>
      <point x="183" y="336" type="curve" smooth="yes"/>
      <point x="183" y="414"/>
      <point x="233" y="453"/>
      <point x="304" y="453" type="curve" smooth="yes"/>
      <point x="388" y="453"/>
      <point x="423" y="397"/>
      <point x="423" y="316" type="curve" smooth="yes"/>
      <point x="423" y="253"/>
      <point x="408" y="194"/>
      <point x="395" y="154" type="curve" smooth="yes"/>
      <point x="337" y="-20" type="line" smooth="yes"/>
      <point x="321" y="-69"/>
      <point x="305" y="-140"/>
    </contour>
  </outline>
</glyph>
<glyph name="char-georgian" format="2">
  <advance width="575"/>
  <unicode hex="10ED"/>
  <note>
uni10ED
</note>
  <outline>
    <contour>
      <point x="531" y="494" type="curve" smooth="yes"/>
      <point x="531" y="537"/>
      <point x="500" y="567"/>
      <point x="460" y="567" type="curve" smooth="yes"/>
      <point x="455" y="567"/>
      <point x="451" y="567"/>
      <point x="446" y="566" type="curve"/>
      <point x="449" y="544"/>
      <point x="450" y="524"/>
      <point x="450" y="505" type="curve" smooth="yes"/>
      <point x="450" y="404"/>
      <point x="433" y="339"/>
      <point x="366" y="316" type="curve"/>
      <point x="366" y="760" type="line"/>
      <point x="189" y="760" type="line"/>
      <point x="189" y="718" type="line"/>
      <point x="202" y="718" type="line" smooth="yes"/>
      <point x="243" y="718"/>
      <point x="274" y="705"/>
      <point x="274" y="650" type="curve" smooth="yes"/>
      <point x="274" y="494" type="line"/>
      <point x="251" y="520"/>
      <point x="217" y="536"/>
      <point x="176" y="536" type="curve" smooth="yes"/>
      <point x="115" y="536"/>
      <point x="50" y="497"/>
      <point x="50" y="406" type="curve" smooth="yes"/>
      <point x="50" y="295"/>
      <point x="149" y="258"/>
      <point x="274" y="258" type="curve"/>
      <point x="275" y="198"/>
      <point x="320" y="149"/>
      <point x="361" y="108" type="curve" smooth="yes"/>
      <point x="403" y="66"/>
      <point x="430" y="23"/>
      <point x="430" y="-44" type="curve" smooth="yes"/>
      <point x="430" y="-141"/>
      <point x="379" y="-200"/>
      <point x="288" y="-200" type="curve" smooth="yes"/>
      <point x="198" y="-200"/>
      <point x="160" y="-128"/>
      <point x="160" y="-54" type="curve" smooth="yes"/>
      <point x="160" y="-12"/>
      <point x="169" y="25"/>
      <point x="187" y="55" type="curve"/>
      <point x="173" y="64"/>
      <point x="160" y="68"/>
      <point x="147" y="68" type="curve" smooth="yes"/>
      <point x="104" y="68"/>
      <point x="66" y="17"/>
      <point x="66" y="-45" type="curve" smooth="yes"/>
      <point x="66" y="-167"/>
      <point x="149" y="-252"/>
      <point x="289" y="-252" type="curve" smooth="yes"/>
      <point x="444" y="-252"/>
      <point x="527" y="-173"/>
      <point x="527" y="-47" type="curve" smooth="yes"/>
      <point x="527" y="38"/>
      <point x="472" y="96"/>
      <point x="422" y="145" type="curve" smooth="yes"/>
      <point x="390" y="177"/>
      <point x="366" y="215"/>
      <point x="366" y="268" type="curve"/>
      <point x="479" y="296"/>
      <point x="531" y="394"/>
    </contour>
    <contour>
      <point x="141" y="402" type="curve" smooth="yes"/>
      <point x="141" y="465"/>
      <point x="164" y="491"/>
      <point x="202" y="491" type="curve" smooth="yes"/>
      <point x="246" y="491"/>
      <point x="274" y="468"/>
      <point x="274" y="404" type="curve" smooth="yes"/>
      <point x="274" y="303" type="line"/>
      <point x="201" y="303"/>
      <point x="141" y="320"/>
    </contour>
  </outline>
</glyph>
<glyph name="xan-georgian" format="2">
  <advance width="620"/>
  <unicode hex="10EE"/>
  <note>
uni10EE
</note>
  <outline>
    <contour>
      <point x="361" y="546" type="curve" smooth="yes"/>
      <point x="284" y="546"/>
      <point x="237" y="510"/>
      <point x="208" y="458" type="curve"/>
      <point x="202" y="458" type="line"/>
      <point x="206" y="491"/>
      <point x="208" y="536"/>
      <point x="208" y="568" type="curve" smooth="yes"/>
      <point x="208" y="760" type="line"/>
      <point x="24" y="760" type="line"/>
      <point x="24" y="718" type="line"/>
      <point x="32" y="718" type="line" smooth="yes"/>
      <point x="83" y="718"/>
      <point x="114" y="705"/>
      <point x="114" y="650" type="curve" smooth="yes"/>
      <point x="114" y="266" type="line" smooth="yes"/>
      <point x="114" y="73"/>
      <point x="199" y="-12"/>
      <point x="340" y="-12" type="curve" smooth="yes"/>
      <point x="493" y="-12"/>
      <point x="565" y="73"/>
      <point x="565" y="267" type="curve" smooth="yes"/>
      <point x="565" y="460"/>
      <point x="493" y="546"/>
    </contour>
    <contour>
      <point x="341" y="40" type="curve" smooth="yes"/>
      <point x="240" y="40"/>
      <point x="208" y="109"/>
      <point x="208" y="267" type="curve" smooth="yes"/>
      <point x="208" y="406"/>
      <point x="240" y="483"/>
      <point x="345" y="483" type="curve" smooth="yes"/>
      <point x="433" y="483"/>
      <point x="468" y="406"/>
      <point x="468" y="266" type="curve" smooth="yes"/>
      <point x="468" y="110"/>
      <point x="433" y="40"/>
    </contour>
  </outline>
</glyph>
<glyph name="jhan-georgian" format="2">
  <advance width="739"/>
  <unicode hex="10EF"/>
  <note>
uni10EF
</note>
  <outline>
    <contour>
      <point x="616" y="203" type="curve" smooth="yes"/>
      <point x="606" y="203"/>
      <point x="595" y="201"/>
      <point x="583" y="195" type="curve"/>
      <point x="595" y="167"/>
      <point x="600" y="150"/>
      <point x="600" y="121" type="curve" smooth="yes"/>
      <point x="600" y="71"/>
      <point x="576" y="40"/>
      <point x="532" y="40" type="curve" smooth="yes"/>
      <point x="479" y="40"/>
      <point x="464" y="85"/>
      <point x="448" y="145" type="curve" smooth="yes"/>
      <point x="422" y="245" type="line"/>
      <point x="543" y="298"/>
      <point x="657" y="348"/>
      <point x="657" y="445" type="curve" smooth="yes"/>
      <point x="657" y="507"/>
      <point x="603" y="548"/>
      <point x="544" y="548" type="curve" smooth="yes"/>
      <point x="503" y="548"/>
      <point x="465" y="532"/>
      <point x="465" y="507" type="curve" smooth="yes"/>
      <point x="465" y="499"/>
      <point x="468" y="490"/>
      <point x="474" y="481" type="curve"/>
      <point x="490" y="492"/>
      <point x="505" y="495"/>
      <point x="519" y="495" type="curve" smooth="yes"/>
      <point x="553" y="495"/>
      <point x="570" y="470"/>
      <point x="570" y="439" type="curve" smooth="yes"/>
      <point x="570" y="374"/>
      <point x="495" y="335"/>
      <point x="408" y="298" type="curve"/>
      <point x="380" y="407" type="line" smooth="yes"/>
      <point x="361" y="479"/>
      <point x="315" y="548"/>
      <point x="212" y="548" type="curve" smooth="yes"/>
      <point x="131" y="548"/>
      <point x="56" y="497"/>
      <point x="56" y="420" type="curve" smooth="yes"/>
      <point x="56" y="367"/>
      <point x="90" y="333"/>
      <point x="129" y="333" type="curve" smooth="yes"/>
      <point x="139" y="333"/>
      <point x="150" y="335"/>
      <point x="162" y="341" type="curve"/>
      <point x="150" y="369"/>
      <point x="145" y="386"/>
      <point x="145" y="415" type="curve" smooth="yes"/>
      <point x="145" y="465"/>
      <point x="169" y="496"/>
      <point x="212" y="496" type="curve" smooth="yes"/>
      <point x="263" y="496"/>
      <point x="275" y="451"/>
      <point x="290" y="391" type="curve" smooth="yes"/>
      <point x="323" y="261" type="line"/>
      <point x="243" y="223"/>
      <point x="171" y="172"/>
      <point x="125" y="77" type="curve"/>
      <point x="125" y="13" type="line"/>
      <point x="164" y="13" type="line" smooth="yes"/>
      <point x="227" y="13"/>
      <point x="256" y="-27"/>
      <point x="256" y="-102" type="curve" smooth="yes"/>
      <point x="256" y="-179"/>
      <point x="220" y="-205"/>
      <point x="179" y="-205" type="curve" smooth="yes"/>
      <point x="136" y="-205"/>
      <point x="104" y="-173"/>
      <point x="104" y="-115" type="curve" smooth="yes"/>
      <point x="104" y="-100"/>
      <point x="106" y="-84"/>
      <point x="110" y="-67" type="curve"/>
      <point x="102" y="-64"/>
      <point x="87" y="-62"/>
      <point x="80" y="-62" type="curve" smooth="yes"/>
      <point x="45" y="-62"/>
      <point x="20" y="-95"/>
      <point x="20" y="-129" type="curve" smooth="yes"/>
      <point x="20" y="-205"/>
      <point x="89" y="-252"/>
      <point x="178" y="-252" type="curve" smooth="yes"/>
      <point x="267" y="-252"/>
      <point x="342" y="-196"/>
      <point x="342" y="-104" type="curve" smooth="yes"/>
      <point x="342" y="-5"/>
      <point x="275" y="59"/>
      <point x="175" y="59" type="curve"/>
      <point x="175" y="63" type="line"/>
      <point x="210" y="130"/>
      <point x="268" y="171"/>
      <point x="337" y="206" type="curve"/>
      <point x="357" y="127" type="line" smooth="yes"/>
      <point x="375" y="55"/>
      <point x="424" y="-12"/>
      <point x="532" y="-12" type="curve" smooth="yes"/>
      <point x="614" y="-12"/>
      <point x="689" y="39"/>
      <point x="689" y="116" type="curve" smooth="yes"/>
      <point x="689" y="169"/>
      <point x="655" y="203"/>
    </contour>
  </outline>
</glyph>
<glyph name="hae-georgian" format="2">
  <advance width="524"/>
  <unicode hex="10F0"/>
  <note>
uni10F0
</note>
  <outline>
    <contour>
      <point x="256" y="-12" type="curve" smooth="yes"/>
      <point x="377" y="-12"/>
      <point x="469" y="37"/>
      <point x="469" y="131" type="curve" smooth="yes"/>
      <point x="469" y="197"/>
      <point x="420" y="241"/>
      <point x="341" y="254" type="curve"/>
      <point x="341" y="257" type="line"/>
      <point x="420" y="271"/>
      <point x="459" y="306"/>
      <point x="459" y="359" type="curve" smooth="yes"/>
      <point x="459" y="412"/>
      <point x="420" y="445"/>
      <point x="341" y="459" type="curve"/>
      <point x="341" y="462" type="line"/>
      <point x="415" y="474"/>
      <point x="451" y="500"/>
      <point x="451" y="565" type="curve" smooth="yes"/>
      <point x="451" y="617"/>
      <point x="381" y="654"/>
      <point x="320" y="681" type="curve" smooth="yes"/>
      <point x="290" y="694"/>
      <point x="266" y="712"/>
      <point x="266" y="735" type="curve" smooth="yes"/>
      <point x="266" y="743"/>
      <point x="267" y="749"/>
      <point x="271" y="760" type="curve"/>
      <point x="263" y="767"/>
      <point x="252" y="772"/>
      <point x="237" y="772" type="curve" smooth="yes"/>
      <point x="203" y="772"/>
      <point x="184" y="753"/>
      <point x="184" y="727" type="curve" smooth="yes"/>
      <point x="184" y="677"/>
      <point x="226" y="655"/>
      <point x="268" y="636" type="curve" smooth="yes"/>
      <point x="312" y="616"/>
      <point x="357" y="594"/>
      <point x="357" y="558" type="curve" smooth="yes"/>
      <point x="357" y="510"/>
      <point x="328" y="488"/>
      <point x="271" y="488" type="curve" smooth="yes"/>
      <point x="212" y="488" type="line"/>
      <point x="212" y="434" type="line"/>
      <point x="250" y="434" type="line" smooth="yes"/>
      <point x="328" y="434"/>
      <point x="365" y="413"/>
      <point x="365" y="359" type="curve" smooth="yes"/>
      <point x="365" y="311"/>
      <point x="328" y="283"/>
      <point x="256" y="283" type="curve" smooth="yes"/>
      <point x="212" y="283" type="line"/>
      <point x="212" y="229" type="line"/>
      <point x="255" y="229" type="line" smooth="yes"/>
      <point x="329" y="229"/>
      <point x="372" y="198"/>
      <point x="372" y="131" type="curve" smooth="yes"/>
      <point x="372" y="73"/>
      <point x="329" y="40"/>
      <point x="256" y="40" type="curve" smooth="yes"/>
      <point x="184" y="40"/>
      <point x="132" y="76"/>
      <point x="132" y="138" type="curve" smooth="yes"/>
      <point x="132" y="146"/>
      <point x="132" y="154"/>
      <point x="134" y="162" type="curve"/>
      <point x="127" y="165"/>
      <point x="116" y="167"/>
      <point x="104" y="167" type="curve" smooth="yes"/>
      <point x="68" y="167"/>
      <point x="50" y="135"/>
      <point x="50" y="108" type="curve" smooth="yes"/>
      <point x="50" y="29"/>
      <point x="141" y="-12"/>
    </contour>
  </outline>
</glyph>
<glyph name="he-georgian" format="2">
  <advance width="653"/>
  <unicode hex="10F1"/>
  <note>
uni10F1
</note>
  <outline>
    <contour>
      <point x="373" y="-12" type="curve" smooth="yes"/>
      <point x="503" y="-12"/>
      <point x="598" y="39"/>
      <point x="598" y="141" type="curve" smooth="yes"/>
      <point x="598" y="197"/>
      <point x="549" y="241"/>
      <point x="470" y="254" type="curve"/>
      <point x="470" y="257" type="line"/>
      <point x="549" y="271"/>
      <point x="588" y="306"/>
      <point x="588" y="359" type="curve" smooth="yes"/>
      <point x="588" y="412"/>
      <point x="549" y="445"/>
      <point x="470" y="459" type="curve"/>
      <point x="470" y="462" type="line"/>
      <point x="544" y="474"/>
      <point x="580" y="500"/>
      <point x="580" y="565" type="curve" smooth="yes"/>
      <point x="580" y="620"/>
      <point x="529" y="651"/>
      <point x="488" y="674" type="curve" smooth="yes"/>
      <point x="455" y="692"/>
      <point x="435" y="708"/>
      <point x="435" y="735" type="curve" smooth="yes"/>
      <point x="435" y="743"/>
      <point x="436" y="749"/>
      <point x="440" y="760" type="curve"/>
      <point x="432" y="767"/>
      <point x="421" y="772"/>
      <point x="406" y="772" type="curve" smooth="yes"/>
      <point x="372" y="772"/>
      <point x="353" y="753"/>
      <point x="353" y="727" type="curve" smooth="yes"/>
      <point x="353" y="681"/>
      <point x="388" y="656"/>
      <point x="424" y="635" type="curve" smooth="yes"/>
      <point x="458" y="615"/>
      <point x="486" y="595"/>
      <point x="486" y="558" type="curve" smooth="yes"/>
      <point x="486" y="510"/>
      <point x="457" y="488"/>
      <point x="400" y="488" type="curve" smooth="yes"/>
      <point x="341" y="488" type="line"/>
      <point x="341" y="434" type="line"/>
      <point x="379" y="434" type="line" smooth="yes"/>
      <point x="457" y="434"/>
      <point x="494" y="413"/>
      <point x="494" y="359" type="curve" smooth="yes"/>
      <point x="494" y="311"/>
      <point x="457" y="283"/>
      <point x="385" y="283" type="curve" smooth="yes"/>
      <point x="341" y="283" type="line"/>
      <point x="341" y="229" type="line"/>
      <point x="384" y="229" type="line" smooth="yes"/>
      <point x="458" y="229"/>
      <point x="501" y="198"/>
      <point x="501" y="141" type="curve" smooth="yes"/>
      <point x="501" y="70"/>
      <point x="446" y="40"/>
      <point x="373" y="40" type="curve" smooth="yes"/>
      <point x="198" y="40"/>
      <point x="153" y="170"/>
      <point x="153" y="397" type="curve" smooth="yes"/>
      <point x="153" y="566"/>
      <point x="201" y="661"/>
      <point x="245" y="739" type="curve"/>
      <point x="203" y="772" type="line"/>
      <point x="129" y="700"/>
      <point x="55" y="568"/>
      <point x="55" y="397" type="curve" smooth="yes"/>
      <point x="55" y="120"/>
      <point x="161" y="-12"/>
    </contour>
  </outline>
</glyph>
<glyph name="hie-georgian" format="2">
  <advance width="577"/>
  <unicode hex="10F2"/>
  <note>
uni10F2
</note>
  <outline>
    <contour>
      <point x="108" y="-12" type="curve" smooth="yes"/>
      <point x="139" y="-12"/>
      <point x="222" y="22"/>
      <point x="288" y="54" type="curve"/>
      <point x="353" y="23"/>
      <point x="438" y="-12"/>
      <point x="469" y="-12" type="curve" smooth="yes"/>
      <point x="504" y="-12"/>
      <point x="517" y="11"/>
      <point x="519" y="51" type="curve"/>
      <point x="455" y="51"/>
      <point x="430" y="55"/>
      <point x="351" y="88" type="curve"/>
      <point x="467" y="148"/>
      <point x="522" y="227"/>
      <point x="522" y="340" type="curve" smooth="yes"/>
      <point x="522" y="450"/>
      <point x="438" y="548"/>
      <point x="290" y="548" type="curve" smooth="yes"/>
      <point x="144" y="548"/>
      <point x="55" y="448"/>
      <point x="55" y="340" type="curve" smooth="yes"/>
      <point x="55" y="229"/>
      <point x="108" y="150"/>
      <point x="225" y="88" type="curve"/>
      <point x="153" y="57"/>
      <point x="126" y="51"/>
      <point x="58" y="51" type="curve"/>
      <point x="59" y="7"/>
      <point x="76" y="-12"/>
    </contour>
    <contour>
      <point x="288" y="119" type="curve"/>
      <point x="197" y="164"/>
      <point x="152" y="240"/>
      <point x="152" y="339" type="curve" smooth="yes"/>
      <point x="152" y="415"/>
      <point x="203" y="496"/>
      <point x="288" y="496" type="curve" smooth="yes"/>
      <point x="374" y="496"/>
      <point x="425" y="417"/>
      <point x="425" y="339" type="curve" smooth="yes"/>
      <point x="425" y="242"/>
      <point x="380" y="166"/>
    </contour>
  </outline>
</glyph>
<glyph name="we-georgian" format="2">
  <advance width="556"/>
  <unicode hex="10F3"/>
  <note>
uni10F3
</note>
  <outline>
    <contour>
      <point x="275" y="-252" type="curve" smooth="yes"/>
      <point x="408" y="-252"/>
      <point x="506" y="-167"/>
      <point x="506" y="-24" type="curve" smooth="yes"/>
      <point x="506" y="163"/>
      <point x="401" y="219"/>
      <point x="294" y="227" type="curve"/>
      <point x="480" y="487" type="line"/>
      <point x="480" y="536" type="line"/>
      <point x="92" y="536" type="line"/>
      <point x="86" y="389" type="line"/>
      <point x="135" y="389" type="line"/>
      <point x="137" y="403" type="line" smooth="yes"/>
      <point x="144" y="449"/>
      <point x="155" y="466"/>
      <point x="202" y="466" type="curve" smooth="yes"/>
      <point x="392" y="466" type="line"/>
      <point x="216" y="215" type="line"/>
      <point x="216" y="174" type="line"/>
      <point x="239" y="174" type="line" smooth="yes"/>
      <point x="343" y="174"/>
      <point x="409" y="117"/>
      <point x="409" y="-23" type="curve" smooth="yes"/>
      <point x="409" y="-131"/>
      <point x="367" y="-200"/>
      <point x="274" y="-200" type="curve" smooth="yes"/>
      <point x="184" y="-200"/>
      <point x="144" y="-128"/>
      <point x="144" y="-54" type="curve" smooth="yes"/>
      <point x="144" y="-12"/>
      <point x="153" y="25"/>
      <point x="171" y="55" type="curve"/>
      <point x="157" y="64"/>
      <point x="144" y="68"/>
      <point x="131" y="68" type="curve" smooth="yes"/>
      <point x="88" y="68"/>
      <point x="50" y="17"/>
      <point x="50" y="-45" type="curve" smooth="yes"/>
      <point x="50" y="-167"/>
      <point x="138" y="-252"/>
    </contour>
  </outline>
</glyph>
<glyph name="har-georgian" format="2">
  <advance width="549"/>
  <unicode hex="10F4"/>
  <note>
uni10F4
</note>
  <outline>
    <contour>
      <point x="276" y="-252" type="curve" smooth="yes"/>
      <point x="409" y="-252"/>
      <point x="499" y="-167"/>
      <point x="499" y="-24" type="curve" smooth="yes"/>
      <point x="499" y="110"/>
      <point x="418" y="201"/>
      <point x="280" y="207" type="curve"/>
      <point x="476" y="441" type="line"/>
      <point x="476" y="490" type="line"/>
      <point x="278" y="490" type="line" smooth="yes"/>
      <point x="182" y="490"/>
      <point x="137" y="532"/>
      <point x="137" y="610" type="curve" smooth="yes"/>
      <point x="137" y="679"/>
      <point x="175" y="724"/>
      <point x="243" y="724" type="curve" smooth="yes"/>
      <point x="310" y="724"/>
      <point x="351" y="681"/>
      <point x="351" y="597" type="curve"/>
      <point x="404" y="597"/>
      <point x="430" y="614"/>
      <point x="430" y="654" type="curve" smooth="yes"/>
      <point x="430" y="728"/>
      <point x="337" y="772"/>
      <point x="244" y="772" type="curve" smooth="yes"/>
      <point x="122" y="772"/>
      <point x="50" y="696"/>
      <point x="50" y="598" type="curve" smooth="yes"/>
      <point x="50" y="498"/>
      <point x="119" y="416"/>
      <point x="277" y="416" type="curve" smooth="yes"/>
      <point x="383" y="416" type="line"/>
      <point x="202" y="195" type="line"/>
      <point x="202" y="154" type="line"/>
      <point x="225" y="154" type="line" smooth="yes"/>
      <point x="338" y="154"/>
      <point x="405" y="88"/>
      <point x="405" y="-23" type="curve" smooth="yes"/>
      <point x="405" y="-131"/>
      <point x="368" y="-200"/>
      <point x="275" y="-200" type="curve" smooth="yes"/>
      <point x="185" y="-200"/>
      <point x="150" y="-128"/>
      <point x="150" y="-64" type="curve" smooth="yes"/>
      <point x="150" y="-22"/>
      <point x="158" y="15"/>
      <point x="175" y="45" type="curve"/>
      <point x="161" y="54"/>
      <point x="148" y="58"/>
      <point x="135" y="58" type="curve" smooth="yes"/>
      <point x="92" y="58"/>
      <point x="56" y="7"/>
      <point x="56" y="-55" type="curve" smooth="yes"/>
      <point x="56" y="-167"/>
      <point x="139" y="-252"/>
    </contour>
  </outline>
</glyph>
<glyph name="hoe-georgian" format="2">
  <advance width="601"/>
  <unicode hex="10F5"/>
  <note>
uni10F5
</note>
  <outline>
    <contour>
      <point x="266" y="-12" type="curve" smooth="yes"/>
      <point x="412" y="-12"/>
      <point x="478" y="59"/>
      <point x="478" y="207" type="curve" smooth="yes"/>
      <point x="478" y="289" type="line"/>
      <point x="581" y="289" type="line"/>
      <point x="581" y="346" type="line"/>
      <point x="478" y="346" type="line"/>
      <point x="478" y="440" type="line"/>
      <point x="581" y="440" type="line"/>
      <point x="581" y="497" type="line"/>
      <point x="478" y="497" type="line"/>
      <point x="478" y="553" type="line" smooth="yes"/>
      <point x="478" y="702"/>
      <point x="411" y="772"/>
      <point x="266" y="772" type="curve" smooth="yes"/>
      <point x="125" y="772"/>
      <point x="55" y="716"/>
      <point x="55" y="603" type="curve" smooth="yes"/>
      <point x="55" y="488"/>
      <point x="137" y="440"/>
      <point x="311" y="440" type="curve" smooth="yes"/>
      <point x="384" y="440" type="line"/>
      <point x="384" y="346" type="line"/>
      <point x="311" y="346" type="line" smooth="yes"/>
      <point x="135" y="346"/>
      <point x="55" y="293"/>
      <point x="55" y="170" type="curve" smooth="yes"/>
      <point x="55" y="49"/>
      <point x="125" y="-12"/>
    </contour>
    <contour>
      <point x="263" y="40" type="curve" smooth="yes"/>
      <point x="188" y="40"/>
      <point x="152" y="81"/>
      <point x="152" y="168" type="curve" smooth="yes"/>
      <point x="152" y="256"/>
      <point x="192" y="289"/>
      <point x="314" y="289" type="curve" smooth="yes"/>
      <point x="384" y="289" type="line"/>
      <point x="384" y="195" type="line" smooth="yes"/>
      <point x="384" y="84"/>
      <point x="346" y="40"/>
    </contour>
    <contour>
      <point x="314" y="497" type="line" smooth="yes"/>
      <point x="193" y="497"/>
      <point x="152" y="525"/>
      <point x="152" y="605" type="curve" smooth="yes"/>
      <point x="152" y="678"/>
      <point x="183" y="720"/>
      <point x="263" y="720" type="curve" smooth="yes"/>
      <point x="347" y="720"/>
      <point x="384" y="676"/>
      <point x="384" y="565" type="curve" smooth="yes"/>
      <point x="384" y="497" type="line"/>
    </contour>
  </outline>
</glyph>
<glyph name="fi-georgian" format="2">
  <advance width="918"/>
  <unicode hex="10F6"/>
  <note>
uni10F6
</note>
  <outline>
    <contour>
      <point x="349" y="-252" type="curve" smooth="yes"/>
      <point x="444" y="-252"/>
      <point x="506" y="-185"/>
      <point x="506" y="-64" type="curve" smooth="yes"/>
      <point x="506" y="-38" type="line"/>
      <point x="505" y="20"/>
      <point x="504" y="39"/>
      <point x="502" y="82" type="curve"/>
      <point x="506" y="82" type="line"/>
      <point x="540" y="21"/>
      <point x="590" y="-12"/>
      <point x="659" y="-12" type="curve" smooth="yes"/>
      <point x="796" y="-12"/>
      <point x="863" y="82"/>
      <point x="863" y="270" type="curve" smooth="yes"/>
      <point x="863" y="456"/>
      <point x="796" y="548"/>
      <point x="659" y="548" type="curve" smooth="yes"/>
      <point x="590" y="548"/>
      <point x="540" y="515"/>
      <point x="506" y="454" type="curve"/>
      <point x="502" y="454" type="line"/>
      <point x="503" y="481"/>
      <point x="506" y="509"/>
      <point x="506" y="536" type="curve" smooth="yes"/>
      <point x="506" y="614" type="line" smooth="yes"/>
      <point x="506" y="698"/>
      <point x="519" y="726"/>
      <point x="567" y="726" type="curve" smooth="yes"/>
      <point x="609" y="726"/>
      <point x="619" y="676"/>
      <point x="619" y="636" type="curve"/>
      <point x="672" y="636"/>
      <point x="696" y="660"/>
      <point x="696" y="693" type="curve" smooth="yes"/>
      <point x="696" y="734"/>
      <point x="658" y="772"/>
      <point x="579" y="772" type="curve" smooth="yes"/>
      <point x="466" y="772"/>
      <point x="412" y="708"/>
      <point x="412" y="592" type="curve" smooth="yes"/>
      <point x="412" y="536" type="line" smooth="yes"/>
      <point x="412" y="513"/>
      <point x="414" y="485"/>
      <point x="416" y="454" type="curve"/>
      <point x="412" y="454" type="line"/>
      <point x="381" y="517"/>
      <point x="334" y="548"/>
      <point x="259" y="548" type="curve" smooth="yes"/>
      <point x="123" y="548"/>
      <point x="55" y="455"/>
      <point x="55" y="269" type="curve" smooth="yes"/>
      <point x="55" y="80"/>
      <point x="123" y="-12"/>
      <point x="259" y="-12" type="curve" smooth="yes"/>
      <point x="334" y="-12"/>
      <point x="381" y="19"/>
      <point x="412" y="82" type="curve"/>
      <point x="416" y="82" type="line"/>
      <point x="413" y="29"/>
      <point x="412" y="-15"/>
      <point x="412" y="-40" type="curve" smooth="yes"/>
      <point x="412" y="-59" type="line" smooth="yes"/>
      <point x="412" y="-169"/>
      <point x="390" y="-202"/>
      <point x="348" y="-202" type="curve" smooth="yes"/>
      <point x="314" y="-202"/>
      <point x="296" y="-174"/>
      <point x="296" y="-106" type="curve"/>
      <point x="243" y="-107"/>
      <point x="219" y="-137"/>
      <point x="219" y="-173" type="curve" smooth="yes"/>
      <point x="219" y="-219"/>
      <point x="264" y="-252"/>
    </contour>
    <contour>
      <point x="276" y="52" type="curve" smooth="yes"/>
      <point x="188" y="52"/>
      <point x="152" y="118"/>
      <point x="152" y="270" type="curve" smooth="yes"/>
      <point x="152" y="420"/>
      <point x="190" y="484"/>
      <point x="276" y="484" type="curve" smooth="yes"/>
      <point x="374" y="484"/>
      <point x="412" y="423"/>
      <point x="412" y="267" type="curve" smooth="yes"/>
      <point x="412" y="112"/>
      <point x="373" y="52"/>
    </contour>
    <contour>
      <point x="643" y="52" type="curve" smooth="yes"/>
      <point x="547" y="52"/>
      <point x="506" y="121"/>
      <point x="506" y="268" type="curve" smooth="yes"/>
      <point x="506" y="415"/>
      <point x="547" y="484"/>
      <point x="643" y="484" type="curve" smooth="yes"/>
      <point x="727" y="484"/>
      <point x="766" y="416"/>
      <point x="766" y="270" type="curve" smooth="yes"/>
      <point x="766" y="122"/>
      <point x="727" y="52"/>
    </contour>
  </outline>
</glyph>
<glyph name="yn-georgian" format="2">
  <advance width="533"/>
  <unicode hex="10F7"/>
  <note>
uni10F7
</note>
  <anchor x="267" y="536" name="top"/>
  <outline>
    <contour>
      <point x="268" y="-252" type="curve" smooth="yes"/>
      <point x="396" y="-252"/>
      <point x="483" y="-180"/>
      <point x="483" y="-79" type="curve" smooth="yes"/>
      <point x="483" y="-6"/>
      <point x="442" y="41"/>
      <point x="403" y="41" type="curve" smooth="yes"/>
      <point x="393" y="41"/>
      <point x="382" y="38"/>
      <point x="369" y="31" type="curve"/>
      <point x="382" y="3"/>
      <point x="390" y="-25"/>
      <point x="390" y="-64" type="curve" smooth="yes"/>
      <point x="390" y="-148"/>
      <point x="347" y="-200"/>
      <point x="269" y="-200" type="curve" smooth="yes"/>
      <point x="189" y="-200"/>
      <point x="137" y="-148"/>
      <point x="137" y="-68" type="curve" smooth="yes"/>
      <point x="137" y="8"/>
      <point x="170" y="52"/>
      <point x="282" y="124" type="curve" smooth="yes"/>
      <point x="399" y="199"/>
      <point x="449" y="270"/>
      <point x="449" y="377" type="curve" smooth="yes"/>
      <point x="449" y="481"/>
      <point x="380" y="548"/>
      <point x="268" y="548" type="curve" smooth="yes"/>
      <point x="159" y="548"/>
      <point x="80" y="489"/>
      <point x="80" y="413" type="curve" smooth="yes"/>
      <point x="80" y="367"/>
      <point x="114" y="344"/>
      <point x="143" y="344" type="curve" smooth="yes"/>
      <point x="158" y="344"/>
      <point x="171" y="347"/>
      <point x="182" y="350" type="curve"/>
      <point x="178" y="361"/>
      <point x="173" y="384"/>
      <point x="173" y="408" type="curve" smooth="yes"/>
      <point x="173" y="473"/>
      <point x="219" y="502"/>
      <point x="266" y="502" type="curve" smooth="yes"/>
      <point x="325" y="502"/>
      <point x="364" y="456"/>
      <point x="364" y="386" type="curve" smooth="yes"/>
      <point x="364" y="309"/>
      <point x="336" y="270"/>
      <point x="218" y="191" type="curve" smooth="yes"/>
      <point x="97" y="110"/>
      <point x="50" y="44"/>
      <point x="50" y="-55" type="curve" smooth="yes"/>
      <point x="50" y="-170"/>
      <point x="137" y="-252"/>
    </contour>
  </outline>
</glyph>
<glyph name="elifi-georgian" format="2">
  <advance width="578"/>
  <unicode hex="10F8"/>
  <note>
uni10F8
</note>
  <outline>
    <contour>
      <point x="308" y="-252" type="curve" smooth="yes"/>
      <point x="440" y="-252"/>
      <point x="523" y="-167"/>
      <point x="523" y="-45" type="curve" smooth="yes"/>
      <point x="523" y="17"/>
      <point x="485" y="68"/>
      <point x="442" y="68" type="curve" smooth="yes"/>
      <point x="429" y="68"/>
      <point x="416" y="64"/>
      <point x="402" y="55" type="curve"/>
      <point x="420" y="25"/>
      <point x="429" y="-12"/>
      <point x="429" y="-54" type="curve" smooth="yes"/>
      <point x="429" y="-128"/>
      <point x="394" y="-200"/>
      <point x="309" y="-200" type="curve" smooth="yes"/>
      <point x="216" y="-200"/>
      <point x="179" y="-131"/>
      <point x="179" y="-13" type="curve" smooth="yes"/>
      <point x="179" y="175" type="line" smooth="yes"/>
      <point x="179" y="184"/>
      <point x="177" y="218"/>
      <point x="173" y="275" type="curve"/>
      <point x="179" y="275" type="line"/>
      <point x="207" y="223"/>
      <point x="257" y="185"/>
      <point x="335" y="185" type="curve" smooth="yes"/>
      <point x="433" y="185"/>
      <point x="514" y="260"/>
      <point x="514" y="381" type="curve" smooth="yes"/>
      <point x="514" y="484"/>
      <point x="463" y="541"/>
      <point x="424" y="541" type="curve" smooth="yes"/>
      <point x="414" y="541"/>
      <point x="403" y="538"/>
      <point x="390" y="531" type="curve"/>
      <point x="403" y="503"/>
      <point x="421" y="465"/>
      <point x="421" y="396" type="curve" smooth="yes"/>
      <point x="421" y="292"/>
      <point x="378" y="248"/>
      <point x="310" y="248" type="curve" smooth="yes"/>
      <point x="214" y="248"/>
      <point x="179" y="327"/>
      <point x="179" y="466" type="curve" smooth="yes"/>
      <point x="179" y="536" type="line"/>
      <point x="85" y="536" type="line"/>
      <point x="85" y="-14" type="line" smooth="yes"/>
      <point x="85" y="-167"/>
      <point x="175" y="-252"/>
    </contour>
  </outline>
</glyph>
<glyph name="turnedgan-georgian" format="2">
  <advance width="577"/>
  <unicode hex="10F9"/>
  <note>
uni10F9
</note>
  <outline>
    <contour>
      <point x="290" y="548" type="curve" smooth="yes"/>
      <point x="136" y="548"/>
      <point x="55" y="457"/>
      <point x="55" y="267" type="curve" smooth="yes"/>
      <point x="55" y="107"/>
      <point x="122" y="19"/>
      <point x="230" y="-4" type="curve"/>
      <point x="230" y="-7" type="line"/>
      <point x="158" y="-35"/>
      <point x="130" y="-83"/>
      <point x="130" y="-121" type="curve" smooth="yes"/>
      <point x="130" y="-193"/>
      <point x="191" y="-252"/>
      <point x="298" y="-252" type="curve" smooth="yes"/>
      <point x="403" y="-252"/>
      <point x="467" y="-193"/>
      <point x="467" y="-140" type="curve" smooth="yes"/>
      <point x="467" y="-91"/>
      <point x="433" y="-78"/>
      <point x="404" y="-78" type="curve" smooth="yes"/>
      <point x="389" y="-78"/>
      <point x="376" y="-81"/>
      <point x="365" y="-84" type="curve"/>
      <point x="369" y="-95"/>
      <point x="374" y="-108"/>
      <point x="374" y="-132" type="curve" smooth="yes"/>
      <point x="374" y="-177"/>
      <point x="343" y="-206"/>
      <point x="299" y="-206" type="curve" smooth="yes"/>
      <point x="254" y="-206"/>
      <point x="224" y="-177"/>
      <point x="224" y="-121" type="curve" smooth="yes"/>
      <point x="224" y="-71"/>
      <point x="241" y="-28"/>
      <point x="337" y="-9" type="curve" smooth="yes"/>
      <point x="457" y="15"/>
      <point x="522" y="99"/>
      <point x="522" y="267" type="curve" smooth="yes"/>
      <point x="522" y="457"/>
      <point x="434" y="548"/>
    </contour>
    <contour>
      <point x="288" y="496" type="curve" smooth="yes"/>
      <point x="388" y="496"/>
      <point x="425" y="418"/>
      <point x="425" y="267" type="curve" smooth="yes"/>
      <point x="425" y="116"/>
      <point x="389" y="40"/>
      <point x="289" y="40" type="curve" smooth="yes"/>
      <point x="189" y="40"/>
      <point x="152" y="116"/>
      <point x="152" y="267" type="curve" smooth="yes"/>
      <point x="152" y="418"/>
      <point x="188" y="496"/>
    </contour>
  </outline>
</glyph>
<glyph name="ain-georgian" format="2">
  <advance width="503"/>
  <unicode hex="10FA"/>
  <note>
uni10FA
</note>
  <outline>
    <contour>
      <point x="115" y="-87" type="line"/>
      <point x="453" y="53" type="line"/>
      <point x="453" y="116" type="line"/>
      <point x="406" y="82"/>
      <point x="356" y="65"/>
      <point x="303" y="65" type="curve" smooth="yes"/>
      <point x="196" y="65"/>
      <point x="152" y="134"/>
      <point x="152" y="276" type="curve" smooth="yes"/>
      <point x="152" y="445"/>
      <point x="201" y="496"/>
      <point x="278" y="496" type="curve" smooth="yes"/>
      <point x="345" y="496"/>
      <point x="363" y="444"/>
      <point x="363" y="381" type="curve"/>
      <point x="422" y="381"/>
      <point x="452" y="398"/>
      <point x="452" y="444" type="curve" smooth="yes"/>
      <point x="452" y="513"/>
      <point x="361" y="546"/>
      <point x="278" y="546" type="curve" smooth="yes"/>
      <point x="151" y="546"/>
      <point x="55" y="479"/>
      <point x="55" y="275" type="curve" smooth="yes"/>
      <point x="55" y="122"/>
      <point x="131" y="29"/>
      <point x="224" y="12" type="curve"/>
      <point x="115" y="-34" type="line"/>
    </contour>
  </outline>
</glyph>
<glyph name="paragraph-georgian" format="2">
  <advance width="557"/>
  <unicode hex="10FB"/>
  <note>
uni10FB
</note>
  <outline>
    <contour>
      <point x="424" y="199" type="curve" smooth="yes"/>
      <point x="465" y="199"/>
      <point x="487" y="224"/>
      <point x="487" y="267" type="curve" smooth="yes"/>
      <point x="487" y="311"/>
      <point x="465" y="335"/>
      <point x="424" y="335" type="curve" smooth="yes"/>
      <point x="382" y="335"/>
      <point x="361" y="313"/>
      <point x="361" y="267" type="curve" smooth="yes"/>
      <point x="361" y="222"/>
      <point x="382" y="199"/>
    </contour>
    <contour>
      <point x="144" y="-7" type="curve" smooth="yes"/>
      <point x="186" y="-7"/>
      <point x="207" y="18"/>
      <point x="207" y="61" type="curve" smooth="yes"/>
      <point x="207" y="104"/>
      <point x="185" y="129"/>
      <point x="144" y="129" type="curve" smooth="yes"/>
      <point x="102" y="129"/>
      <point x="81" y="106"/>
      <point x="81" y="61" type="curve" smooth="yes"/>
      <point x="81" y="16"/>
      <point x="102" y="-7"/>
    </contour>
    <contour>
      <point x="144" y="405" type="curve" smooth="yes"/>
      <point x="186" y="405"/>
      <point x="207" y="430"/>
      <point x="207" y="473" type="curve" smooth="yes"/>
      <point x="207" y="517"/>
      <point x="185" y="541"/>
      <point x="144" y="541" type="curve" smooth="yes"/>
      <point x="102" y="541"/>
      <point x="81" y="519"/>
      <point x="81" y="473" type="curve" smooth="yes"/>
      <point x="81" y="428"/>
      <point x="102" y="405"/>
    </contour>
  </outline>
</glyph>
<glyph name="narMod-georgian" format="2">
  <advance width="352"/>
  <unicode hex="10FC"/>
  <note>
uni10FC
</note>
  <outline>
    <contour>
      <point x="182" y="381" type="curve" smooth="yes"/>
      <point x="274" y="381"/>
      <point x="322" y="437"/>
      <point x="322" y="541" type="curve" smooth="yes"/>
      <point x="322" y="642"/>
      <point x="287" y="698"/>
      <point x="209" y="698" type="curve" smooth="yes"/>
      <point x="167" y="698"/>
      <point x="142" y="680"/>
      <point x="126" y="655" type="curve"/>
      <point x="123" y="655" type="line"/>
      <point x="125" y="674"/>
      <point x="125" y="698"/>
      <point x="125" y="712" type="curve" smooth="yes"/>
      <point x="125" y="728" type="line" smooth="yes"/>
      <point x="125" y="765"/>
      <point x="143" y="785"/>
      <point x="173" y="785" type="curve" smooth="yes"/>
      <point x="211" y="785"/>
      <point x="226" y="756"/>
      <point x="261" y="756" type="curve" smooth="yes"/>
      <point x="279" y="756"/>
      <point x="300" y="767"/>
      <point x="300" y="793" type="curve" smooth="yes"/>
      <point x="300" y="810"/>
      <point x="289" y="819"/>
      <point x="276" y="824" type="curve"/>
      <point x="266" y="812"/>
      <point x="251" y="810"/>
      <point x="238" y="810" type="curve" smooth="yes"/>
      <point x="213" y="810"/>
      <point x="196" y="818"/>
      <point x="162" y="818" type="curve" smooth="yes"/>
      <point x="93" y="818"/>
      <point x="40" y="780"/>
      <point x="40" y="700" type="curve" smooth="yes"/>
      <point x="40" y="541" type="line" smooth="yes"/>
      <point x="40" y="437"/>
      <point x="91" y="381"/>
    </contour>
    <contour>
      <point x="182" y="417" type="curve" smooth="yes"/>
      <point x="136" y="417"/>
      <point x="125" y="455"/>
      <point x="125" y="536" type="curve" smooth="yes"/>
      <point x="125" y="608"/>
      <point x="136" y="657"/>
      <point x="183" y="657" type="curve" smooth="yes"/>
      <point x="223" y="657"/>
      <point x="236" y="616"/>
      <point x="236" y="536" type="curve" smooth="yes"/>
      <point x="236" y="455"/>
      <point x="223" y="417"/>
    </contour>
  </outline>
</glyph>
<glyph name="aen-georgian" format="2">
  <advance width="533"/>
  <unicode hex="10FD"/>
  <outline>
    <contour>
      <point x="265" y="-12" type="curve" smooth="yes"/>
      <point x="396" y="-12"/>
      <point x="483" y="70"/>
      <point x="483" y="185" type="curve" smooth="yes"/>
      <point x="483" y="284"/>
      <point x="436" y="344"/>
      <point x="315" y="425" type="curve" smooth="yes"/>
      <point x="197" y="504"/>
      <point x="164" y="533"/>
      <point x="164" y="610" type="curve" smooth="yes"/>
      <point x="164" y="680"/>
      <point x="203" y="726"/>
      <point x="262" y="726" type="curve" smooth="yes"/>
      <point x="309" y="726"/>
      <point x="355" y="697"/>
      <point x="355" y="632" type="curve" smooth="yes"/>
      <point x="355" y="608"/>
      <point x="350" y="585"/>
      <point x="346" y="574" type="curve"/>
      <point x="357" y="571"/>
      <point x="370" y="568"/>
      <point x="385" y="568" type="curve" smooth="yes"/>
      <point x="414" y="568"/>
      <point x="448" y="591"/>
      <point x="448" y="637" type="curve" smooth="yes"/>
      <point x="448" y="713"/>
      <point x="369" y="772"/>
      <point x="260" y="772" type="curve" smooth="yes"/>
      <point x="148" y="772"/>
      <point x="79" y="705"/>
      <point x="79" y="601" type="curve" smooth="yes"/>
      <point x="79" y="494"/>
      <point x="134" y="433"/>
      <point x="251" y="358" type="curve" smooth="yes"/>
      <point x="363" y="286"/>
      <point x="396" y="248"/>
      <point x="396" y="172" type="curve" smooth="yes"/>
      <point x="396" y="92"/>
      <point x="344" y="40"/>
      <point x="264" y="40" type="curve" smooth="yes"/>
      <point x="186" y="40"/>
      <point x="143" y="92"/>
      <point x="143" y="176" type="curve" smooth="yes"/>
      <point x="143" y="215"/>
      <point x="151" y="243"/>
      <point x="164" y="271" type="curve"/>
      <point x="151" y="278"/>
      <point x="140" y="281"/>
      <point x="130" y="281" type="curve" smooth="yes"/>
      <point x="91" y="281"/>
      <point x="50" y="234"/>
      <point x="50" y="161" type="curve" smooth="yes"/>
      <point x="50" y="60"/>
      <point x="137" y="-12"/>
    </contour>
  </outline>
</glyph>
<glyph name="hardsign-georgian" format="2">
  <advance width="577"/>
  <unicode hex="10FE"/>
  <outline>
    <contour>
      <point x="108" y="548" type="curve" smooth="yes"/>
      <point x="76" y="548"/>
      <point x="59" y="529"/>
      <point x="58" y="485" type="curve"/>
      <point x="126" y="485"/>
      <point x="153" y="479"/>
      <point x="225" y="448" type="curve"/>
      <point x="108" y="386"/>
      <point x="55" y="307"/>
      <point x="55" y="196" type="curve" smooth="yes"/>
      <point x="55" y="88"/>
      <point x="144" y="-12"/>
      <point x="290" y="-12" type="curve" smooth="yes"/>
      <point x="438" y="-12"/>
      <point x="522" y="86"/>
      <point x="522" y="196" type="curve" smooth="yes"/>
      <point x="522" y="309"/>
      <point x="467" y="388"/>
      <point x="351" y="448" type="curve"/>
      <point x="430" y="481"/>
      <point x="455" y="485"/>
      <point x="519" y="485" type="curve"/>
      <point x="517" y="525"/>
      <point x="504" y="548"/>
      <point x="469" y="548" type="curve" smooth="yes"/>
      <point x="438" y="548"/>
      <point x="353" y="513"/>
      <point x="288" y="482" type="curve"/>
      <point x="222" y="514"/>
      <point x="139" y="548"/>
    </contour>
    <contour>
      <point x="288" y="417" type="curve"/>
      <point x="380" y="370"/>
      <point x="425" y="294"/>
      <point x="425" y="197" type="curve" smooth="yes"/>
      <point x="425" y="119"/>
      <point x="374" y="40"/>
      <point x="288" y="40" type="curve" smooth="yes"/>
      <point x="203" y="40"/>
      <point x="152" y="121"/>
      <point x="152" y="197" type="curve" smooth="yes"/>
      <point x="152" y="296"/>
      <point x="197" y="372"/>
    </contour>
  </outline>
</glyph>
<glyph name="labial-georgian" format="2">
  <advance width="577"/>
  <unicode hex="10FF"/>
  <outline>
    <contour>
      <point x="287" y="-12" type="curve" smooth="yes"/>
      <point x="441" y="-12"/>
      <point x="522" y="79"/>
      <point x="522" y="269" type="curve" smooth="yes"/>
      <point x="522" y="458"/>
      <point x="434" y="548"/>
      <point x="290" y="548" type="curve" smooth="yes"/>
      <point x="135" y="548"/>
      <point x="55" y="458"/>
      <point x="55" y="269" type="curve" smooth="yes"/>
      <point x="55" y="79"/>
      <point x="143" y="-12"/>
    </contour>
    <contour>
      <point x="289" y="40" type="curve" smooth="yes"/>
      <point x="189" y="40"/>
      <point x="152" y="118"/>
      <point x="152" y="269" type="curve" smooth="yes"/>
      <point x="152" y="420"/>
      <point x="188" y="496"/>
      <point x="288" y="496" type="curve" smooth="yes"/>
      <point x="388" y="496"/>
      <point x="425" y="420"/>
      <point x="425" y="269" type="curve" smooth="yes"/>
      <point x="425" y="118"/>
      <point x="389" y="40"/>
    </contour>
  </outline>
</glyph>
<glyph name="An-georgian" format="2">
  <advance width="579"/>
  <unicode hex="1C90"/>
  <anchor x="292" y="714" name="top"/>
  <outline>
    <contour>
      <point x="284" y="-10" type="curve" smooth="yes"/>
      <point x="419" y="-10"/>
      <point x="518" y="75"/>
      <point x="518" y="213" type="curve" smooth="yes"/>
      <point x="518" y="328"/>
      <point x="458" y="404"/>
      <point x="410" y="467" type="curve" smooth="yes"/>
      <point x="366" y="525"/>
      <point x="337" y="575"/>
      <point x="337" y="646" type="curve" smooth="yes"/>
      <point x="337" y="669"/>
      <point x="342" y="693"/>
      <point x="352" y="709" type="curve"/>
      <point x="343" y="718"/>
      <point x="326" y="725"/>
      <point x="308" y="725" type="curve" smooth="yes"/>
      <point x="272" y="725"/>
      <point x="239" y="696"/>
      <point x="239" y="639" type="curve" smooth="yes"/>
      <point x="239" y="553"/>
      <point x="287" y="480"/>
      <point x="331" y="419" type="curve" smooth="yes"/>
      <point x="375" y="359"/>
      <point x="411" y="299"/>
      <point x="411" y="212" type="curve" smooth="yes"/>
      <point x="411" y="101"/>
      <point x="366" y="43"/>
      <point x="284" y="43" type="curve" smooth="yes"/>
      <point x="208" y="43"/>
      <point x="160" y="101"/>
      <point x="160" y="213" type="curve" smooth="yes"/>
      <point x="160" y="267"/>
      <point x="178" y="310"/>
      <point x="196" y="343" type="curve"/>
      <point x="182" y="354"/>
      <point x="166" y="357"/>
      <point x="152" y="357" type="curve" smooth="yes"/>
      <point x="101" y="357"/>
      <point x="55" y="297"/>
      <point x="55" y="211" type="curve" smooth="yes"/>
      <point x="55" y="76"/>
      <point x="148" y="-10"/>
    </contour>
  </outline>
</glyph>
<glyph name="Ban-georgian" format="2">
  <advance width="610"/>
  <unicode hex="1C91"/>
  <outline>
    <contour>
      <point x="303" y="-10" type="curve" smooth="yes"/>
      <point x="464" y="-10"/>
      <point x="549" y="75"/>
      <point x="549" y="253" type="curve" smooth="yes"/>
      <point x="549" y="422"/>
      <point x="464" y="515"/>
      <point x="306" y="515" type="curve" smooth="yes"/>
      <point x="153" y="515"/>
      <point x="61" y="421"/>
      <point x="61" y="253" type="curve" smooth="yes"/>
      <point x="61" y="76"/>
      <point x="153" y="-10"/>
    </contour>
    <contour>
      <point x="306" y="43" type="curve" smooth="yes"/>
      <point x="203" y="43"/>
      <point x="169" y="115"/>
      <point x="169" y="253" type="curve" smooth="yes"/>
      <point x="169" y="392"/>
      <point x="202" y="465"/>
      <point x="305" y="465" type="curve" smooth="yes"/>
      <point x="408" y="465"/>
      <point x="441" y="391"/>
      <point x="441" y="253" type="curve" smooth="yes"/>
      <point x="441" y="116"/>
      <point x="409" y="43"/>
    </contour>
    <contour>
      <point x="269" y="499" type="curve"/>
      <point x="361" y="499" type="line"/>
      <point x="378" y="522"/>
      <point x="382" y="539"/>
      <point x="382" y="559" type="curve" smooth="yes"/>
      <point x="382" y="633"/>
      <point x="278" y="631"/>
      <point x="278" y="684" type="curve" smooth="yes"/>
      <point x="278" y="692"/>
      <point x="280" y="701"/>
      <point x="286" y="713" type="curve"/>
      <point x="277" y="720"/>
      <point x="264" y="725"/>
      <point x="244" y="725" type="curve" smooth="yes"/>
      <point x="203" y="725"/>
      <point x="181" y="705"/>
      <point x="181" y="674" type="curve" smooth="yes"/>
      <point x="181" y="595"/>
      <point x="284" y="605"/>
      <point x="284" y="549" type="curve" smooth="yes"/>
      <point x="284" y="534"/>
      <point x="280" y="518"/>
    </contour>
  </outline>
</glyph>
<glyph name="Gan-georgian" format="2">
  <advance width="598"/>
  <unicode hex="1C92"/>
  <outline>
    <contour>
      <point x="297" y="-10" type="curve" smooth="yes"/>
      <point x="458" y="-10"/>
      <point x="543" y="75"/>
      <point x="543" y="248" type="curve" smooth="yes"/>
      <point x="543" y="389"/>
      <point x="484" y="475"/>
      <point x="376" y="497" type="curve"/>
      <point x="376" y="500" type="line"/>
      <point x="445" y="513"/>
      <point x="475" y="559"/>
      <point x="475" y="598" type="curve" smooth="yes"/>
      <point x="475" y="670"/>
      <point x="410" y="725"/>
      <point x="295" y="725" type="curve" smooth="yes"/>
      <point x="187" y="725"/>
      <point x="113" y="670"/>
      <point x="113" y="618" type="curve" smooth="yes"/>
      <point x="113" y="572"/>
      <point x="148" y="555"/>
      <point x="181" y="555" type="curve" smooth="yes"/>
      <point x="201" y="555"/>
      <point x="216" y="561"/>
      <point x="229" y="567" type="curve"/>
      <point x="225" y="576"/>
      <point x="219" y="590"/>
      <point x="219" y="612" type="curve" smooth="yes"/>
      <point x="219" y="654"/>
      <point x="253" y="680"/>
      <point x="294" y="680" type="curve" smooth="yes"/>
      <point x="335" y="680"/>
      <point x="368" y="654"/>
      <point x="368" y="600" type="curve" smooth="yes"/>
      <point x="368" y="555"/>
      <point x="350" y="515"/>
      <point x="261" y="503" type="curve" smooth="yes"/>
      <point x="132" y="486"/>
      <point x="55" y="397"/>
      <point x="55" y="248" type="curve" smooth="yes"/>
      <point x="55" y="76"/>
      <point x="147" y="-10"/>
    </contour>
    <contour>
      <point x="300" y="43" type="curve" smooth="yes"/>
      <point x="197" y="43"/>
      <point x="163" y="115"/>
      <point x="163" y="248" type="curve" smooth="yes"/>
      <point x="163" y="382"/>
      <point x="196" y="455"/>
      <point x="299" y="455" type="curve" smooth="yes"/>
      <point x="402" y="455"/>
      <point x="435" y="381"/>
      <point x="435" y="248" type="curve" smooth="yes"/>
      <point x="435" y="116"/>
      <point x="403" y="43"/>
    </contour>
  </outline>
</glyph>
<glyph name="Don-georgian" format="2">
  <advance width="907"/>
  <unicode hex="1C93"/>
  <outline>
    <contour>
      <point x="611" y="259" type="curve" smooth="yes"/>
      <point x="760" y="259"/>
      <point x="846" y="353"/>
      <point x="846" y="490" type="curve" smooth="yes"/>
      <point x="846" y="639"/>
      <point x="760" y="725"/>
      <point x="612" y="725" type="curve" smooth="yes"/>
      <point x="533" y="725"/>
      <point x="461" y="692"/>
      <point x="438" y="632" type="curve"/>
      <point x="434" y="632" type="line"/>
      <point x="413" y="692"/>
      <point x="348" y="725"/>
      <point x="275" y="725" type="curve" smooth="yes"/>
      <point x="137" y="725"/>
      <point x="61" y="634"/>
      <point x="61" y="486" type="curve" smooth="yes"/>
      <point x="61" y="298"/>
      <point x="164" y="205"/>
      <point x="307" y="151" type="curve"/>
      <point x="307" y="147" type="line"/>
      <point x="264" y="145"/>
      <point x="207" y="127"/>
      <point x="173" y="99" type="curve"/>
      <point x="194" y="69" type="line"/>
      <point x="243" y="98"/>
      <point x="301" y="106"/>
      <point x="364" y="106" type="curve" smooth="yes"/>
      <point x="471" y="106"/>
      <point x="614" y="73"/>
      <point x="614" y="-6" type="curve"/>
      <point x="651" y="-6"/>
      <point x="678" y="10"/>
      <point x="678" y="44" type="curve" smooth="yes"/>
      <point x="678" y="105"/>
      <point x="583" y="153"/>
      <point x="461" y="176" type="curve" smooth="yes"/>
      <point x="311" y="204"/>
      <point x="169" y="265"/>
      <point x="169" y="483" type="curve" smooth="yes"/>
      <point x="169" y="588"/>
      <point x="190" y="675"/>
      <point x="279" y="675" type="curve" smooth="yes"/>
      <point x="346" y="675"/>
      <point x="382" y="631"/>
      <point x="382" y="530" type="curve" smooth="yes"/>
      <point x="382" y="491" type="line" smooth="yes"/>
      <point x="382" y="353"/>
      <point x="463" y="259"/>
    </contour>
    <contour>
      <point x="611" y="674" type="curve" smooth="yes"/>
      <point x="703" y="674"/>
      <point x="738" y="602"/>
      <point x="738" y="490" type="curve" smooth="yes"/>
      <point x="738" y="385"/>
      <point x="706" y="309"/>
      <point x="611" y="309" type="curve" smooth="yes"/>
      <point x="518" y="309"/>
      <point x="484" y="385"/>
      <point x="484" y="490" type="curve" smooth="yes"/>
      <point x="484" y="603"/>
      <point x="517" y="674"/>
    </contour>
  </outline>
</glyph>
